<?xml version="1.0" encoding="UTF-8"?>
<svg width="596px" height="511px" viewBox="0 0 596 511" version="1.1" xmlns="http://www.w3.org/2000/svg" xmlns:xlink="http://www.w3.org/1999/xlink">
    <!-- Generator: Sketch 59 (86127) - https://sketch.com -->
    <title>Group 111</title>
    <desc>Created with Sketch.</desc>
    <defs>
        <path d="M69.3189369,0.0747508306 L0.867109635,114.676744 C2.45681063,118.957475 3.3269103,123.580066 3.3269103,128.39701 L3.3269103,128.39701 C3.3269103,132.043854 2.8255814,135.577076 1.89468439,138.936877 L1.89468439,138.936877 L224.640199,138.936877 L141.699668,0.0747508306 L69.3189369,0.0747508306 Z" id="path-1"></path>
        <linearGradient x1="47.3830015%" y1="7.95416645%" x2="52.1952267%" y2="81.0558012%" id="linearGradient-3">
            <stop stop-color="#4CE1C6" offset="0%"></stop>
            <stop stop-color="#42CB53" offset="100%"></stop>
        </linearGradient>
    </defs>
    <g id="Page-1" stroke="none" stroke-width="1" fill="none" fill-rule="evenodd">
        <g id="Final-Version-Copy" transform="translate(-146.000000, -1044.000000)">
            <g id="Group-111" transform="translate(145.000000, 1043.000000)">
                <g id="Group-13" transform="translate(140.000000, 109.000000)">
                    <path d="M180.094153,1.88504983 L144.977209,1.88504983 L144.977209,124.136545 L261.140997,124.136545 L261.140997,20.1521595 C252.525714,18.4887043 241.853289,17.654485 228.440997,17.654485 L200.402458,17.654485 C190.662924,17.654485 182.420399,10.9229236 180.094153,1.88504983" id="Fill-3" fill="#E3B19B"></path>
                    <path d="M179.713123,0.066910299 L142.25,0.066910299 L142.25,122.019402 L258.413787,122.019402 L258.413787,19.6655814 C250.297841,18.3270432 240.472591,17.6542857 228.440698,17.6542857 L200.402159,17.6542857 C190.020764,17.6542857 181.340698,10.0057807 179.713123,0.066910299" id="Fill-5" fill="#FCE4D6"></path>
                    <path d="M248.593422,18.4479402 L248.593422,112.200432 L152.069169,112.200432 L152.069169,9.88647841 L184.144252,9.88647841 C187.997409,14.6177076 193.86186,17.6545847 200.40206,17.6545847 L228.440598,17.6545847 C235.987442,17.6545847 242.659203,17.9206977 248.593422,18.4479402" id="Fill-7" fill="#FFFFFF"></path>
                    <polygon id="Fill-9" fill="#E3B19B" points="3.69933555 96.6003322 119.86412 96.6003322 119.86412 1.88504983 3.69933555 1.88504983"></polygon>
                    <polygon id="Fill-11" fill="#FCE4D6" points="0.971428571 94.7813953 117.136213 94.7813953 117.136213 0.0671096346 0.971428571 0.0671096346"></polygon>
                    <polygon id="Fill-12" fill="#FFFFFF" points="10.7906977 84.9621262 107.315947 84.9621262 107.315947 9.88637874 10.7906977 9.88637874"></polygon>
                </g>
                <g id="Group-16" transform="translate(130.488372, 86.548173)">
                    <mask id="mask-2" fill="white">
                        <use xlink:href="#path-1"></use>
                    </mask>
                    <g id="Clip-15"></g>
                </g>
                <g id="Group-110" transform="translate(0.920266, 0.833887)">
                    <path d="M128.859568,121.307542 C128.859568,120.685615 129.363887,120.181296 129.986811,120.181296 C130.608738,120.181296 131.113056,120.685615 131.113056,121.307542 L131.113056,123.958704 L133.763223,123.958704 C134.386146,123.958704 134.890465,124.462027 134.890465,125.08495 C134.890465,125.706877 134.386146,126.211196 133.763223,126.211196 L131.113056,126.211196 L131.113056,128.862359 C131.113056,129.484286 130.608738,129.988605 129.986811,129.988605 C129.363887,129.988605 128.859568,129.484286 128.859568,128.862359 L128.859568,126.211196 L126.209402,126.211196 C125.586478,126.211196 125.082159,125.706877 125.082159,125.08495 C125.082159,124.462027 125.586478,123.958704 126.209402,123.958704 L128.859568,123.958704 L128.859568,121.307542 Z" id="Fill-24" fill="#FC8522"></path>
                    <path d="M42.7131229,136.936645 C43.6240864,137.198771 44.4872093,137.569535 45.2885382,138.031993 C46.1107973,138.508405 46.8692691,139.081495 47.5490033,139.736312 C47.6805648,139.86289 47.8789037,139.882824 48.029402,139.79412 L51.0832226,138.030997 L51.1001661,138.02103 C51.2745847,137.926346 51.4739203,137.909402 51.6563123,137.957243 C51.8446844,138.00907 52.0131229,138.129668 52.1167774,138.30907 L52.1297342,138.33 L54.2785714,142.051595 C54.3812292,142.23 54.4021595,142.438306 54.3513289,142.625681 C54.3004983,142.813056 54.1799003,142.982492 54.0004983,143.086146 L53.9795681,143.098106 L50.9506645,144.847276 C50.791196,144.93897 50.7184385,145.122359 50.760299,145.291794 L50.760299,145.291794 C50.8719269,145.742292 50.9566445,146.206744 51.0154485,146.680166 C51.0712625,147.142625 51.1001661,147.61505 51.1001661,148.095449 C51.1001661,148.576844 51.0712625,149.049269 51.0154485,149.511728 C50.9566445,149.986146 50.8709302,150.450598 50.7593023,150.9001 C50.7134551,151.086478 50.8071429,151.276844 50.9725914,151.358571 L54.0004983,153.105748 L54.0004983,153.106744 C54.1799003,153.210399 54.3004983,153.378837 54.3513289,153.567209 C54.4021595,153.755581 54.3812292,153.961894 54.2785714,154.141296 L52.1177741,157.883821 L52.1167774,157.882824 C52.0131229,158.063223 51.8446844,158.183821 51.6563123,158.234651 C51.4689369,158.285482 51.2626246,158.263555 51.0832226,158.160897 L51.060299,158.149934 L48.0284053,156.398771 C47.8699336,156.308073 47.6755814,156.33598 47.5490033,156.456578 C46.8692691,157.111395 46.1107973,157.684485 45.2885382,158.158904 C44.4822259,158.625349 43.6131229,158.998106 42.6961794,159.261229 C42.5187708,159.31206 42.4031561,159.472525 42.4031561,159.649934 L42.4031561,163.172193 C42.4031561,163.378505 42.3184385,163.567874 42.180897,163.705415 C42.0433555,163.842957 41.8549834,163.927674 41.6476744,163.927674 L37.3250831,163.927674 C37.1177741,163.927674 36.929402,163.842957 36.7918605,163.705415 C36.6543189,163.567874 36.5696013,163.378505 36.5696013,163.172193 L36.5696013,159.648937 C36.5696013,159.457575 36.4370432,159.299103 36.2586379,159.256246 C35.3486711,158.993123 34.4855482,158.623355 33.6832226,158.158904 C32.8609635,157.684485 32.1024917,157.111395 31.4237542,156.455581 C31.2852159,156.32402 31.0769103,156.30907 30.9224252,156.410731 L27.8895349,158.161894 C27.7101329,158.263555 27.5038206,158.285482 27.3154485,158.234651 C27.1280731,158.183821 26.9596346,158.063223 26.8559801,157.882824 L26.8430233,157.86289 L24.694186,154.140299 L24.694186,154.140299 C24.5905316,153.960897 24.570598,153.755581 24.6214286,153.567209 C24.6712625,153.378837 24.7928571,153.210399 24.9702658,153.106744 L28.0210963,151.344618 C28.1805648,151.25392 28.2543189,151.070532 28.2124585,150.9001 C28.1008306,150.450598 28.0151163,149.986146 27.957309,149.511728 C27.901495,149.049269 27.8715947,148.576844 27.8715947,148.095449 C27.8715947,147.61505 27.901495,147.142625 27.957309,146.680166 C28.0151163,146.204751 28.1008306,145.742292 28.2124585,145.291794 C28.2583056,145.104419 28.1656146,144.917043 27.9991694,144.834319 L24.9702658,143.086146 C24.7928571,142.982492 24.6712625,142.814053 24.6214286,142.625681 C24.570598,142.438306 24.5905316,142.230997 24.694186,142.052591 L24.7061462,142.030664 L26.8549834,138.30907 C26.9596346,138.129668 27.1280731,138.00907 27.3154485,137.957243 C27.5038206,137.907409 27.7101329,137.927342 27.8895349,138.030997 L27.8885382,138.030997 L30.9423588,139.79412 C31.105814,139.888804 31.3071429,139.85691 31.4327243,139.727342 C32.1094684,139.076512 32.8649502,138.506412 33.6832226,138.031993 C34.4905316,137.566545 35.3596346,137.194784 36.2765781,136.931661 C36.4539867,136.880831 36.5686047,136.718372 36.5696013,136.542957 L36.5696013,133.020698 C36.5696013,132.813389 36.6543189,132.625017 36.7918605,132.487475 C36.929402,132.35093 37.1177741,132.265216 37.3250831,132.265216 L41.6476744,132.265216 C41.8549834,132.265216 42.0433555,132.35093 42.180897,132.487475 C42.3184385,132.625017 42.4031561,132.813389 42.4031561,133.020698 L42.4031561,136.542957 C42.4031561,136.733322 42.5357143,136.894784 42.7131229,136.936645 L42.7131229,136.936645 Z M44.1333887,143.449934 C42.9433555,142.260897 41.3008306,141.524352 39.4858804,141.524352 C37.6719269,141.524352 36.0284053,142.260897 34.8393688,143.449934 C33.6503322,144.63897 32.9147841,146.281495 32.9147841,148.095449 C32.9147841,149.910399 33.6503322,151.554917 34.8393688,152.742957 C36.0284053,153.931993 37.6719269,154.667542 39.4858804,154.667542 C41.3008306,154.667542 42.9433555,153.931993 44.1333887,152.742957 C45.3224252,151.554917 46.0569767,149.910399 46.0569767,148.095449 C46.0569767,146.281495 45.3224252,144.63897 44.1333887,143.449934 L44.1333887,143.449934 Z" id="Fill-25" fill="#00CACA"></path>
                    <path d="M561.121395,182.770664 C562.118073,183.195249 563.086844,183.680631 564.017741,184.218837 C564.966578,184.76701 565.878538,185.371993 566.745648,186.024817 C567.614751,186.680631 568.44598,187.390266 569.232359,188.149734 C569.262259,188.178638 569.299136,188.194585 569.340997,188.199568 C569.38186,188.204551 569.424718,188.196578 569.459601,188.176645 C571.765914,186.84608 574.075216,185.519502 576.377542,184.18196 C576.650631,184.033455 576.945648,183.943754 577.243654,183.909867 C577.549635,183.874983 577.858605,183.898904 578.152625,183.976645 C578.455615,184.058372 578.745648,184.198904 578.998804,184.393256 C579.243987,184.579635 579.457276,184.818837 579.619734,185.0999 C581.290166,187.806877 582.876877,190.739103 584.475548,193.506877 C584.639003,193.78794 584.736678,194.092924 584.775548,194.400897 C584.816412,194.720831 584.794485,195.041761 584.712757,195.342757 C584.633023,195.645748 584.491495,195.933787 584.297143,196.188937 C584.109767,196.435116 583.873555,196.646412 583.590498,196.80887 C581.385847,198.172326 578.992824,199.46402 576.737342,200.766678 C576.701462,200.787608 576.674551,200.819502 576.658605,200.856379 C576.641661,200.895249 576.638671,200.938106 576.648638,200.977973 L576.806113,201.616844 L576.797143,201.618837 C576.865914,201.930797 576.928704,202.245748 576.988505,202.565681 C577.089169,203.11485 577.171894,203.65505 577.236678,204.183289 C577.299468,204.708538 577.348306,205.250731 577.382193,205.807874 C577.417076,206.368007 577.43402,206.916179 577.43402,207.449402 C577.43402,207.982625 577.417076,208.529801 577.382193,209.08794 C577.348306,209.64608 577.299468,210.188272 577.236678,210.714518 C577.171894,211.242757 577.089169,211.78196 576.987508,212.329136 C576.887841,212.875316 576.773223,213.405548 576.645648,213.919834 C576.635681,213.963688 576.640664,214.007542 576.659601,214.044419 C576.678538,214.087276 576.708439,214.119169 576.744319,214.13711 C579.262924,215.482625 581.819402,217.063355 584.3101,218.503555 L584.221395,218.614186 L584.297143,218.709867 C584.491495,218.963023 584.633023,219.253056 584.712757,219.55505 C584.794485,219.857043 584.816412,220.176977 584.775548,220.497907 C584.736678,220.804884 584.639003,221.109867 584.474551,221.389934 L579.256944,230.426811 L579.160266,230.369003 C579.108439,230.416844 579.054618,230.462691 578.998804,230.504551 C578.745648,230.697907 578.455615,230.839435 578.152625,230.921163 C577.851628,231.000897 577.531694,231.023821 577.213754,230.982957 C576.912757,230.945083 576.617741,230.850399 576.342658,230.69691 C574.059269,229.48495 571.711096,228.021827 569.456611,226.720166 C569.423721,226.701229 569.382857,226.695249 569.341993,226.700233 C569.299136,226.705216 569.259269,226.724153 569.230365,226.75206 C568.443987,227.510532 567.612757,228.220166 566.743654,228.874983 C565.876545,229.526811 564.966578,230.131794 564.017741,230.67897 C563.080864,231.221163 562.106113,231.707542 561.101462,232.135116 C560.103787,232.558704 559.077209,232.923488 558.030698,233.224485 C557.987841,233.235449 557.952957,233.260365 557.93103,233.291262 C557.90412,233.327143 557.889169,233.368007 557.892159,233.407874 L557.892159,241.322492 C557.892159,241.645415 557.826379,241.957375 557.706777,242.243422 C557.582193,242.540432 557.402791,242.806545 557.179535,243.026811 C556.957276,243.24907 556.691163,243.428472 556.39814,243.55206 C556.112093,243.670664 555.800133,243.736445 555.477209,243.736445 L545.765581,243.736445 C545.442658,243.736445 545.129701,243.670664 544.843654,243.55206 C544.549635,243.428472 544.284518,243.24907 544.059269,243.026811 C543.839003,242.806545 543.658605,242.540432 543.535017,242.243422 C543.415415,241.957375 543.349635,241.645415 543.349635,241.322492 L543.349635,233.407874 C543.349635,233.360033 543.335681,233.318173 543.312757,233.288272 C543.286844,233.256379 543.24897,233.231462 543.203123,233.221495 L543.173223,233.210532 C542.120731,232.906545 541.100133,232.543754 540.122392,232.127143 C539.123721,231.702558 538.155947,231.217176 537.224053,230.67897 C536.274219,230.131794 535.363256,229.526811 534.497143,228.873987 C533.62804,228.218173 532.796811,227.507542 532.009435,226.74907 C531.976545,226.718173 531.936678,226.698239 531.896811,226.696246 C531.85495,226.692259 531.811096,226.702226 531.774219,226.72814 L524.920066,230.682957 C524.639003,230.844419 524.336013,230.945083 524.030033,230.982957 C523.711096,231.023821 523.391163,231.000897 523.089169,230.921163 C522.786179,230.839435 522.497143,230.6999 522.24299,230.504551 C522.003787,230.322159 521.794485,230.091927 521.63402,229.817841 C519.833023,226.922492 518.131694,223.751063 516.415415,220.777973 L516.506113,220.723156 C516.489169,220.647409 516.475216,220.571661 516.466246,220.494917 C516.425382,220.17598 516.448306,219.857043 516.529037,219.55505 C516.609767,219.253056 516.750299,218.963023 516.945648,218.709867 C517.132027,218.462691 517.369236,218.250399 517.650299,218.088937 L524.505449,214.130133 C524.540332,214.110199 524.567243,214.078306 524.582193,214.041429 C524.599136,214.003555 524.603123,213.959701 524.594153,213.918837 L524.415748,213.192259 L524.426711,213.191262 C524.36392,212.909203 524.306113,212.622159 524.253289,212.332126 C524.152625,211.782957 524.068904,211.243754 524.006113,210.714518 C523.941329,210.188272 523.891495,209.64608 523.858605,209.08794 C523.825714,208.529801 523.807774,207.982625 523.807774,207.449402 C523.807774,206.916179 523.825714,206.369003 523.858605,205.809867 C523.891495,205.252724 523.941329,204.708538 524.006113,204.179302 C524.068904,203.65505 524.152625,203.116844 524.253289,202.563688 C524.353953,202.020498 524.468571,201.490266 524.59515,200.977973 C524.60412,200.93711 524.599136,200.891262 524.582193,200.850399 C524.563256,200.813522 524.533355,200.779635 524.493488,200.761694 L517.648306,196.80887 C517.365249,196.645415 517.12804,196.432126 516.944651,196.18794 C516.749302,195.930797 516.608771,195.641761 516.529037,195.342757 C516.448306,195.042757 516.425382,194.721827 516.466246,194.403887 C516.50412,194.103887 516.599801,193.806877 516.754286,193.529801 C518.386844,190.507874 520.257608,187.46103 521.983854,184.470997 L522.081528,184.529801 C522.133355,184.48196 522.187176,184.435116 522.24299,184.393256 C522.497143,184.198904 522.786179,184.058372 523.089169,183.976645 C523.391163,183.89691 523.711096,183.87299 524.029037,183.91485 C524.338007,183.953721 524.640997,184.052392 524.91907,184.210864 L525.426379,184.501894 L525.425382,184.506877 L531.782193,188.176645 C531.821063,188.198571 531.864917,188.205548 531.904784,188.200565 C531.945648,188.195581 531.984518,188.175648 532.012425,188.147741 L532.030365,188.129801 C532.807774,187.380299 533.638007,186.674651 534.51309,186.015847 C535.381196,185.362027 536.287176,184.760033 537.224053,184.218837 C538.161927,183.676645 539.135681,183.189269 540.139336,182.763688 C541.13701,182.339103 542.163588,181.974319 543.211096,181.674319 C543.25196,181.661362 543.286844,181.637442 543.311761,181.606545 C543.336678,181.571661 543.352625,181.529801 543.349635,181.49093 L543.349635,173.575316 C543.349635,173.253389 543.415415,172.940432 543.535017,172.655382 C543.658605,172.358372 543.839003,172.091262 544.063256,171.870997 C544.284518,171.648738 544.549635,171.468339 544.843654,171.346744 C545.129701,171.226146 545.442658,171.162359 545.765581,171.162359 L555.477209,171.162359 C555.800133,171.162359 556.112093,171.226146 556.39814,171.346744 C556.691163,171.468339 556.957276,171.648738 557.182525,171.870997 C557.61907,172.308538 557.892159,172.911528 557.892159,173.575316 L557.892159,181.49093 C557.892159,181.535781 557.90711,181.577641 557.93103,181.611528 C557.955947,181.641429 557.992824,181.666346 558.036678,181.676312 L558.068571,181.688272 C559.12206,181.992259 560.142658,182.35505 561.121395,182.770664 M557.706777,183.069668 C558.676545,183.350731 559.628372,183.691595 560.561262,184.088272 C561.505116,184.489934 562.421063,184.948405 563.300133,185.456711 C564.19515,185.973987 565.057276,186.54608 565.881528,187.168007 C566.711761,187.792924 567.499136,188.464684 568.240664,189.180299 C568.502791,189.433455 568.830698,189.580963 569.166578,189.621827 C569.511429,189.663688 569.867243,189.59392 570.177209,189.414518 C572.449635,188.101894 574.840664,186.802226 577.067243,185.434784 C577.174884,185.37897 577.289502,185.344086 577.403123,185.332126 C577.530698,185.318173 577.659269,185.32814 577.782857,185.362027 C577.908439,185.394917 578.02804,185.452724 578.129701,185.531462 C578.228372,185.606213 578.31608,185.70289 578.38186,185.816512 C580.038339,188.324153 581.701794,191.564352 583.236678,194.223488 C583.303455,194.33711 583.343322,194.459701 583.359269,194.580299 C583.374219,194.70887 583.364252,194.843422 583.329369,194.97299 C583.296478,195.098571 583.238671,195.217176 583.159934,195.320831 C583.084186,195.418505 582.987508,195.506213 582.873887,195.57299 C580.827708,196.924485 578.194485,198.276977 576.025714,199.528804 C575.707774,199.711196 575.474551,199.985282 575.34299,200.295249 C575.297143,200.403887 575.262259,200.517508 575.240332,200.633123 L575.098804,200.680963 L575.257276,201.319834 C575.38186,201.822159 575.490498,202.324485 575.582193,202.823821 C575.671894,203.310199 575.748638,203.819502 575.813422,204.351728 C575.876213,204.87 575.924053,205.383289 575.95495,205.890598 C575.983854,206.386944 575.999801,206.908206 575.999801,207.449402 C575.999801,207.990598 575.983854,208.507874 575.95495,209.004219 C575.924053,209.512525 575.876213,210.027807 575.813422,210.54608 C575.748638,211.076312 575.671894,211.585615 575.582193,212.071993 C575.490498,212.572326 575.38186,213.075648 575.257276,213.577973 C575.165581,213.950731 575.210432,214.324485 575.358937,214.647409 C575.508439,214.969336 575.761595,215.238439 576.092492,215.407874 L582.156279,218.908206 L582.155282,218.911196 L582.873887,219.325814 C582.987508,219.391595 583.084186,219.478306 583.159934,219.577973 C583.237674,219.679635 583.296478,219.799236 583.329369,219.924817 C583.364252,220.056379 583.374219,220.189934 583.359269,220.316512 C583.343322,220.439103 583.303455,220.560698 583.236678,220.674319 L578.747641,228.455382 L578.745648,228.453389 L578.38186,229.082292 C578.31608,229.194917 578.229369,229.292591 578.129701,229.367342 C578.02804,229.445083 577.908439,229.50289 577.782857,229.536777 C577.653289,229.571661 577.520731,229.581628 577.392159,229.564684 C577.271561,229.550731 577.150963,229.510864 577.037342,229.444086 C574.865581,228.079635 572.413754,226.776977 570.173223,225.483289 C569.853289,225.300897 569.502458,225.236113 569.170565,225.277973 C568.825714,225.318837 568.498804,225.470332 568.243654,225.715515 L568.240664,225.718505 C567.49814,226.43412 566.709767,227.10588 565.880532,227.731794 C565.055282,228.352724 564.194153,228.924817 563.302126,229.4401 C562.41608,229.953389 561.494153,230.413854 560.542326,230.817508 C559.606445,231.215183 558.636678,231.559037 557.638007,231.84608 C557.285183,231.946744 556.993156,232.156047 556.787841,232.429136 C556.579535,232.705216 556.459934,233.048073 556.459934,233.407874 L556.45794,241.322492 C556.45794,241.45505 556.432027,241.581628 556.384186,241.693256 C556.335349,241.810864 556.260598,241.921495 556.167907,242.012193 C556.078206,242.104884 555.968571,242.179635 555.84897,242.229468 C555.736346,242.277309 555.609767,242.301229 555.477209,242.301229 L545.765581,242.301229 C545.632027,242.301229 545.505449,242.277309 545.392824,242.229468 C545.273223,242.178638 545.162591,242.104884 545.071894,242.014186 C544.981196,241.921495 544.905449,241.810864 544.858605,241.693256 C544.810764,241.581628 544.783854,241.45505 544.783854,241.322492 L544.783854,233.407874 C544.783854,233.03113 544.652292,232.682292 544.432027,232.403223 C544.208771,232.119169 543.893821,231.91186 543.53402,231.827143 C542.566246,231.548073 541.614419,231.207209 540.681528,230.810532 C539.736678,230.407874 538.820731,229.950399 537.940664,229.442093 C537.047641,228.924817 536.184518,228.352724 535.360266,227.730797 C534.53103,227.10588 533.741661,226.43412 533.00113,225.718505 C532.727043,225.453389 532.380199,225.30588 532.026379,225.273987 C531.664585,225.2401 531.295814,225.327807 530.98485,225.533123 L524.208439,229.445083 C524.096811,229.510864 523.974219,229.550731 523.849635,229.564684 C523.723056,229.581628 523.589502,229.571661 523.459934,229.536777 C523.333355,229.50289 523.214751,229.445083 523.111096,229.367342 C523.013422,229.292591 522.926711,229.194917 522.859934,229.082292 C521.250299,226.273654 519.615748,223.479967 518.00412,220.673322 C517.939336,220.559701 517.899468,220.438106 517.883522,220.315515 C517.867575,220.188937 517.877542,220.054385 517.912425,219.924817 C517.946312,219.798239 518.003123,219.678638 518.080864,219.576977 C518.155615,219.475316 518.250299,219.390598 518.361927,219.325814 L525.217076,215.369003 C525.535017,215.185615 525.766246,214.914518 525.899801,214.602558 C525.935681,214.518837 525.964585,214.43113 525.985515,214.342425 L526.164917,214.306545 L525.984518,213.577973 C525.859934,213.075648 525.751296,212.573322 525.659601,212.073987 C525.570897,211.586611 525.493156,211.076312 525.428372,210.54608 C525.365581,210.027807 525.317741,209.512525 525.287841,209.004219 C525.25794,208.507874 525.241993,207.990598 525.241993,207.449402 C525.241993,206.908206 525.25794,206.389934 525.287841,205.893588 C525.317741,205.385282 525.365581,204.871993 525.427375,204.352724 C525.493156,203.816512 525.570897,203.306213 525.659601,202.821827 C525.751296,202.323488 525.859934,201.821163 525.984518,201.319834 C526.077209,200.944086 526.031362,200.569336 525.88186,200.248405 C525.731362,199.928472 525.477209,199.658372 525.152292,199.489934 L518.364917,195.57299 C518.252292,195.508206 518.158605,195.422492 518.080864,195.321827 C518.00412,195.222159 517.947309,195.102558 517.912425,194.97299 C517.877542,194.843422 517.867575,194.709867 517.883522,194.583289 C517.899468,194.460698 517.939336,194.33711 518.00412,194.224485 C519.661595,191.760698 521.32206,188.467674 522.859934,185.816512 C522.926711,185.70289 523.013422,185.606213 523.111096,185.531462 C523.214751,185.452724 523.333355,185.394917 523.459934,185.362027 C523.589502,185.326146 523.723056,185.315183 523.849635,185.332126 C523.969236,185.34608 524.091827,185.38794 524.208439,185.454718 L531.066578,189.413522 C531.388505,189.60289 531.750299,189.664684 532.09515,189.617841 C532.439003,189.571993 532.767907,189.413522 533.02206,189.160365 C533.766578,188.443754 534.55196,187.774983 535.368239,187.159037 C536.184518,186.544086 537.043654,185.974983 537.942658,185.456711 C538.827708,184.945415 539.748638,184.483953 540.700465,184.079302 C541.634352,183.683621 542.605116,183.337774 543.603787,183.050731 C543.955615,182.951063 544.247641,182.740764 544.453953,182.468671 C544.662259,182.193588 544.780864,181.849734 544.780864,181.49093 L544.783854,173.575316 C544.783854,173.442757 544.810764,173.317176 544.858605,173.204551 C544.905449,173.086944 544.981196,172.977309 545.07289,172.885615 C545.162591,172.791927 545.273223,172.718173 545.392824,172.668339 C545.505449,172.621495 545.632027,172.595581 545.765581,172.595581 L555.477209,172.595581 C555.609767,172.595581 555.736346,172.621495 555.84897,172.668339 C555.968571,172.718173 556.078206,172.791927 556.1699,172.882625 C556.347309,173.06402 556.45794,173.308206 556.45794,173.575316 L556.45794,181.49093 C556.45794,181.869668 556.588505,182.218505 556.806777,182.495581 C557.033023,182.778638 557.347973,182.985947 557.706777,183.069668 M555.995482,194.462691 C557.708771,195.172326 559.255615,196.217841 560.555282,197.515515 C561.85196,198.814186 562.897475,200.360033 563.606113,202.074319 C564.291827,203.725814 564.670565,205.542757 564.670565,207.449402 C564.670565,209.356047 564.291827,211.171993 563.606113,212.823488 C562.896478,214.537774 561.850963,216.084618 560.555282,217.382292 C559.255615,218.679967 557.708771,219.724485 555.995482,220.435116 C554.34299,221.119834 552.527043,221.496578 550.620399,221.496578 C548.715748,221.496578 546.900797,221.119834 545.249302,220.435116 C543.53402,219.724485 541.985183,218.679967 540.687508,217.382292 C539.388837,216.084618 538.344319,214.537774 537.635681,212.823488 C536.949967,211.171993 536.572226,209.356047 536.572226,207.449402 C536.572226,205.542757 536.949967,203.725814 537.635681,202.074319 C538.344319,200.360033 539.388837,198.814186 540.687508,197.515515 C541.985183,196.217841 543.53402,195.172326 545.245316,194.462691 C546.897807,193.77897 548.713754,193.401229 550.620399,193.401229 C552.52804,193.401229 554.34299,193.77897 555.995482,194.462691 M561.567907,196.501894 C560.144651,195.077641 558.438339,193.927475 556.538671,193.141096 C554.711761,192.384618 552.712425,191.96701 550.620399,191.96701 C548.527375,191.96701 546.529037,192.384618 544.703123,193.141096 C542.803455,193.927475 541.09814,195.077641 539.67289,196.501894 C538.248638,197.92515 537.098472,199.631462 536.312093,201.530133 C535.556611,203.357043 535.139003,205.356379 535.139003,207.449402 C535.139003,209.540432 535.556611,211.540764 536.312093,213.365681 C537.099468,215.266346 538.248638,216.972658 539.67289,218.395914 C541.096146,219.821163 542.802458,220.969336 544.700133,221.755714 C546.526047,222.514186 548.526379,222.931794 550.620399,222.931794 C552.712425,222.931794 554.712757,222.514186 556.538671,221.757708 C558.438339,220.971329 560.144651,219.821163 561.567907,218.395914 C562.992159,216.972658 564.142326,215.266346 564.928704,213.367674 C565.685183,211.540764 566.102791,209.541429 566.102791,207.449402 C566.102791,205.356379 565.685183,203.357043 564.928704,201.530133 C564.142326,199.631462 562.992159,197.92515 561.567907,196.501894" id="Fill-26" fill="#FF4100"></path>
                    <path d="M570.320233,282.783987 C571.230199,283.04711 572.093322,283.416877 572.894651,283.879336 C573.71691,284.355748 574.476379,284.928837 575.156113,285.583654 C575.287674,285.712226 575.485017,285.730166 575.636512,285.641462 L578.689336,283.879336 L578.706279,283.868372 C578.882691,283.773688 579.08103,283.756744 579.263422,283.804585 C579.451794,283.855415 579.620233,283.976013 579.723887,284.156412 L579.735847,284.177342 L581.884684,287.898937 C581.987342,288.078339 582.009269,288.285648 581.958439,288.473023 C581.907608,288.661395 581.78701,288.828837 581.605615,288.933488 L581.586678,288.945449 L578.558771,290.694618 C578.398306,290.786312 578.324551,290.969701 578.367409,291.139136 L578.365415,291.139136 C578.479037,291.589635 578.563754,292.054086 578.621561,292.528505 C578.678372,292.98897 578.707276,293.463389 578.707276,293.942791 C578.707276,294.424186 578.678372,294.895615 578.621561,295.358073 C578.563754,295.833488 578.479037,296.29794 578.365415,296.747442 C578.319568,296.934817 578.413256,297.124186 578.578704,297.205914 L581.607608,298.95309 L581.605615,298.954086 C581.78701,299.057741 581.907608,299.226179 581.958439,299.414551 C582.009269,299.601927 581.987342,299.809236 581.884684,299.988638 L579.723887,303.731163 C579.620233,303.910565 579.451794,304.031163 579.263422,304.080997 C579.07505,304.132824 578.869734,304.110897 578.689336,304.008239 L578.667409,303.996279 L575.635515,302.245116 C575.476047,302.155415 575.281694,302.183322 575.156113,302.30392 C574.476379,302.957741 573.71691,303.531827 572.895648,304.006246 C572.088339,304.472691 571.219236,304.845449 570.302292,305.107575 C570.12588,305.159402 570.009269,305.320864 570.009269,305.497276 L570.009269,309.018538 C570.009269,309.225847 569.924551,309.415216 569.788007,309.551761 C569.649468,309.689302 569.462093,309.77402 569.253787,309.77402 L564.931196,309.77402 C564.724884,309.77402 564.534518,309.689302 564.397973,309.551761 C564.261429,309.415216 564.175714,309.225847 564.175714,309.018538 L564.175714,305.497276 C564.175714,305.305914 564.044153,305.146445 563.865748,305.103588 C562.954784,304.840465 562.090664,304.470698 561.289336,304.006246 C560.468073,303.531827 559.709601,302.957741 559.030864,302.30392 C558.892326,302.170365 558.682027,302.156412 558.529535,302.258073 L555.495648,304.009236 C555.317243,304.111894 555.11093,304.132824 554.922558,304.080997 C554.734186,304.031163 554.565748,303.910565 554.46309,303.731163 L554.449136,303.710233 L552.300299,299.987641 L552.301296,299.987641 C552.197641,299.808239 552.177708,299.601927 552.227542,299.414551 C552.277375,299.226179 552.39897,299.057741 552.577375,298.954086 L555.628206,297.192957 C555.787674,297.100266 555.859435,296.917874 555.818571,296.747442 C555.70794,296.29794 555.622226,295.833488 555.564419,295.358073 C555.507608,294.895615 555.477708,294.424186 555.477708,293.942791 C555.477708,293.463389 555.507608,292.98897 555.564419,292.526512 C555.622226,292.054086 555.70794,291.589635 555.818571,291.139136 C555.864419,290.951761 555.772724,290.764385 555.605282,290.681661 L552.577375,288.933488 C552.39897,288.828837 552.277375,288.661395 552.227542,288.473023 C552.177708,288.285648 552.197641,288.079336 552.301296,287.899934 L552.313256,287.87701 L554.462093,284.156412 C554.565748,283.976013 554.734186,283.855415 554.922558,283.804585 C555.11093,283.754751 555.316246,283.774684 555.495648,283.878339 L555.495648,283.879336 L558.548472,285.641462 C558.712924,285.736146 558.913256,285.704252 559.039834,285.574684 C559.715581,284.923854 560.471063,284.352757 561.290332,283.879336 C562.096645,283.413887 562.965748,283.042126 563.881694,282.779003 C564.0601,282.727176 564.175714,282.566711 564.175714,282.389302 L564.175714,278.86804 C564.175714,278.660731 564.261429,278.472359 564.397973,278.334817 C564.534518,278.197276 564.724884,278.112558 564.931196,278.112558 L569.253787,278.112558 C569.462093,278.112558 569.649468,278.197276 569.788007,278.334817 C569.924551,278.472359 570.009269,278.660731 570.009269,278.86804 L570.009269,282.389302 C570.009269,282.580664 570.141827,282.742126 570.320233,282.783987 L570.320233,282.783987 Z M571.739502,289.296279 C570.549468,288.108239 568.90794,287.372691 567.09299,287.372691 C565.27804,287.372691 563.635515,288.108239 562.446478,289.296279 C561.257442,290.486312 560.521894,292.128837 560.521894,293.942791 C560.521894,295.757741 561.257442,297.401262 562.446478,298.590299 C563.635515,299.779336 565.277043,300.514884 567.09299,300.514884 C568.90794,300.514884 570.549468,299.779336 571.739502,298.590299 C572.928538,297.401262 573.66309,295.757741 573.66309,293.942791 C573.66309,292.128837 572.928538,290.486312 571.739502,289.296279 L571.739502,289.296279 Z" id="Fill-27" fill="#39347B"></path>
                    <path d="M160.968339,1.78215947 C160.968339,1.15923588 161.472658,0.655913621 162.095581,0.655913621 C162.717508,0.655913621 163.222824,1.15923588 163.222824,1.78215947 L163.222824,4.43232558 L165.87299,4.43232558 C166.494917,4.43232558 167.000233,4.93664452 167.000233,5.55956811 C167.000233,6.18149502 166.494917,6.68581395 165.87299,6.68581395 L163.222824,6.68581395 L163.222824,9.33697674 C163.222824,9.95890365 162.717508,10.4632226 162.095581,10.4632226 C161.472658,10.4632226 160.968339,9.95890365 160.968339,9.33697674 L160.968339,6.68581395 L158.318173,6.68581395 C157.695249,6.68581395 157.19093,6.18149502 157.19093,5.55956811 C157.19093,4.93664452 157.695249,4.43232558 158.318173,4.43232558 L160.968339,4.43232558 L160.968339,1.78215947 Z" id="Fill-28" fill="#27D4E2"></path>
                    <path d="M309.54,34.01701 C309.54,33.3950831 310.044319,32.8907641 310.666246,32.8907641 C311.289169,32.8907641 311.794485,33.3950831 311.794485,34.01701 L311.794485,36.6681728 L314.443654,36.6681728 C315.066578,36.6681728 315.571894,37.1724917 315.571894,37.7944186 C315.571894,38.4173422 315.066578,38.9216611 314.443654,38.9216611 L311.794485,38.9216611 L311.794485,41.5718272 C311.794485,42.1947508 311.289169,42.6990698 310.666246,42.6990698 C310.044319,42.6990698 309.54,42.1947508 309.54,41.5718272 L309.54,38.9216611 L306.888837,38.9216611 C306.26691,38.9216611 305.762591,38.4173422 305.762591,37.7944186 C305.762591,37.1724917 306.26691,36.6681728 306.888837,36.6681728 L309.54,36.6681728 L309.54,34.01701 Z" id="Fill-29" fill="#5C80D3"></path>
                    <path d="M459.592525,173.374684 C459.592525,172.752757 460.096844,172.248439 460.719767,172.248439 C461.341694,172.248439 461.846013,172.752757 461.846013,173.374684 L461.846013,176.025847 L464.497176,176.025847 C465.119103,176.025847 465.623422,176.530166 465.623422,177.152093 C465.623422,177.776013 465.119103,178.280332 464.497176,178.280332 L461.846013,178.280332 L461.846013,180.929502 C461.846013,181.553422 461.341694,182.057741 460.719767,182.057741 C460.096844,182.057741 459.592525,181.553422 459.592525,180.929502 L459.592525,178.280332 L456.942359,178.280332 C456.319435,178.280332 455.815116,177.776013 455.815116,177.152093 C455.815116,176.530166 456.319435,176.025847 456.942359,176.025847 L459.592525,176.025847 L459.592525,173.374684 Z" id="Fill-30" fill="#CD9BE3"></path>
                    <path d="M282.272492,502.101728 C282.272492,501.479801 282.776811,500.974485 283.399734,500.974485 C284.021661,500.974485 284.526977,501.479801 284.526977,502.101728 L284.526977,504.751894 L287.176146,504.751894 C287.79907,504.751894 288.304385,505.257209 288.304385,505.879136 C288.304385,506.501063 287.79907,507.005382 287.176146,507.005382 L284.526977,507.005382 L284.526977,509.656545 C284.526977,510.278472 284.021661,510.782791 283.399734,510.782791 C282.776811,510.782791 282.272492,510.278472 282.272492,509.656545 L282.272492,507.005382 L279.622326,507.005382 C278.999402,507.005382 278.495083,506.501063 278.495083,505.879136 C278.495083,505.257209 278.999402,504.751894 279.622326,504.751894 L282.272492,504.751894 L282.272492,502.101728 Z" id="Fill-31" fill="#6DD400"></path>
                    <path d="M589.786545,398.491993 C589.786545,397.870066 590.29186,397.364751 590.913787,397.364751 C591.536711,397.364751 592.04103,397.870066 592.04103,398.491993 L592.04103,401.141163 L594.691196,401.141163 C595.31412,401.141163 595.818439,401.645482 595.818439,402.269402 C595.818439,402.890332 595.31412,403.395648 594.691196,403.395648 L592.04103,403.395648 L592.04103,406.046811 C592.04103,406.667741 591.536711,407.173056 590.913787,407.173056 C590.29186,407.173056 589.786545,406.667741 589.786545,406.046811 L589.786545,403.395648 L587.136379,403.395648 C586.514452,403.395648 586.009136,402.890332 586.009136,402.269402 C586.009136,401.645482 586.514452,401.141163 587.136379,401.141163 L589.786545,401.141163 L589.786545,398.491993 Z" id="Fill-32" fill="#E3B19B"></path>
                    <path d="M52.2642857,386.240831 C52.2642857,385.617907 52.7686047,385.112591 53.3915282,385.112591 C54.0134551,385.112591 54.5177741,385.617907 54.5177741,386.240831 L54.5177741,388.89 L57.1679402,388.89 C57.7908638,388.89 58.2951827,389.395316 58.2951827,390.017243 C58.2951827,390.640166 57.7908638,391.145482 57.1679402,391.145482 L54.5177741,391.145482 L54.5177741,393.794651 C54.5177741,394.417575 54.0134551,394.92289 53.3915282,394.92289 C52.7686047,394.92289 52.2642857,394.417575 52.2642857,393.794651 L52.2642857,391.145482 L49.6141196,391.145482 C48.991196,391.145482 48.4868771,390.640166 48.4868771,390.017243 C48.4868771,389.395316 48.991196,388.89 49.6141196,388.89 L52.2642857,388.89 L52.2642857,386.240831 Z" id="Fill-33" fill="#F7B500"></path>
                    <path d="M21.6359801,237.694485 C21.6359801,237.071561 22.140299,236.568239 22.7632226,236.568239 C23.3851495,236.568239 23.8904651,237.071561 23.8904651,237.694485 L23.8904651,240.343654 L26.5406312,240.343654 C27.1625581,240.343654 27.6678738,240.84897 27.6678738,241.471894 C27.6678738,242.093821 27.1625581,242.59814 26.5406312,242.59814 L23.8904651,242.59814 L23.8904651,245.249302 C23.8904651,245.871229 23.3851495,246.375548 22.7632226,246.375548 C22.140299,246.375548 21.6359801,245.871229 21.6359801,245.249302 L21.6359801,242.59814 L18.985814,242.59814 C18.3628904,242.59814 17.8585714,242.093821 17.8585714,241.471894 C17.8585714,240.84897 18.3628904,240.343654 18.985814,240.343654 L21.6359801,240.343654 L21.6359801,237.694485 Z" id="Fill-34" fill="#EC648D"></path>
                    <path d="M52.0146179,76.1742857 C52.0146179,75.5513621 52.5189369,75.0460465 53.1418605,75.0460465 C53.7637874,75.0460465 54.269103,75.5513621 54.269103,76.1742857 L54.269103,78.8234551 L56.9192691,78.8234551 C57.541196,78.8234551 58.0465116,79.3287708 58.0465116,79.9516944 C58.0465116,80.5736213 57.541196,81.0779402 56.9192691,81.0779402 L54.269103,81.0779402 L54.269103,83.729103 C54.269103,84.3510299 53.7637874,84.8553488 53.1418605,84.8553488 C52.5189369,84.8553488 52.0146179,84.3510299 52.0146179,83.729103 L52.0146179,81.0779402 L49.3644518,81.0779402 C48.7415282,81.0779402 48.2372093,80.5736213 48.2372093,79.9516944 C48.2372093,79.3287708 48.7415282,78.8234551 49.3644518,78.8234551 L52.0146179,78.8234551 L52.0146179,76.1742857 Z" id="Fill-35" fill="#E3B19B"></path>
                    <polygon id="Fill-37" fill="#F1D3C4" points="285.75897 110.051163 284.056645 110.051163 284.056645 224.651163 354.208804 224.651163"></polygon>
                    <polygon id="Fill-38" fill="#FDF1E8" points="284.672691 108.233023 281.329834 108.233023 281.329834 224.650963 354.208904 224.650963"></polygon>
                    <polygon id="Fill-39" fill="#FFFFFF" points="351.648638 220.366545 291.149302 220.366545 291.149302 119.075183"></polygon>
                    <polygon id="Fill-40" fill="#F1D3C4" points="258.944053 110.051163 184.394551 110.051163 142.779269 179.722924 142.779269 204.766445 258.944053 204.766445"></polygon>
                    <polygon id="Fill-41" fill="#FDF1E8" points="256.215847 108.233023 185.480631 108.233023 140.051063 184.291495 140.051063 202.947309 256.215847 202.947309"></polygon>
                    <polygon id="Fill-42" fill="#FFFFFF" points="246.39598 118.052292 246.39598 193.12804 149.870731 193.12804 149.870731 167.850299 179.615581 118.052292"></polygon>
                    <g id="Group-2" transform="translate(256.102724, 81.985017)">
                        <path d="M5.53156146,2.84217094e-14 L47.4219269,2.84217094e-14 C50.4647841,2.84217094e-14 52.954485,2.48870432 52.954485,5.53255814 L52.954485,28.3465116 L52.954485,30.033887 L52.954485,44.5564784 C52.954485,44.8116279 52.8089701,45.0299003 52.5727575,45.1275748 C52.3365449,45.2242525 52.0803987,45.1734219 51.9,44.9930233 L42.4724252,35.5664452 L5.53156146,35.5664452 C2.48870432,35.5664452 5.96855898e-13,33.0777409 5.96855898e-13,30.033887 L5.96855898e-13,5.53255814 C5.96855898e-13,2.48870432 2.48870432,2.84217094e-14 5.53156146,2.84217094e-14" id="Fill-43" fill="#FFB843"></path>
                        <path d="M14.134186,20.8289701 C15.8125914,20.8289701 17.1810299,19.4605316 17.1810299,17.7831229 C17.1810299,16.1047176 15.8125914,14.7362791 14.134186,14.7362791 C12.4557807,14.7362791 11.0873422,16.1047176 11.0873422,17.7831229 C11.0873422,19.4605316 12.4557807,20.8289701 14.134186,20.8289701" id="Fill-44" fill="#FFFFFF"></path>
                        <path d="M26.4768439,20.8289701 C28.1552492,20.8289701 29.5236877,19.4605316 29.5236877,17.7831229 C29.5236877,16.1047176 28.1552492,14.7362791 26.4768439,14.7362791 C24.7984385,14.7362791 23.43,16.1047176 23.43,17.7831229 C23.43,19.4605316 24.7984385,20.8289701 26.4768439,20.8289701" id="Fill-45" fill="#FFFFFF"></path>
                        <path d="M38.82,20.8289701 C40.4984053,20.8289701 41.8668439,19.4605316 41.8668439,17.7831229 C41.8668439,16.1047176 40.4984053,14.7362791 38.82,14.7362791 C37.1415947,14.7362791 35.7731561,16.1047176 35.7731561,17.7831229 C35.7731561,19.4605316 37.1415947,20.8289701 38.82,20.8289701" id="Fill-46" fill="#FFFFFF"></path>
                    </g>
                    <path d="M332.684053,210.074651 C332.684053,210.074651 334.268771,213.909867 333.422591,219.064684 C332.944186,221.97897 315.562126,269.359037 314.41794,272.428804 C313.273754,275.499568 308.092027,280.76103 302.767774,281.668007 C300.60598,282.035781 285.318937,284.941096 278.600332,285.983621 C272.650166,286.906545 270.731561,281.104884 266.455814,277.699236 C272.972093,276.080631 298.293688,266.057043 299.460797,265.701229 C300.853156,265.276645 301.981395,264.625814 302.684053,262.106213 C303.385714,259.585615 309.001993,234.85505 309.001993,234.85505 C309.001993,234.85505 312.877076,220.361362 316.659468,217.848738 C320.09402,215.569336 325.391362,210.307874 332.684053,210.074651" id="Fill-47" fill="#503621"></path>
                    <path d="M315.37794,307.472193 L312.96299,328.691462 C312.96299,328.691462 317.859668,395.352259 319.099535,406.931661 C319.814153,413.590465 321.210498,431.570532 322.269967,445.650598 L345.181595,445.650598 L346.101528,314.838638 L315.37794,307.472193 Z" id="Fill-48" fill="#1A1A18"></path>
                    <path d="M329.749037,325.875648 L328.556013,333.375648 L332.592558,445.650399 L358.806179,445.650399 C360.811495,426.859037 363.843389,399.137442 365.41814,388.115183 C367.89887,370.747076 368.749037,346.607542 368.738178,340.894585 C368.726113,335.180631 362.109169,326.70289 359.834751,326.082957 C357.559336,325.462027 329.749037,325.875648 329.749037,325.875648" id="Fill-49" fill="#302D28"></path>
                    <path d="M342.673654,203.723721 L329.64608,213.027708 C329.64608,213.027708 320.353056,249.413422 320.317176,251.065914 C320.280299,252.720399 316.723156,272.785515 316.723156,272.785515 C316.723156,272.785515 329.749734,277.956279 331.610532,272.992824 C333.472326,268.030365 354.355714,232.464917 355.390266,226.881528 C356.423821,221.29814 353.942093,208.065249 352.702226,206.617076 C351.460365,205.170897 342.673654,203.723721 342.673654,203.723721" id="Fill-50" fill="#FCE4D6"></path>
                    <polygon id="Fill-51" fill="#FFB988" points="337.911229 209.466379 337.228505 205.453754 338.287973 203.058738 339.999269 195.82186 364.396944 180.959402 354.308571 206.573023"></polygon>
                    <path d="M340.314419,209.466379 C340.314419,209.466379 342.235017,211.04412 342.696478,211.535482 C343.15794,212.025847 347.944983,222.2099 348.610764,223.140797 L359.878206,210.526844 C359.878206,210.526844 359.186512,202.928173 359.00711,202.592292 C358.827708,202.255415 356.449635,200.313887 356.449635,200.313887 C355.596478,203.755415 346.510764,205.714884 340.314419,209.466379" id="Fill-52" fill="#FFFFFF"></path>
                    <path d="M333.006179,209.470266 C327.440731,211.01711 317.092226,216.963289 314.441063,222.925415 C308.363322,236.58887 314.661329,251.782226 314.661329,279.046346 C314.661329,282.560631 307.154352,333.581561 307.050698,334.304153 C306.947043,335.028738 307.361661,335.85598 308.395216,335.85598 C309.428771,335.85598 325.983588,306.19485 326.914485,303.713123 C327.844385,301.232392 325.980598,259.790532 325.980598,259.790532 L327.729767,218.096512 L333.006179,209.470266 Z" id="Fill-53" fill="#503621"></path>
                    <path d="M364.010831,214.779169 C364.010831,214.779169 375.367973,218.616379 375.988904,219.65093 C376.609834,220.685482 365.158007,293.054252 364.951694,295.742292 C364.745382,298.431329 373.637741,338.028339 373.948704,339.060897 C373.948704,339.060897 373.998538,339.474518 373.689568,340.095449 C373.379601,340.716379 372.656013,341.078173 372.294219,341.336312 C371.931429,341.594452 338.231761,334.543953 334.922791,332.475847 C331.614817,330.408738 324.481595,298.254917 324.481595,293.912392 C324.481595,289.569867 326.025449,274.769203 326.025449,274.769203 L347.331429,235.435316 C347.331429,235.435316 353.800864,215.876512 364.010831,214.779169" id="Fill-54" fill="#674834"></path>
                    <path d="M334.431628,207.632093 C330.032292,210.63907 323.500066,217.54206 318.570498,222.283256 C320.117342,222.69289 322.474485,223.407508 323.653555,224.586578 C324.070166,225.002193 318.71103,226.573953 318.157874,226.698538 C317.688439,226.803189 326.363522,277.011827 326.363522,277.011827 C326.363522,277.011827 328.88113,221.309502 330.216678,217.994551 C331.551229,214.680598 335.143256,209.43907 335.143256,209.43907 L334.431628,207.632093 Z" id="Fill-55" fill="#8E6B56"></path>
                    <path d="M359.959834,209.450233 C348.373455,224.577807 330.277774,258.515681 325.45186,276.012359 L359.441561,236.47515 L349.700033,231.126977 L361.829601,231.689103 C362.554186,231.723987 364.69206,215.566844 364.796711,215.049568 C364.899369,214.532292 359.959834,209.450233 359.959834,209.450233" id="Fill-56" fill="#8E6B56"></path>
                    <path d="M338.803754,201.335681 C338.803754,201.335681 336.502425,203.986844 335.936312,204.347641 C335.370199,204.709435 330.625017,217.065249 330.216379,217.994153 C329.807741,218.92505 338.060233,210.240997 338.524684,210.034684 C338.989136,209.828372 339.744618,210.160266 339.744618,210.160266 L339.602093,209.562259 L338.803754,201.335681 Z" id="Fill-57" fill="#FFFFFF"></path>
                    <path d="M329.207841,165.847575 C332.50485,166.185449 335.001528,169.30804 334.785249,172.824319 C334.56897,176.339601 331.720465,178.91701 328.424452,178.579136 C325.128439,178.243256 322.630764,175.118671 322.84804,171.602392 C323.063322,168.08711 325.911827,165.510698 329.207841,165.847575" id="Fill-58" fill="#F2A371"></path>
                    <path d="M325.967641,158.466877 C323.546711,167.970199 327.231429,174.710731 329.336412,178.689468 C331.442392,182.667209 333.02113,158.245615 333.02113,158.245615 L325.967641,158.466877 Z" id="Fill-59" fill="#1A1A18"></path>
                    <path d="M369.852658,168.499336 C373.054983,168.837209 374.674585,171.960797 373.471595,175.47608 C372.267608,178.991362 368.696512,181.568771 365.494186,181.230897 C362.292857,180.89402 360.672259,177.770432 361.876246,174.254153 C363.079236,170.73887 366.651329,168.161462 369.852658,168.499336" id="Fill-60" fill="#F2A371"></path>
                    <path d="M350.269435,135.605581 L350.269435,135.606578 C360.987708,139.357076 371.369103,147.668372 369.371761,159.502924 L365.965116,179.702591 C363.816279,192.439136 352.23887,201.040465 339.985714,199.98897 C328.724252,199.024186 326.524585,187.128837 327.263123,175.135814 L328.48206,155.319867 C329.220598,143.326844 339.024917,134.456412 350.269435,135.605581" id="Fill-61" fill="#FFB988"></path>
                    <path d="M358.501794,138.373754 L358.544651,138.398671 C365.422724,142.555814 369.914751,150.695681 369.373555,159.501329 L365.965914,179.320266 C363.252957,195.098671 347.455615,203.918272 337.47588,198.637874 C343.386179,199.979402 347.93103,199.074419 351.425382,197.360133 C360.314751,193.004651 362.425714,181.329568 362.961927,172.620598 C364.063256,154.704319 346.903455,166.899668 328.083189,163.594684 C327.421395,163.478073 328.976213,157.584718 328.349302,157.489037 L328.482857,155.319269 C328.602458,153.362791 328.966246,151.49103 329.536346,149.730897 C337.944319,145.138206 349.559601,139.253821 354.892824,138.649834 C356.484518,138.471429 357.580864,138.348837 358.321395,138.268106 L358.446977,138.342857 C358.334352,138.366777 358.320399,138.379734 358.501794,138.373754" id="Fill-62" fill="#E7A679"></path>
                    <path d="M362.498272,160.147375 C362.498272,160.147375 362.184319,166.29289 361.98,170.265648 C361.777674,174.237409 361.756744,175.149369 363.229834,176.784917 C363.229834,176.784917 364.314219,182.43608 365.991628,183.550365 C365.991628,183.550365 366.19196,173.48691 368.060731,169.334751 L368.25907,152.735083 C367.003256,155.041395 365.147442,156.941063 362.424518,157.869967 C362.509236,158.586578 362.537143,159.34206 362.498272,160.147375" id="Fill-63" fill="#362A25"></path>
                    <path d="M327.936678,164.188505 C327.936678,164.188505 323.484518,160.17289 322.268571,155.830365 C321.244983,152.177542 318.086512,134.260266 322.735017,136.12804 C333.165249,140.31907 366.448306,121.824718 368.423721,144.995482 C368.423721,144.995482 369.940664,143.469568 371.158605,143.990831 C372.379535,144.5101 370.542658,147.24 370.542658,147.24 C370.542658,147.24 374.615083,150.604784 375.138339,153.130365 C375.503123,154.877542 372.974551,162.394485 370.582525,167.826379 C369.517076,170.244319 365.66691,181.855615 365.756611,182.864252 L364.435017,160.071229 L357.677542,149.66392 L337.540664,147.471229 L328.365249,157.219734 L327.936678,164.188505 Z" id="Fill-64" fill="#362A25"></path>
                    <path d="M367.963455,147.233322 C367.970432,147.213389 370.500997,140.101096 365.176744,131.838638 C365.074086,131.680166 364.868771,131.639302 364.716279,131.745947 C364.565781,131.853588 364.525914,132.069867 364.627575,132.228339 C369.762458,140.194784 367.344518,146.984153 367.338538,147.00309 C367.278738,147.183488 367.367442,147.382824 367.540864,147.446611 C367.713289,147.510399 367.902658,147.413721 367.963455,147.233322 L367.963455,147.233322 Z M323.815615,134.182824 C323.68505,134.048272 323.68505,133.826013 323.813621,133.690465 C323.943189,133.55392 324.152492,133.55392 324.28206,133.689468 C324.296013,133.702425 329.101993,138.90608 338.159801,137.451927 C338.340199,137.423023 338.509635,137.553588 338.537542,137.742957 C338.564452,137.932326 338.440864,138.110731 338.259468,138.139635 C328.866777,139.647608 323.829568,134.197774 323.815615,134.182824 L323.815615,134.182824 Z M366.700664,165.552259 C366.700664,165.552259 361.027575,163.746279 361.251827,158.101096 C359.328239,161.098106 354.732558,161.314385 357.343854,156.628007 C357.343854,156.628007 344.396013,165.63897 327.529236,161.541628 C327.529236,161.541628 324.500332,144.92701 327.806312,143.41804 C331.113289,141.91206 354.283056,144.570199 356.684053,145.738306 C359.084053,146.906412 371.65814,154.520033 371.65814,154.520033 L366.700664,165.552259 Z" id="Fill-65" fill="#362A25"></path>
                    <path d="M372.806611,217.684585 C372.806611,217.684585 376.559103,219.457674 379.399635,223.84206 C381.005282,226.320797 400.003953,273.075947 401.221894,276.117807 C402.439834,279.160664 402.143821,286.53907 398.812924,290.788904 C397.458439,292.51515 388.100631,304.947708 383.82887,310.23608 C380.045482,314.921462 374.725216,311.917475 369.268405,312.272292 C373.002957,306.69289 385.00196,282.245382 385.626877,281.196877 C386.372392,279.947043 386.770066,278.706179 385.594983,276.367973 C384.418904,274.031761 371.944485,251.951362 371.944485,251.951362 C371.944485,251.951362 364.792326,225.448704 372.806611,217.684585" id="Fill-66" fill="#674834"></path>
                    <path d="M271.990864,276.551761 C270.319435,276.344452 269.002824,275.709568 268.118771,275.118538 C266.842027,274.262392 265.00515,272.363721 261.648339,271.298272 C258.291528,270.232824 258.594518,271.767708 260.109468,273.154086 C261.623422,274.538472 263.254983,276.743123 263.254983,276.743123 C263.254983,276.743123 256.804485,278.636811 254.073588,279.176013 C251.344684,279.714219 250.334053,281.554086 251.729402,282.341462 C252.651329,282.860731 255.124086,282.21887 255.43505,282.312558 C255.530731,282.341462 253.377907,283.046113 253.331063,283.266379 C253.193522,283.914219 253.191528,284.58 254.24701,284.991628 C255.303488,285.402259 256.907143,284.709568 256.907143,284.709568 C256.907143,284.709568 255.704153,285.318538 255.269601,286.04711 C255.021429,286.463721 255.234718,287.032824 255.537708,287.26206 C256.371927,287.89495 259.612126,287.237143 259.612126,287.237143 C259.612126,287.237143 258.445017,287.802259 258.087209,288.460066 C257.780233,289.024186 258.239701,289.68897 258.600498,289.759734 C259.0799,289.854419 261.056312,289.521528 263.304817,289.054086 C265.851329,288.525847 269.914784,287.453422 272.268937,286.205581 C273.983223,285.295615 275.047674,284.58299 276.150997,284.511229 C276.645349,284.478339 277.863289,277.278339 271.990864,276.551761" id="Fill-67" fill="#FFB67F"></path>
                    <path d="M271.219037,276.421395 C273.970864,279.340664 274.25093,281.05196 274.378505,282.500133 C274.423355,283.015415 273.876179,283.691163 272.938306,284.407774 C270.920033,285.949635 267.092791,287.68186 263.466877,288.433355 C261.896113,288.758272 260.547608,289.222724 259.456246,289.73103 C260.347276,289.632359 261.761561,289.374219 263.304419,289.054286 C265.85093,288.526047 269.915382,287.453621 272.269535,286.204784 C272.975183,285.83103 273.570199,285.490166 274.104419,285.21309 C274.86588,284.816412 275.501761,284.553289 276.150598,284.511429 C276.64495,284.478538 277.86289,277.277542 271.990465,276.55196 C271.724352,276.51907 271.467209,276.474219 271.219037,276.421395" id="Fill-68" fill="#F2A371"></path>
                    <path d="M395.441163,325.142791 C395.206944,321.626512 392.16608,318.965382 388.649801,319.199601 C385.131528,319.433821 382.471395,322.475681 382.706611,325.99196 C383.627542,339.50093 385.102625,354.514884 387.275382,371.180332 L271.411595,371.180332 C273.703953,354.611561 275.53186,339.680332 276.97505,326.243123 C277.347807,322.738804 274.809269,319.597276 271.306944,319.225515 C267.803621,318.851761 264.662093,321.390299 264.289336,324.893621 C261.437841,351.433156 257.086346,383.793289 250.600963,423.105249 C249.399967,430.381993 248.126213,437.89495 246.776711,445.6501 L259.718571,445.6501 C260.937508,438.615548 262.091661,431.784319 263.186013,425.153422 C265.60794,410.478339 267.732857,396.769037 269.595648,383.966711 L389.031528,383.966711 C390.888339,396.80691 393.135847,410.558073 395.835847,425.278007 C397.044817,431.873023 398.346478,438.660399 399.741827,445.6501 L412.740498,445.6501 C411.167741,437.846113 409.713588,430.292292 408.373056,422.980664 C405.35113,406.509568 402.903289,391.262392 400.945814,377.156412 C400.92588,376.840465 400.882027,376.533488 400.819236,376.232492 C398.19598,357.180997 396.470731,340.220532 395.441163,325.142791" id="Fill-69" fill="#6C4730"></path>
                    <path d="M3.58425249,318.802525 L400.2899,318.802525 C402.975947,318.802525 405.172625,321.70186 405.172625,325.244053 C405.172625,328.786246 402.973953,331.686578 400.2899,331.686578 L0.382923588,331.686578 C1.14936877,327.282259 2.22378738,322.978605 3.58425249,318.802525" id="Fill-70" fill="#BD927F"></path>
                    <path d="M7.48634551,308.810432 L410.683355,308.810432 C414.10794,308.810432 416.910598,312.508106 416.910598,317.026047 L416.910598,317.027043 C416.910598,321.54598 414.10794,325.243654 410.683355,325.243654 L1.73950166,325.243654 C3.15179402,319.546645 5.0823588,314.05196 7.48634551,308.810432" id="Fill-71" fill="#FFFFFF"></path>
                    <path d="M337.985382,325.243854 L344.715947,325.243854 L344.715947,308.809635 L337.985382,308.809635 L337.985382,325.243854 Z M351.785382,325.243854 L355.150166,325.243854 L355.150166,308.809635 L351.785382,308.809635 L351.785382,325.243854 Z M366.677741,325.243854 L381.172425,325.243854 L381.172425,308.809635 L366.677741,308.809635 L366.677741,325.243854 Z M392.1,325.243854 L399.346844,325.243854 L399.346844,308.809635 L392.1,308.809635 L392.1,325.243854 Z M318.295017,325.243854 L331.252824,325.243854 L331.252824,308.809635 L318.295017,308.809635 L318.295017,325.243854 Z" id="Fill-72" fill="#F9EAE0"></path>
                    <path d="M6.31156146,311.478339 L118.768704,311.478339 C120.804917,311.478339 122.470365,313.676013 122.470365,316.363056 C122.470365,319.049103 120.804917,321.247774 118.768704,321.247774 L2.82418605,321.247774 C3.81089701,317.910897 4.97401993,314.650764 6.31156146,311.478339" id="Fill-73" fill="#F9EAE0"></path>
                    <path d="M77.0765781,261.784585 C77.0765781,261.784585 70.3938538,272.397209 69.7390365,277.900864 C69.0832226,283.404518 89.1313953,302.010498 93.9792359,308.299535 C98.8280731,314.589568 92.6696013,316.685581 90.8347176,316.291894 C89.0008306,315.899203 55.8503322,289.82412 53.7533223,286.023787 C48.6303987,276.740731 69.0154485,230.429103 73.05299,228.391894 C79.4237542,225.177608 77.0765781,261.784585 77.0765781,261.784585" id="Fill-74" fill="#ED4705"></path>
                    <path d="M121.782558,361.501096 L124.67093,369.622027 C124.67093,369.622027 117.11711,416.018372 112.687874,445.650598 L88.7048173,445.650598 C83.0307309,419.134983 72.6503322,373.471196 80.4443522,354.65093 C91.2712625,328.510066 121.782558,361.501096 121.782558,361.501096" id="Fill-75" fill="#0E133A"></path>
                    <path d="M145.175781,353.47794 L143.968804,361.237076 C143.968804,361.237076 145.625282,417.226445 146.310997,445.649701 L123.091395,445.649701 C114.997375,421.010831 97.3661462,372.69887 103.37412,351.837409 C111.241894,324.519468 145.175781,353.47794 145.175781,353.47794" id="Fill-76" fill="#1A1C4F"></path>
                    <path d="M76.743289,274.64113 C76.743289,274.64113 85.6715282,300.668372 86.4389701,304.764718 C87.206412,308.858073 76.616711,352.727841 75.0927907,362.085648 C75.0927907,362.085648 74.9233555,362.962724 75.8662126,363.402259 C75.8662126,363.402259 91.0605648,361.35608 107.815714,362.233156 C124.57186,363.110233 133.543953,369.50093 146.010399,363.79794 C146.010399,363.79794 147.058904,363.504917 146.590465,361.165714 C146.12103,358.825515 137.069203,317.120532 137.344286,305.422525 C137.455914,300.686312 137.313389,292.881329 137.113056,285.036478 C136.819037,273.504917 144.001096,258.378339 144.066877,256.289302 C144.177508,252.78 135.751595,236.390631 112.581827,224.658738 C89.4110631,212.927841 71.9801661,245.468372 76.743289,274.64113" id="Fill-78" fill="#FF4800"></path>
                    <path d="M86.343588,304.317608 C87.4020598,305.077076 88.7087043,305.888372 89.7312957,306.133555 C91.799402,306.630897 101.397409,306.547176 100.155548,307.622591 C98.9146844,308.699003 88.9867774,311.4299 88.3249834,312.587043 C87.6631894,313.746179 87.1668439,324.171429 87.7379402,345.829236 C87.9492359,353.825581 90.271495,358.894684 93.1180066,362.109967 C83.1143522,362.425914 75.865515,363.401661 75.865515,363.401661 C74.9236545,362.963123 75.0930897,362.086047 75.0930897,362.086047 C76.6160133,352.727243 87.206711,308.858472 86.4382724,304.76412 C86.4153488,304.635548 86.3834551,304.48804 86.343588,304.317608 M76.743588,274.641528 C76.743588,274.641528 77.3465781,276.398671 78.2515615,279.069767 C78.6263123,278.567442 79.0648505,278.14485 79.5532226,277.962458 C81.2077076,277.341528 85.6349502,278.500664 93.12299,278.046179 C100.610033,277.591694 109.504385,272.873422 114.055216,265.17907 C118.606047,257.484718 131.098405,276.680731 131.429302,277.673422 C131.761196,278.666113 133.829302,285.698671 133.663854,291.986711 C133.498405,298.275748 137.635615,323.839535 138.628306,333.271096 C139.621993,342.702658 144.367176,361.335548 139.843256,365.753821 C141.834618,365.398007 143.870831,364.77608 146.010698,363.798339 C146.010698,363.798339 147.059203,363.505316 146.589767,361.166113 C146.121329,358.824917 137.069502,317.12093 137.344585,305.421927 C137.455216,300.685714 137.313688,292.880731 137.113355,285.03588 C136.819336,273.505316 144.001395,258.377741 144.067176,256.289701 C144.176811,252.780399 135.750897,236.39103 112.58113,224.65814 C89.4113621,212.927243 71.9804651,245.468771 76.743588,274.641528" id="Fill-79" fill="#DC4509"></path>
                    <path d="M129.029402,163.596777 L132.060299,172.618704 C132.060299,172.618704 130.135714,202.86887 126.904485,207.447608 C123.672259,212.025349 118.795515,208.168206 113.004817,206.956246 C107.21412,205.744286 107.484219,196.587807 107.080565,193.894784 C106.675914,191.201761 110.715449,166.558904 129.029402,163.596777" id="Fill-80" fill="#FFB988"></path>
                    <path d="M109.83897,233.66402 C121.289801,255.901894 144.579169,293.08495 149.582492,298.066346 C151.905748,300.379635 153.837309,301.915515 156.193455,303.251063 C158.911395,304.791927 162.196445,306.066678 167.302425,307.960365 C176.833654,311.497575 196.775183,317.767674 199.217043,317.537442 C201.658904,317.307209 202.365548,312.083621 201.538306,310.616512 C200.710066,309.151395 172.18515,297.53412 165.351927,293.34907 C158.518704,289.16402 146.419037,252.909867 141.512392,242.206545 C129.01206,214.936445 98.3881395,211.427143 109.83897,233.66402" id="Fill-81" fill="#ED4705"></path>
                    <path d="M131.16588,177.913754 C145.184153,178.331362 143.853588,152.717741 135.084817,146.302126 C129.564219,142.261595 113.052259,148.685183 105.106744,148.819734 C97.1622259,148.954286 74.3552492,150.476213 75.9708638,186.833023 C76.560897,200.120731 74.4539203,209.883189 71.2924585,217.986179 C63.7077409,237.427375 57.6658804,272.535349 79.6496013,276.428372 C99.9539203,280.025382 111.443621,272.727708 116.367209,252.54598 C116.367209,252.54598 117.174518,237.464252 127.409402,231.808106 C137.643289,226.152957 131.659236,221.01309 125.792791,213.765249 C119.926346,206.515415 115.289801,202.857608 116.636312,192.893821 C117.982824,182.929037 127.073522,189.370565 130.778173,177.959601 L131.16588,177.913754 Z" id="Fill-82" fill="#362A25"></path>
                    <path d="M131.16588,177.913754 C139.065548,178.147973 142.090465,170.116744 141.65691,161.91309 C136.616711,172.916412 119.807741,169.656279 119.807741,169.656279 C120.304086,175.860598 106.56887,179.833355 101.43897,191.250299 C96.3090698,202.668239 109.83897,233.66392 96.6399668,257.108771 C83.5655482,280.334352 67.2170432,266.477542 66.9120598,266.216412 C69.212392,271.498804 73.2369767,275.292159 79.6496013,276.428372 C99.9539203,280.025382 111.443621,272.727708 116.367209,252.54598 C116.367209,252.54598 117.174518,237.464252 127.409402,231.808106 C137.643289,226.152957 131.659236,221.01309 125.792791,213.765249 C119.926346,206.515415 115.289801,202.857608 116.636312,192.893821 C117.982824,182.929037 127.073522,189.370565 130.778173,177.959601 L131.16588,177.913754 Z" id="Fill-83" fill="#1A1A18"></path>
                    <path d="M115.072525,192.876578 C115.046611,192.662292 115.199103,192.46794 115.412392,192.44103 C115.626678,192.415116 115.822027,192.566611 115.84794,192.781894 C115.85093,192.805814 116.825681,201.008472 122.357243,206.619767 C125.547608,209.857973 129.05093,214.009136 131.180831,217.778571 C132.869203,220.767608 133.699435,223.540365 132.863223,225.496844 C132.778505,225.695183 132.549269,225.787874 132.35093,225.703156 C132.153588,225.618439 132.060897,225.390199 132.144618,225.190864 C132.873189,223.489535 132.077841,220.949003 130.50309,218.160299 C128.413056,214.460631 124.955581,210.367276 121.801096,207.166944 C116.081163,201.362292 115.075515,192.899502 115.072525,192.876578" id="Fill-84" fill="#1A1A18"></path>
                    <path d="M140.476146,159.463056 C140.442259,159.250764 140.586777,159.051429 140.800066,159.017542 C141.012359,158.984651 141.211694,159.129169 141.245581,159.340465 C141.256545,159.406246 145.086777,182.27103 128.307708,179.643787 C128.095415,179.610897 127.9499,179.411561 127.982791,179.200266 C128.015681,178.986977 128.215017,178.840465 128.427309,178.874352 C144.136944,181.333156 140.486113,159.52485 140.476146,159.463056" id="Fill-85" fill="#1A1A18"></path>
                    <path d="M259.027276,356.31907 C261.269801,360.943654 267.677442,372.481196 265.188738,378.757276 C264.406346,380.729701 262.500698,381.920731 262.028272,381.50711 C261.645548,381.173223 261.940565,379.686179 261.940565,379.686179 C260.959834,381.849967 260.481429,381.706445 258.671462,380.988837 C258.143223,380.779535 259.171794,379.637342 259.324286,378.661595 C259.324286,378.661595 259.076113,380.502458 257.603023,380.822392 C257.222292,380.906113 255.075449,380.734684 255.429269,380.386844 C256.96515,378.876877 256.563488,377.533355 256.563488,377.533355 C256.608339,378.978538 254.968804,380.242326 254.416645,380.431694 C253.11299,380.877209 250.195714,377.02804 251.514319,376.47289 C252.091395,376.229701 254.202359,378.176213 253.67113,377.08485 C253.324286,376.373223 253.090066,375.50412 252.810997,374.553289 C251.842226,371.253289 251.860166,371.94 251.229269,369.915748 C250.940233,368.983854 251.973787,365.455615 251.764485,364.709103 C250.760831,361.121063 249.308671,354.312757 249.308671,354.312757 L259.027276,356.31907 Z" id="Fill-86" fill="#FFB988"></path>
                    <path d="M179.494485,344.155515 L174.904784,362.090731 C174.904784,362.090731 170.550299,403.937243 166.235681,445.650199 L199.673223,445.650199 C206.355947,416.497375 211.805781,392.617973 213.190166,386.994718 C217.264585,370.43691 217.260598,345.370465 179.494485,344.155515" id="Fill-87" fill="#14173F"></path>
                    <path d="M222.688405,153.245482 L226.254518,163.440498 C226.254518,163.440498 225.304684,191.692326 221.700698,196.933854 C218.097708,202.174385 211.316312,201.866412 204.727276,200.572724 C198.139236,199.279037 198.699369,190.989668 198.203023,187.938837 C197.706678,184.888007 201.945548,156.864419 222.688405,153.245482" id="Fill-88" fill="#FFBC90"></path>
                    <path d="M204.313654,187.709302 L211.302359,189.422591 C211.302359,189.422591 207.359502,211.516944 206.30103,212.445847 C205.242558,213.375748 183.724286,209.898339 182.776445,207.386711 C181.828605,204.877076 184.599369,200.179734 185.090731,196.735216 C185.58309,193.290698 186.761163,189.683721 186.761163,189.683721 L204.313654,187.709302 Z" id="Fill-89" fill="#FFBF97"></path>
                    <path d="M207.396578,209.011794 C207.396578,209.011794 208.599568,209.781229 208.690266,210.965282 C208.750066,211.748671 208.995249,213.885548 209.153721,215.24103 C209.234452,215.933721 209.292259,216.422093 209.292259,216.422093 C209.292259,216.422093 208.055382,218.311794 201.623821,217.3201 C195.191262,216.329402 183.154385,213.192857 182.226478,212.286877 C181.297575,211.380897 182.589269,205.870266 182.589269,205.870266 C182.589269,205.870266 199.001561,209.251993 207.396578,209.011794" id="Fill-90" fill="#FFFFFF"></path>
                    <path d="M165.388704,228.106844 C165.388704,228.106844 160.154153,233.526777 157.323588,241.891894 C154.49402,250.256013 149.719934,293.529767 149.263455,299.089236 C148.806977,304.647708 176.024252,340.092558 176.773754,340.798206 C176.773754,340.798206 177.049834,341.350365 178.22093,340.677608 C179.39103,340.00485 183.31196,336.456678 183.090698,334.711495 C182.868439,332.967309 162.955814,305.657342 162.420598,299.259668 C161.887375,292.86299 180.577076,254.982259 181.186047,247.56897 C181.79402,240.157674 172.318605,223.751362 165.388704,228.106844" id="Fill-91" fill="#282D5B"></path>
                    <path d="M239.871827,356.783422 L246.667176,362.197375 C246.667176,362.197375 245.387442,401.00402 243.789767,445.650199 L213.212691,445.650199 C211.684784,427.153854 210.289435,412.762824 209.322658,407.981761 C205.741595,390.296711 196.511362,360.758173 198.236611,351.871794 C199.960864,342.985415 239.871827,356.783422 239.871827,356.783422" id="Fill-92" fill="#14173F"></path>
                    <path d="M209.155415,215.376279 C209.155415,215.376279 228.80392,221.44804 230.524186,224.583588 C232.244452,227.719136 238.1099,257.167973 238.554419,293.15701 C238.998937,329.14505 247.307243,358.405515 247.698937,365.345382 C247.698937,365.345382 247.488638,366.849369 246.728173,367.174286 C246.728173,367.174286 241.015216,368.666312 223.737807,368.16897 C206.459402,367.671628 183.19495,365.038405 174.965382,367.034751 C174.965382,367.034751 173.217209,367.767309 172.800598,365.009502 C172.384983,362.251694 181.526512,316.673621 181.293289,297.732757 C181.05907,278.790897 161.763389,238.773289 161.26505,235.464319 C160.765714,232.155349 174.993289,216.08392 181.930166,211.489236 L209.155415,215.376279 Z" id="Fill-94" fill="#303767"></path>
                    <path d="M190.613223,366.425083 C183.899601,366.1799 178.240465,366.240698 174.965382,367.034053 C174.965382,367.034053 173.217209,367.767608 172.800598,365.009801 C172.384983,362.251993 181.526512,316.67392 181.293289,297.733056 C181.05907,278.791196 161.763389,238.773588 161.26505,235.464618 C160.765714,232.155648 174.993289,216.084219 181.930166,211.489535 L184.214551,211.815449 C180.832824,214.756645 173.512226,221.338704 171.309568,225.051329 C168.414219,229.933056 173.046777,247.38887 176.191296,256.821429 C179.335814,266.253987 186.120199,287.765282 186.947442,289.584219 C187.774684,291.40515 191.580997,292.06794 193.731827,293.225083 C195.882658,294.384219 189.761063,295.542359 188.601927,297.693189 C187.704917,299.360631 189.781993,341.59485 190.613223,366.425083" id="Fill-95" fill="#282E58"></path>
                    <path d="M230.780133,224.369302 C232.310033,226.096545 234.630299,229.683588 236.403389,236.688239 C239.295748,248.11515 244.846246,289.164319 248.743256,307.763322 C252.642259,326.362326 261.254551,355.448372 261.27371,356.976279 C261.292425,358.505183 260.092425,360.35402 258.876478,360.904186 C257.660532,361.454352 254.166179,363.100864 253.098738,363.344053 C252.031296,363.587243 250.653887,363.450698 250.032957,362.694219 C249.413023,361.937741 236.958538,331.29289 232.117674,310.566977 C228.494751,295.054684 219.986113,262.767309 216.894419,246.36299 C214.433621,233.303522 224.715349,217.523123 230.780133,224.369302" id="Fill-96" fill="#3B4277"></path>
                    <path d="M226.254618,163.440997 C226.254618,163.440997 230.350963,161.857276 232.345316,159.128372 C234.339668,156.399468 230.248306,138.570897 227.812425,135.405449 C225.377542,132.240997 217.525714,138.295814 214.024385,138.462259 C210.52505,138.627708 182.540332,120.397475 180.302791,149.261262 C180.302791,149.261262 179.700797,147.82505 178.10113,147.660598 C176.500465,147.496146 176.661927,150.565914 178.822724,151.399136 C178.822724,151.399136 174.51608,155.939003 174.847973,162.938671 C175.179867,169.939336 185.032027,191.947973 185.090831,196.735017 C185.090831,196.735017 198.820066,198.889834 203.438671,197.083854 C208.058272,195.277874 211.851628,189.817076 211.826711,187.747973 C211.800797,185.677874 211.796811,185.309103 211.787841,184.633355 C211.779867,183.956611 211.558605,182.64 210.671561,180.468239 C209.784518,178.298472 208.75495,175.494817 209.95794,174.138339 C211.159934,172.782857 215.094817,172.949302 215.902126,178.622392 C215.902126,178.622392 215.992824,179.082857 216.28485,179.07887 C216.57588,179.07588 216.633688,178.736013 216.626711,178.221728 C216.619734,177.706445 216.150299,172.455947 216.134352,171.627708 C216.134352,171.627708 220.516744,164.202458 220.16392,160.458937 C220.16392,160.458937 223.577542,163.274551 226.254618,163.440997" id="Fill-97" fill="#1A1A18"></path>
                    <path d="M231.65412,147.021628 C230.575714,141.962492 228.997973,136.945216 227.812924,135.405349 C225.377043,132.240897 217.525216,138.296711 214.024884,138.462159 C210.524551,138.627608 182.540831,120.397375 180.303289,149.262159 C180.303289,149.262159 179.700299,147.82495 178.101628,147.660498 C176.500963,147.496047 176.661429,150.566811 178.822226,151.400033 C178.822226,151.400033 174.802625,155.63691 174.830387,162.238904 C176.49598,165.22794 179.75412,168.262824 186.080033,169.571462 C200.476047,172.549535 214.127542,154.512658 215.038505,150.872791 C215.038505,150.872791 215.202957,149.962824 215.823887,150.541894 C216.444817,151.119967 230.025548,158.557176 231.65412,147.021628" id="Fill-98" fill="#362A25"></path>
                    <path d="M225.645847,162.663389 C225.462458,162.608571 225.269103,162.714219 225.215282,162.897608 C225.161462,163.081993 225.26711,163.275349 225.450498,163.328173 C225.459468,163.331163 228.366777,164.254086 232.585714,160.895282 C232.736213,160.776678 232.76113,160.557409 232.642525,160.405914 C232.522924,160.256412 232.304651,160.232492 232.154153,160.3501 C228.221262,163.481661 225.652824,162.664385 225.645847,162.663389" id="Fill-99" fill="#1A1A18"></path>
                    <path d="M180.484884,150.391296 C180.547674,150.572691 180.74701,150.666379 180.928405,150.603588 C181.108804,150.539801 181.204485,150.340465 181.140698,150.160066 C181.133721,150.14113 178.596179,143.349767 183.987209,135.381329 C184.09485,135.22186 184.05299,135.004585 183.894518,134.89794 C183.73505,134.791296 183.518771,134.832159 183.41113,134.989635 C177.819767,143.255083 180.477907,150.370365 180.484884,150.391296" id="Fill-100" fill="#362A25"></path>
                    <path d="M254.286179,372.018738 C253.711096,368.476545 254.286179,365.03103 255.24299,365.03103 C256.004452,365.03103 259.248638,363.092492 261.26691,360.85495 C261.012757,360.325714 260.763588,359.815415 260.523389,359.33103 C260.07588,360.041661 259.477874,360.631694 258.876877,360.904784 C257.659934,361.453953 254.165581,363.101462 253.09814,363.344651 C252.5699,363.464252 251.964917,363.491163 251.413754,363.397475 C251.534352,363.864917 251.65196,364.308439 251.764585,364.709103 C251.973887,365.455615 250.940332,368.983854 251.229369,369.915748 C251.860266,371.94 251.841329,371.253289 252.811096,374.553289 C253.090166,375.50412 253.324385,376.373223 253.670233,377.08485 C254.202458,378.176213 252.090498,376.229701 251.514419,376.47289 C251.327043,376.551628 251.225382,376.697143 251.192492,376.886512 C252.357608,378.129369 253.994153,379.43103 254.716744,379.054286 C255.721395,378.526047 254.860266,375.559934 254.286179,372.018738" id="Fill-101" fill="#F2A371"></path>
                    <path d="M525.994286,315.172126 C547.032159,303.990399 552.373355,328.319302 544.192625,348.46515 C537.538804,364.851528 508.531495,412.73691 496.758738,444.50103 L485.379668,444.50103 C484.897276,400.479767 501.49794,328.191728 525.994286,315.172126" id="Fill-102" fill="#6DD400"></path>
                    <path d="M481.449369,222.868904 C457.326777,201.150299 442.244053,231.549967 446.41515,260.878206 C450.584252,290.205449 483.714817,393.618738 477.750698,429.864917 C475.438405,443.915083 478.381595,443.05196 482.987243,433.945316 C505.962658,388.522724 514.655681,252.767243 481.449369,222.868904" id="Fill-103" fill="url(#linearGradient-3)"></path>
                    <path d="M477.246578,439.936844 C477.762857,441.284352 478.909037,440.615581 480.445914,438.37505 C505.58711,354.627209 466.422658,229.500299 466.29907,229.098638 C466.085781,228.409934 465.353223,228.023223 464.664518,228.236512 C463.975814,228.448804 463.589103,229.181362 463.801395,229.870066 C463.92598,230.272724 503.624651,357.10794 477.246578,439.936844" id="Fill-104" fill="#00A280"></path>
                    <path d="M428.762691,292.450963 C405.387608,282.276877 401.718837,308.67588 412.12515,329.483522 C422.174651,349.580532 469.544751,414.429369 476.895249,444.50113 L482.957043,444.50113 C486.157375,401.998804 459.713522,305.924053 428.762691,292.450963" id="Fill-105" fill="#6DD400"></path>
                    <path d="M481.076611,444.500731 C474.562326,377.719336 419.211827,301.120664 419.026445,300.863522 C418.697542,300.40206 418.056678,300.297409 417.595216,300.626312 C417.134751,300.957209 417.029103,301.59907 417.359003,302.058538 C417.542392,302.314684 472.534086,378.415017 479.035415,444.500731 L481.076611,444.500731 Z" id="Fill-106" fill="#649D34"></path>
                    <path d="M449.949867,426.261728 L518.30402,426.261728 C520.348206,426.261728 522.021628,427.936146 522.021628,429.979336 L522.021628,444.50093 L446.233256,444.50093 L446.233256,429.979336 C446.233256,427.936146 447.905681,426.261728 449.949867,426.261728" id="Fill-107" fill="#8B472D"></path>
                    <path d="M449.199468,426.261728 L503.758605,426.261728 C505.390166,426.261728 506.725714,427.936146 506.725714,429.979336 L506.725714,444.50093 L446.232359,444.50093 L446.232359,429.979336 C446.232359,427.936146 447.567907,426.261728 449.199468,426.261728" id="Fill-108" fill="#B56B41"></path>
                    <path d="M560.453381,451.495017 L22.2467327,451.495017 C19.8287155,451.495017 17.8504983,449.261462 17.8504983,446.531561 C17.8504983,443.800664 19.8287155,441.56711 22.2467327,441.56711 L560.453381,441.56711 C562.870515,441.56711 564.850498,443.800664 564.850498,446.531561 C564.850498,449.261462 562.870515,451.495017 560.453381,451.495017" id="Fill-109" fill="#BCC7D4"></path>
                </g>
            </g>
        </g>
    </g>
</svg>