<?xml version="1.0" encoding="UTF-8"?>
<svg width="79px" height="80px" viewBox="0 0 79 80" version="1.1" xmlns="http://www.w3.org/2000/svg" xmlns:xlink="http://www.w3.org/1999/xlink">
    <!-- Generator: Sketch 59 (86127) - https://sketch.com -->
    <title>Group 13</title>
    <desc>Created with Sketch.</desc>
    <g id="Page-1" stroke="none" stroke-width="1" fill="none" fill-rule="evenodd">
        <g id="Final-Version-Copy" transform="translate(-1336.000000, -2394.000000)">
            <g id="Group-13" transform="translate(1336.000000, 2394.000000)">
                <path d="M17.2137708,38.6952577 C16.8698164,38.6952577 16.6994479,38.6952577 16.3554688,38.5245113 L0.925780427,29.9323464 C0.41145751,29.5876289 0.0674783437,29.0721402 0.0674783437,28.3859546 L0.0674783437,11.2016247 C0.0674783437,10.5154144 0.411432823,9.99997526 0.925780427,9.65523299 C1.44012803,9.31049072 2.12477001,9.31051546 2.63909293,9.65523299 L18.0687813,18.2473979 C18.5831042,18.5921155 18.9270833,19.1076041 18.9270833,19.7937897 L18.9270833,36.9748206 C18.9270833,37.6610309 18.5831289,38.1764701 18.0687813,38.5212124 C17.8984128,38.6952577 17.5544583,38.6952577 17.2136885,38.6952577 L17.2137708,38.6952577 Z M3.49739583,27.3550515 L15.4971667,34.0560825 L15.4971667,20.8247423 L3.49739583,14.1237113 L3.49739583,27.3550515 Z" id="Fill-1" fill="#FFB843"></path>
                <path d="M17.2137708,38.695266 C16.8698164,38.695266 16.5290795,38.695266 16.3554688,38.5245113 C15.8411458,38.1797938 15.4971667,37.6643052 15.4971667,36.9749031 L15.4971667,19.7938722 C15.4971667,19.1076619 15.8411211,18.5922227 16.3554688,18.2474804 L31.7851563,9.65531546 C32.2994792,9.31059794 32.9841458,9.31059794 33.4984688,9.65531546 C34.0127917,10.000033 34.3567708,10.5155216 34.3567708,11.2017072 L34.3567708,28.3827381 C34.3567708,29.0689485 34.0128164,29.5843876 33.4984688,29.9291299 L18.0687813,38.5212948 C17.7280444,38.695266 17.5544583,38.695266 17.2136885,38.695266 L17.2137708,38.695266 Z M18.9270833,20.8247423 L18.9270833,34.0560825 L30.9268542,27.3550515 L30.9268542,14.1237113 L18.9270833,20.8247423 Z" id="Fill-2" fill="#FFB843"></path>
                <path d="M17.2137708,21.5109278 C16.8698164,21.5109278 16.6994479,21.5109278 16.3554688,21.3401814 L0.925780427,12.7480165 C0.41145751,12.4065237 0.0674783437,11.8910268 0.0674783437,11.2016247 C0.0674783437,10.5154144 0.411432823,9.99997526 0.925780427,9.65523299 L16.3554688,1.06306804 C16.8697917,0.718350515 17.5544583,0.718350515 18.0687813,1.06306804 L33.4984688,9.65523299 C34.0127917,9.99995052 34.3567708,10.5154392 34.3567708,11.2016247 C34.3567708,11.8878103 34.0128164,12.4032742 33.4984688,12.7480165 L18.0687813,21.3401814 C17.7280444,21.5109278 17.5544583,21.5109278 17.2136885,21.5109278 L17.2137708,21.5109278 Z M5.38434293,11.2016495 L17.2137708,17.9026804 L29.0431979,11.2016495 L17.2137708,4.50061856 L5.38434293,11.2016495 Z" id="Fill-3" fill="#FFB843"></path>
                <path d="M61.7862292,38.6952577 C61.4422747,38.6952577 61.2719063,38.6952577 60.9279271,38.5245113 L45.4982396,29.9323464 C44.9871343,29.5876289 44.6431469,29.0721402 44.6431469,28.3859546 L44.6431469,11.2016247 C44.6431469,10.5154144 44.9871014,9.99997526 45.501449,9.65523299 C46.0157966,9.31049072 46.7004385,9.31051546 47.2147615,9.65523299 L62.644449,18.2473979 C63.1587719,18.5921155 63.502751,19.1076041 63.502751,19.7937897 L63.502751,36.9748206 C63.502751,37.6610309 63.1587966,38.1764701 62.644449,38.5212124 C62.4740805,38.6952577 62.130126,38.6952577 61.7861469,38.6952577 L61.7862292,38.6952577 Z M48.0731458,27.3550515 L60.0729167,34.0560825 L60.0729167,20.8247423 L48.0731458,14.1237113 L48.0731458,27.3550515 Z" id="Fill-4" fill="#F17B3D"></path>
                <path d="M61.7862292,38.695266 C61.4422747,38.695266 61.1015378,38.695266 60.9279271,38.5245113 C60.4168218,38.1797938 60.0728344,37.6643052 60.0728344,36.9749031 L60.0728344,19.7938722 C60.0728344,19.1076619 60.4167889,18.5922227 60.9311365,18.2474804 L76.360824,9.65531546 C76.8751469,9.31059794 77.5598135,9.31059794 78.0741365,9.65531546 C78.5884594,10.000033 78.9324385,10.5155216 78.9324385,11.2017072 L78.9324385,28.3827381 C78.9324385,29.0689485 78.5884841,29.5843876 78.0741365,29.9291299 L62.644449,38.5212948 C62.3004945,38.695266 62.130126,38.695266 61.7861469,38.695266 L61.7862292,38.695266 Z M63.502751,20.8247423 L63.502751,34.0560825 L75.5025219,27.3550515 L75.5025219,14.1237113 L63.502751,20.8247423 Z" id="Fill-5" fill="#F17B3D"></path>
                <path d="M61.7862292,21.5109278 C61.4422747,21.5109278 61.2719063,21.5109278 60.9279271,21.3401814 L45.4982396,12.7480165 C44.9871343,12.4065237 44.6431469,11.8910268 44.6431469,11.2016247 C44.6431469,10.5154144 44.9871014,9.99997526 45.501449,9.65523299 L60.9311365,1.06306804 C61.4454594,0.718350515 62.130126,0.718350515 62.644449,1.06306804 L78.0741365,9.65523299 C78.5884594,9.99995052 78.9324385,10.5154392 78.9324385,11.2016247 C78.9324385,11.8878103 78.5884841,12.4032742 78.0741365,12.7480165 L62.644449,21.3401814 C62.3004945,21.5109278 62.130126,21.5109278 61.7861469,21.5109278 L61.7862292,21.5109278 Z M49.9568021,11.2016495 L61.7862292,17.9026804 L73.6156563,11.2016495 L61.7862292,4.50061856 L49.9568021,11.2016495 Z" id="Fill-6" fill="#F17B3D"></path>
                <path d="M39.5,79.9323703 C39.1560455,79.9323703 38.9856771,79.9323703 38.6416979,79.7616239 L23.2120104,71.1694598 C22.6976875,70.8247423 22.3569177,70.3092536 22.3569177,69.623068 L22.3569177,52.4387381 C22.3569177,51.7525278 22.7008722,51.2370887 23.2152198,50.8923464 C23.7295674,50.5476041 24.4142094,50.5476289 24.9285323,50.8923464 L40.3582198,59.4845113 C40.8725427,59.8292289 41.2165219,60.3447175 41.2165219,61.0309031 L41.2165219,78.211934 C41.2165219,78.8981443 40.8725674,79.4135835 40.3582198,79.7583258 C40.1846338,79.9323703 39.8438969,79.9323703 39.4999177,79.9323703 L39.5,79.9323703 Z M25.783625,68.5921649 L37.7833958,75.2931951 L37.7833958,62.0618557 L25.783625,55.3608247 L25.783625,68.5921649 Z" id="Fill-7" fill="#8D95A0"></path>
                <path d="M39.5,79.9323786 C39.1560455,79.9323786 38.8153086,79.9323786 38.6416979,79.7616239 C38.127375,79.4169064 37.7866052,78.9014177 37.7866052,78.2120157 L37.7866052,61.0309856 C37.7866052,60.3447753 38.1305597,59.8293361 38.6449073,59.4845938 L54.0745948,50.8924289 C54.5889177,50.5477113 55.2735844,50.5477113 55.7879073,50.8924289 C56.3022302,51.2371464 56.6462094,51.7526351 56.6462094,52.4388206 L56.6462094,69.6198515 C56.6462094,70.3060619 56.3022549,70.821501 55.7879073,71.1662433 L40.3582198,79.7584074 C40.0142653,79.9323786 39.8438969,79.9323786 39.4999177,79.9323786 L39.5,79.9323786 Z M41.2133125,62.0618557 L41.2133125,75.2931951 L53.2130833,68.5921649 L53.2130833,55.3608247 L41.2133125,62.0618557 Z" id="Fill-8" fill="#8D95A0"></path>
                <path d="M39.5,62.7480412 C39.1560455,62.7480412 38.9856771,62.7480412 38.6416979,62.5772948 L23.2120104,53.9851299 C22.6976875,53.6436371 22.3569177,53.1281402 22.3569177,52.4387381 C22.3569177,51.7525278 22.7008722,51.2370887 23.2152198,50.8923464 L38.6449073,42.3001814 C39.1592302,41.9554639 39.8438969,41.9554639 40.3582198,42.3001814 L55.7879073,50.8923464 C56.3022302,51.2370639 56.6462094,51.7525526 56.6462094,52.4387381 C56.6462094,53.1249237 56.3022549,53.6403876 55.7879073,53.9851299 L40.3582198,62.5772948 C40.0142653,62.7480412 39.8438969,62.7480412 39.4999177,62.7480412 L39.5,62.7480412 Z M27.6705729,52.4387629 L39.5,59.1397938 L51.3294271,52.4387629 L39.5,45.737732 L27.6705729,52.4387629 Z" id="Fill-9" fill="#8D95A0"></path>
                <polygon id="Fill-10" fill="#8D95A0" points="30.9268542 0.892371134 49.7864583 0.892371134 49.7864583 4.32989691 30.9268542 4.32989691"></polygon>
                <path d="M18.9271574,66.185567 L1.78408251,66.185567 C0.755436677,66.185567 0.0707700104,65.4993567 0.0707700104,64.4684536 L0.067554875,35.257732 L3.49747154,35.257732 L3.49747154,62.7480412 L18.9271574,62.7480412 L18.9271574,66.185567 Z" id="Fill-11" fill="#8D95A0"></path>
                <path d="M77.2159167,66.185567 L60.0729167,66.185567 L60.0729167,62.7480412 L75.5026042,62.7480412 L75.5026042,35.257732 L78.9325208,35.257732 L78.9325208,64.4684536 C78.9325208,65.4993814 78.2446119,66.185567 77.215999,66.185567 L77.2159167,66.185567 Z" id="Fill-12" fill="#8D95A0"></path>
            </g>
        </g>
    </g>
</svg>