<?xml version="1.0" encoding="UTF-8"?>
<svg width="92px" height="75px" viewBox="0 0 92 75" version="1.1" xmlns="http://www.w3.org/2000/svg" xmlns:xlink="http://www.w3.org/1999/xlink">
    <!-- Generator: Sketch 59 (86127) - https://sketch.com -->
    <title>Group 4</title>
    <desc>Created with Sketch.</desc>
    <g id="Page-1" stroke="none" stroke-width="1" fill="none" fill-rule="evenodd">
        <g id="Final-Version-Copy-2" transform="translate(-616.000000, -2397.000000)" fill="#FFFFFF">
            <g id="Group-4" transform="translate(616.000000, 2397.000000)">
                <path d="M46.6617472,47.8856707 C55.6728106,47.8856707 62.9665543,40.6114939 62.9665543,31.639939 C62.9665543,22.6722256 55.673086,15.4015244 46.6617472,15.4015244 C37.665004,15.4015244 30.3752993,22.6685671 30.3752993,31.639939 C30.3752993,40.611311 37.6651876,47.8856707 46.6617472,47.8856707 Z M39.2894262,21.8432927 C39.2894262,20.800061 39.9814855,20.3641463 40.9244967,20.903689 L57.9214457,30.6857012 C58.857306,31.221622 58.857306,32.0647866 57.9214457,32.6078963 L40.9244967,42.3725305 C39.9850563,42.8727256 39.2894262,42.4832835 39.2894262,41.3935976 L39.2894262,21.8432927 Z" id="Fill-1"></path>
                <path d="M0,0 L0,59.7905488 L91.7960089,59.7905488 L91.7960089,0 L0,0 Z M87.9020222,56.5106707 L3.89399037,56.5106707 L3.89399037,3.27987805 L87.8983595,3.27987805 L87.9020222,56.5106707 Z" id="Fill-2"></path>
                <path d="M86.2882483,67.6472561 L25.484408,67.6472561 C24.982394,64.8390549 22.522518,62.702561 19.5642998,62.702561 C16.6060816,62.702561 14.1462239,64.842622 13.6441916,67.6472561 L3.9771548,67.6472561 L3.9771548,69.7480793 L13.6441916,69.7480793 C14.1462056,72.5562805 16.6060816,74.6927744 19.5642998,74.6927744 C22.522518,74.6927744 24.9823756,72.5527134 25.484408,69.7480793 L86.2882483,69.7480793 L86.2882483,67.6472561 Z" id="Fill-3"></path>
            </g>
        </g>
    </g>
</svg>