<?xml version="1.0" encoding="UTF-8"?>
<svg width="80px" height="80px" viewBox="0 0 80 80" version="1.1" xmlns="http://www.w3.org/2000/svg" xmlns:xlink="http://www.w3.org/1999/xlink">
    <!-- Generator: Sketch 59 (86127) - https://sketch.com -->
    <title>Group 10</title>
    <desc>Created with Sketch.</desc>
    <g id="Page-1" stroke="none" stroke-width="1" fill="none" fill-rule="evenodd">
        <g id="Final-Version-Copy-2" transform="translate(-265.000000, -2394.000000)" fill="#FFFFFF">
            <g id="Group-10" transform="translate(265.000000, 2394.000000)">
                <path d="M52.3341667,32.7508333 C52.3341667,29.2515 46.1688333,27.6661667 40,27.6661667 C33.8346667,27.6661667 27.6658333,29.2481667 27.6658333,32.7508333 L27.6658333,47.3341667 C27.6658333,50.8335 33.8311667,52.4188333 40,52.4188333 C46.1653333,52.4188333 52.3341667,50.8368333 52.3341667,47.3341667 L52.3341667,32.7508333 Z M49.0008333,32.6662 C48.3335167,33.3335167 45.3355,34.4988667 40,34.4988667 C34.5833333,34.4988667 31.5816667,33.2488667 30.9991667,32.7475333 C31.6664833,32.0802167 34.6645,30.9148667 40,30.9148667 C45.4166667,30.9181167 48.4183333,32.1681167 49.0008333,32.6662 Z M30.9183333,36.3347833 C33.2523333,37.3341167 36.667,37.83545 40,37.83545 C43.333,37.83545 46.6666667,37.33415 49.0816667,36.41945 L49.0816667,39.9187833 C48.665,40.5014667 45.5823333,41.8361167 40,41.8361167 C34.3326667,41.8361167 31.25,40.4201167 30.9183333,40.00345 L30.9183333,36.3347833 Z M40,49.0822833 C34.3326667,49.0822833 31.25,47.6662833 30.9183333,47.2496167 L30.9183333,43.5842833 C33.3336667,44.5836167 36.667,45.08495 40,45.08495 C43.333,45.08495 46.6666667,44.58365 49.0816667,43.66895 L49.0816667,47.1682833 C48.5836167,47.7509667 45.4163333,49.0823667 40,49.0823667 L40,49.0822833 Z" id="Fill-1"></path>
                <path d="M38.3333333,13.4183333 L38.3333333,20.5863333 C38.3333333,21.5043333 39.0820333,22.253 40,22.253 C40.9179667,22.253 41.6666667,21.5043 41.6666667,20.5863333 L41.6666667,13.4183333 C44.4986667,12.6696333 46.6666667,10.085 46.6666667,7.00233333 C46.6666667,3.337 43.6653333,0.335666667 40,0.335666667 C36.3346667,0.335666667 33.3333333,3.337 33.3333333,7.00233333 C33.3333333,10.1664167 35.5013333,12.6664167 38.3333333,13.4183333 Z M40,3.66583333 C41.8326667,3.66583333 43.3333333,5.1665 43.3333333,6.99916667 C43.3333333,8.83183333 41.8326667,10.3325 40,10.3325 C38.1673333,10.3325 36.6666667,8.83183333 36.6666667,6.99916667 C36.6666667,5.1665 38.1673333,3.66583333 40,3.66583333 Z" id="Fill-2"></path>
                <path d="M16.6666667,23.3333333 C17.9166667,23.3333333 19.0006667,23.0013 20,22.4153333 L25.0846667,27.5 C25.4167,27.8320333 25.8333667,28.0013 26.25,28.0013 C26.6666333,28.0013 27.0833333,27.8352833 27.4153333,27.5 C28.08265,26.8326833 28.08265,25.8333333 27.4153333,25.166 L22.3306667,20.0813333 C22.91335,19.082 23.2486667,17.9133333 23.2486667,16.748 C23.2486667,13.0826667 20.2473333,10.0813333 16.582,10.0813333 C12.9166667,10.0813333 9.91533333,13.0826667 9.91533333,16.748 C9.91533333,20.4165833 13.0826667,23.33325 16.6666667,23.33325 L16.6666667,23.3333333 Z M16.6666667,13.3333333 C18.4993333,13.3333333 20,14.834 20,16.6666667 C20,18.4993333 18.4993333,20 16.6666667,20 C14.834,20 13.3333333,18.4993333 13.3333333,16.6666667 C13.3333333,14.834 14.834,13.3333333 16.6666667,13.3333333 Z" id="Fill-3"></path>
                <path d="M13.4183333,41.6666667 L20.5863333,41.6666667 C21.5043333,41.6666667 22.253,40.9179667 22.253,40 C22.253,39.0820333 21.5043,38.3333333 20.5863333,38.3333333 L13.4183333,38.3333333 C12.6696333,35.5013333 10.085,33.3333333 7.00233333,33.3333333 C3.33699917,33.3333333 0.335665833,36.3346667 0.335665833,40 C0.335665833,43.6653333 3.33699917,46.6666667 7.00233333,46.6666667 C10.1664167,46.6666667 12.6664167,44.4986667 13.4183333,41.6666667 Z M7.08366667,43.3333333 C5.25099917,43.3333333 3.7503325,41.8326667 3.7503325,40 C3.7503325,38.1673333 5.25099917,36.6666667 7.08366667,36.6666667 C8.91633333,36.6666667 10.417,38.1673333 10.417,40 C10.417,41.8326667 8.91633333,43.3333333 7.08366667,43.3333333 Z" id="Fill-4"></path>
                <path d="M25.1658333,52.585 L20.0811667,57.6696667 C19.0818333,57.0869833 17.9131667,56.7516667 16.7478333,56.7516667 C13.0825,56.7516667 10.0811667,59.753 10.0811667,63.4183333 C10.0811667,67.0836667 13.0825,70.085 16.7478333,70.085 C20.4131667,70.085 23.4145,67.0836667 23.4145,63.4183333 C23.4145,62.1683333 23.0824667,61.0843333 22.4965,60.085 L27.5811667,55.0003333 C28.2484833,54.3330167 28.2484833,53.3336667 27.5811667,52.6663333 C26.8324667,51.9176333 25.7485,51.9176333 25.1658333,52.58495 L25.1658333,52.585 Z M16.6666667,66.6666667 C14.834,66.6666667 13.3333333,65.166 13.3333333,63.3333333 C13.3333333,61.5006667 14.834,60 16.6666667,60 C18.4993333,60 20,61.5006667 20,63.3333333 C20,65.166 18.584,66.6666667 16.6666667,66.6666667 Z" id="Fill-5"></path>
                <path d="M41.6666667,66.5816667 L41.6666667,59.4136667 C41.6666667,58.4956667 40.9179667,57.747 40,57.747 C39.0820333,57.747 38.3333333,58.4957 38.3333333,59.4136667 L38.3333333,66.5816667 C35.5013333,67.3303667 33.3333333,69.915 33.3333333,72.9976667 C33.3333333,76.6630025 36.3346667,79.6643358 40,79.6643358 C43.6653333,79.6643358 46.6666667,76.6630025 46.6666667,72.9976667 C46.6666667,69.8335833 44.4986667,67.3335833 41.6666667,66.5816667 Z M40,76.3341692 C38.1673333,76.3341692 36.6666667,74.8335025 36.6666667,73.0008333 C36.6666667,71.1681667 38.1673333,69.6675 40,69.6675 C41.8326667,69.6675 43.3333333,71.1681667 43.3333333,73.0008333 C43.3333333,74.8335025 41.8326667,76.3341692 40,76.3341692 Z" id="Fill-6"></path>
                <path d="M63.3333333,56.6666667 C62.0833333,56.6666667 60.9993333,56.9987 60,57.5846667 L54.9153333,52.5 C54.2480167,51.8326833 53.2486667,51.8326833 52.5813333,52.5 C51.9140167,53.1673167 51.9140167,54.1666667 52.5813333,54.834 L57.666,59.9186667 C57.0833167,60.918 56.748,62.0866667 56.748,63.252 C56.748,66.9173333 59.7493333,69.9186667 63.4146667,69.9186667 C67.08,69.9186667 70.0813333,66.9173333 70.0813333,63.252 C69.9153167,59.668 66.91725,56.66675 63.33325,56.66675 L63.3333333,56.6666667 Z M63.3333333,66.6666667 C61.5006667,66.6666667 60,65.166 60,63.3333333 C60,61.5006667 61.5006667,60 63.3333333,60 C65.166,60 66.6666667,61.5006667 66.6666667,63.3333333 C66.6666667,65.166 65.166,66.6666667 63.3333333,66.6666667 Z" id="Fill-7"></path>
                <path d="M72.9166667,33.3333333 C69.834,33.3333333 67.2493333,35.5013333 66.5006667,38.3333333 L59.3326667,38.3333333 C58.4146667,38.3333333 57.666,39.0820333 57.666,40 C57.666,40.9179667 58.4147,41.6666667 59.3326667,41.6666667 L66.5006667,41.6666667 C67.2493667,44.4986667 69.834,46.6666667 72.9166667,46.6666667 C76.582,46.6666667 79.5833333,43.6653333 79.5833333,40 C79.5833333,36.3346667 76.582,33.3333333 72.9166667,33.3333333 Z M72.9166667,43.3333333 C71.084,43.3333333 69.5833333,41.8326667 69.5833333,40 C69.5833333,38.1673333 71.084,36.6666667 72.9166667,36.6666667 C74.7493333,36.6666667 76.25,38.1673333 76.25,40 C76.25,41.8326667 74.834,43.3333333 72.9166667,43.3333333 Z" id="Fill-8"></path>
                <path d="M53.665,27.9167167 C54.0816667,27.9167167 54.4983333,27.75065 54.8303333,27.4153667 L59.915,22.3307 C60.9143333,22.9133833 62.083,23.2487 63.2483333,23.2487 C66.9136667,23.2487 69.915,20.2473667 69.915,16.5820333 C69.915,12.9167 66.9136667,9.91536667 63.2483333,9.91536667 C59.583,9.91536667 56.5816667,12.9167 56.5816667,16.5820333 C56.5816667,17.8320333 56.9137,18.9160333 57.4996667,19.9153667 L52.415,25.0000333 C51.7476833,25.66735 51.7476833,26.6667 52.415,27.3340333 C52.8316667,27.7507 53.2483333,27.9167167 53.665,27.9167167 L53.665,27.9167167 Z M63.3333333,13.3333333 C65.166,13.3333333 66.6666667,14.834 66.6666667,16.6666667 C66.6666667,18.4993333 65.166,20 63.3333333,20 C61.5006667,20 60,18.4993333 60,16.6666667 C60,14.834 61.416,13.3333333 63.3333333,13.3333333 Z" id="Fill-9"></path>
            </g>
        </g>
    </g>
</svg>