<?xml version="1.0" encoding="UTF-8"?>
<svg width="65px" height="65px" viewBox="0 0 65 65" version="1.1" xmlns="http://www.w3.org/2000/svg" xmlns:xlink="http://www.w3.org/1999/xlink">
    <!-- Generator: Sketch 59 (86127) - https://sketch.com -->
    <title>Group 24</title>
    <desc>Created with Sketch.</desc>
    <g id="Page-1" stroke="none" stroke-width="1" fill="none" fill-rule="evenodd">
        <g id="Final-Version-Copy" transform="translate(-841.000000, -3244.000000)">
            <g id="Group-24" transform="translate(841.000000, 3244.000000)">
                <circle id="Oval" fill="#F9EBD5" opacity="0.600000024" cx="32.5" cy="32.5" r="32.5"></circle>
                <g id="Group-8" transform="translate(18.000000, 18.000000)" fill="#CA8513">
                    <path d="M1.99518072,10.5679518 C0.996975904,10.5679518 0.187951807,11.3783855 0.187951807,12.3751807 L0.187951807,28.1927711 C0.187951807,28.6713976 0.378556627,29.1316988 0.71739759,29.4705542 C1.05623855,29.8094096 1.51651807,30.0000081 1.99518072,30.0000081 L7.22891566,30.0000081 C8.17912048,30.0028237 8.96978313,29.267241 9.03614458,28.3198554 L10.1572048,28.9919277 C11.2231807,29.631506 12.4444699,29.9703614 13.6883494,29.9717711 L21.3253373,29.9717711 C22.2487229,29.9816545 23.1650241,29.7981072 24.015,29.4366506 C26.454759,28.3523133 26.8373855,26.4476747 26.6566627,25.1824337 C27.9400843,24.1037349 28.410253,22.3374578 27.8313614,20.7644819 C28.4356627,20.0331325 28.7575663,19.1083373 28.7349759,18.1581325 C28.695441,17.4154699 28.4370651,16.6996265 27.9937229,16.1024096 C28.5627108,14.7935783 28.2295084,13.2673012 27.1663373,12.3144578 C27.0915072,12.2452735 27.0138506,12.1789157 26.9319614,12.1153807 C26.5196964,11.8104108 26.0467084,11.6000313 25.5440819,11.501212 L25.504547,11.501212 C23.108559,10.9915012 21.4961133,10.9590434 19.1257518,10.9590434 C19.0353904,10.4126458 19.0396265,9.26758554 19.754053,7.11036867 C20.414812,5.11113976 20.3583542,3.45904337 19.5803892,2.19832048 L19.5803892,2.19691084 C18.9309072,1.17611566 17.862112,0.495585542 16.6634133,0.340268675 L16.5504614,0.340268675 C15.6976663,0.324740964 14.9394976,0.876798795 14.689594,1.69146145 C14.6768855,1.73381928 14.6670036,1.77758675 14.6599446,1.82135422 L14.3888602,3.77258313 L14.3888602,3.77399639 C14.3083807,4.35993614 14.1375434,4.93033373 13.8834145,5.46545422 L11.2488,10.9988277 C10.847812,11.9250325 10.0232819,12.5985145 9.03635422,12.8060566 L9.03635422,12.3754301 C9.03635422,11.8968036 8.8457494,11.4365024 8.50690843,11.097647 C8.16806747,10.7587916 7.70778795,10.5682012 7.2291253,10.5682012 L1.99518072,10.5679518 Z M1.99518072,28.1927711 L1.99518072,12.3751807 L7.22891566,12.3751807 L7.22891566,28.1927711 L1.99518072,28.1927711 Z M9.22409639,14.6244578 C10.852012,14.3392554 12.2243855,13.2506747 12.8754217,11.7328916 L15.4888554,6.21361446 C15.8206518,5.51190361 16.043747,4.76360241 16.1496145,3.99412048 L16.4277578,2.16853012 C16.4404663,2.15582169 16.4574072,2.1473494 16.4743518,2.14311687 C17.1125205,2.24477349 17.6772795,2.60905663 18.0330867,3.14836988 C18.5103036,3.92208072 18.5103036,5.09677952 18.0330867,6.54256265 C17.3313759,8.65333373 17.1153398,10.3193096 17.3821952,11.4983458 L17.3821952,11.4969325 C17.5516229,12.2452337 18.2194482,12.7747157 18.9875205,12.769041 C21.3764602,12.769041 22.8517373,12.7902181 25.1320988,13.2716675 L25.1688072,13.2716675 L25.167394,13.2716675 C25.4088289,13.3154349 25.6375627,13.4114458 25.8366506,13.554047 L25.9524253,13.6514675 C26.8772169,14.4859012 26.292694,15.556106 26.1698566,15.7551904 L26.1684434,15.7551904 C25.9298313,16.129359 25.9976024,16.6206723 26.3279892,16.9157566 C26.679553,17.2715566 26.8955675,17.7388771 26.9393386,18.2387205 C26.9181614,18.9107928 26.6244867,19.5461422 26.1260855,19.9979494 C25.8479422,20.2930373 25.7985253,20.7349735 26.0060747,21.0822867 C26.0456096,21.1514711 26.974641,22.7666964 25.1349181,24.117853 L25.1349181,24.1192663 C24.818653,24.3564651 24.6915687,24.7701578 24.8172398,25.1457 C24.9146602,25.4351386 25.2972759,26.9162053 23.313553,27.7873619 C22.6838422,28.049974 22.007541,28.1784463 21.3256012,28.1643499 L13.6730711,28.1643499 C12.7581795,28.1629381 11.8602036,27.913033 11.0751795,27.4414583 L9.03640843,26.2187602 L9.03640843,14.6524952 L9.22409639,14.6244578 Z" id="Fill-6"></path>
                    <path d="M5.71409639,25.3803614 C5.71409639,26.8501453 3.51010843,26.8501453 3.51010843,25.3803614 C3.51010843,23.9105783 5.71409639,23.9105783 5.71409639,25.3803614" id="Fill-7"></path>
                </g>
            </g>
        </g>
    </g>
</svg>