<?xml version="1.0" encoding="UTF-8"?>
<svg width="72px" height="80px" viewBox="0 0 72 80" version="1.1" xmlns="http://www.w3.org/2000/svg" xmlns:xlink="http://www.w3.org/1999/xlink">
    <!-- Generator: Sketch 59 (86127) - https://sketch.com -->
    <title>Oval</title>
    <desc>Created with Sketch.</desc>
    <defs>
        <path d="M26.7554619,0 C17.8195462,0.0106541327 10.4759454,7.24044679 9.41404215,16.5120876 C3.96179898,18.1526604 0,23.5289067 0,29.7961185 C0,37.3384626 6.29591628,43.6237646 13.4915706,43.6237646 L22.4872409,43.6237646 L22.4872409,62.319404 L16.7432443,62.319404 C15.8081395,59.3969718 13.0838177,57.2627817 9.89540828,57.2627817 C5.94422833,57.2627817 2.699574,60.540382 2.699574,64.5352273 C2.699574,68.5300725 5.94071865,71.8076728 9.89540828,71.8076728 C13.3685518,71.8076728 16.2897756,69.2757709 16.9505854,65.9520815 L24.2869868,65.9520815 L24.2869868,65.9591812 C25.2818462,65.9591812 26.0868228,65.1424492 26.0868228,64.1375245 L26.0868228,43.6237737 L34.1860848,43.6237737 L34.1860848,43.6273281 L34.1860848,43.7338604 L34.1860848,65.6930097 C31.0961264,66.5097417 28.7900865,69.357595 28.7900865,72.72401 C28.7900865,76.7188553 32.0347408,80 35.9859208,80 C39.9371007,80 43.1817551,76.7223997 43.1817551,72.72401 C43.1817551,69.3576859 40.8757152,66.5062509 37.7857568,65.6930097 L37.7857568,43.7338604 L37.7822381,43.7338604 C37.7857568,43.6983526 37.7857568,43.6628358 37.7822381,43.6273281 L45.8744807,43.6273281 L45.8744807,64.5392453 C45.8744807,65.5442064 46.6794843,66.3573567 47.6743167,66.3573567 L55.1091692,66.3573567 C55.9141728,69.4822356 58.7334089,71.8116908 62.0659852,71.8116908 C66.0171652,71.8116908 69.2618195,68.5340905 69.2618195,64.5392453 C69.2618195,60.5444 66.0171652,57.2667997 62.0659852,57.2667997 C58.7334989,57.2667997 55.9142358,59.5998003 55.1091692,62.7211339 L49.4741527,62.7211339 L49.4741527,43.6273281 L59.3696509,43.6273281 C66.5338081,43.6273281 72,37.3384808 72,29.799682 C72,22.2573378 66.2770615,15.9902169 59.1095746,15.9902169 C58.3783913,15.9902169 57.6577369,16.057687 56.9582307,16.1855184 C55.8122751,9.85767267 50.6165986,5.00322436 44.3206823,4.99958814 C42.6614135,5.00314255 41.0619892,5.44701626 39.5363582,6.10754522 C36.2530974,2.30441982 31.6726048,0.00341804941 26.7620223,0.00341804941 L26.7554619,0 Z M26.7554619,3.63601369 C30.9668081,3.63601369 34.9637039,5.7064153 37.6210718,9.33554744 C38.1659451,10.0777096 39.1713605,10.2872379 39.9658081,9.82913741 C41.3121754,9.04436782 42.8026196,8.63600182 44.3142119,8.6324565 C48.9508594,8.63601369 52.8634328,12.357494 53.5032745,17.3714816 C51.6788708,18.3160814 50.0898856,19.6938462 48.8806657,21.3841443 C47.4710342,23.3478864 50.3852386,25.4819856 51.7948702,23.5218797 C53.5174032,21.1249726 56.1467836,19.6263942 59.1067039,19.6263942 C64.1933104,19.6263942 68.3974573,24.0971301 68.3974573,29.7996365 C68.3974573,35.5021429 64.4532967,39.9910599 59.3667802,39.9910599 L13.4952602,39.9910599 C8.40865376,39.9910599 3.59976197,35.5025974 3.59976197,29.7996365 C3.59976197,24.0966756 7.80759853,19.6263942 12.894115,19.6263942 C14.5919903,19.6263942 16.1668468,20.1199842 17.5413815,20.9899778 C19.5732164,22.2790188 21.4855421,19.2002289 19.4537073,17.9077336 C17.5976264,16.7287792 15.4216247,16.0363515 13.1120752,15.9937168 C14.331914,8.87753791 20.0301947,3.64692236 26.7584316,3.63601369 L26.7554619,3.63601369 Z M9.89639819,60.899459 C11.9036653,60.899459 13.4925605,62.5080331 13.4925605,64.5356818 C13.4925605,66.5668758 11.9036653,68.1719046 9.89639819,68.1719046 C7.8891311,68.1719046 6.30023589,66.5633305 6.30023589,64.5356818 C6.30023589,62.5044878 7.8891311,60.899459 9.89639819,60.899459 Z M62.0637444,60.899459 C64.0710115,60.899459 65.6599067,62.5080331 65.6599067,64.5356818 C65.6599067,66.5668758 64.0710115,68.1719046 62.0637444,68.1719046 C60.0564774,68.1719046 58.4675821,66.5633305 58.4675821,64.5356818 C58.4675821,62.5044878 60.0564774,60.899459 62.0637444,60.899459 Z M35.9805213,69.0845056 C37.9877884,69.0845056 39.5766836,70.6930796 39.5766836,72.7207284 C39.5766836,74.7519224 37.9877884,76.3569511 35.9805213,76.3569511 C33.9732542,76.3569511 32.384359,74.7519224 32.384359,72.7207284 C32.384359,70.6895343 33.9732542,69.0845056 35.9805213,69.0845056 Z" id="path-1"></path>
    </defs>
    <g id="Page-1" stroke="none" stroke-width="1" fill="none" fill-rule="evenodd">
        <g id="Final-Version-Copy" transform="translate(-1340.000000, -2108.000000)">
            <g id="Oval" transform="translate(1340.000000, 2108.000000)">
                <mask id="mask-2" fill="white">
                    <use xlink:href="#path-1"></use>
                </mask>
                <use id="Mask" fill="#8D95A0" xlink:href="#path-1"></use>
                <ellipse fill="#FFB843" mask="url(#mask-2)" cx="62.7906977" cy="64.8421053" rx="8.37209302" ry="8.42105263"></ellipse>
                <ellipse fill="#003E7C" mask="url(#mask-2)" cx="9.20930233" cy="64.8421053" rx="8.37209302" ry="8.42105263"></ellipse>
                <ellipse fill="#F17B3D" mask="url(#mask-2)" cx="36" cy="72.8421053" rx="7.11627907" ry="7.15789474"></ellipse>
            </g>
        </g>
    </g>
</svg>