<?xml version="1.0" encoding="UTF-8"?>
<svg width="65px" height="65px" viewBox="0 0 65 65" version="1.1" xmlns="http://www.w3.org/2000/svg" xmlns:xlink="http://www.w3.org/1999/xlink">
    <!-- Generator: Sketch 59 (86127) - https://sketch.com -->
    <title>Group 28</title>
    <desc>Created with Sketch.</desc>
    <g id="Page-1" stroke="none" stroke-width="1" fill="none" fill-rule="evenodd">
        <g id="Final-Version-Copy" transform="translate(-840.000000, -3363.000000)">
            <g id="Group-28" transform="translate(840.000000, 3363.000000)">
                <circle id="Oval-Copy-15" fill="#DAEAFA" opacity="0.600000024" cx="32.5" cy="32.5" r="32.5"></circle>
                <g id="Group-4" transform="translate(18.000000, 18.000000)" fill="#003E7C">
                    <path d="M6.0219403,3.88298507 L6.0219403,1.074 C6.0219403,0.594761194 5.63714328,0.195985075 5.14392537,0.195985075 C4.66468657,0.195985075 4.26591045,0.594770149 4.26591045,1.074 L4.26591045,3.88123881 C2.0900597,4.28877313 0.442432836,6.20923881 0.442432836,8.50213433 C0.442432836,10.7951642 2.0900597,12.7243881 4.26591045,13.1373582 L4.26591045,28.9666119 C4.26591045,29.4458507 4.66469552,29.8446269 5.14392537,29.8446269 C5.6371791,29.8446269 6.0219403,29.4458418 6.0219403,28.9666119 L6.0219403,13.1373582 C8.19779104,12.7298239 9.85938806,10.7953433 9.85938806,8.50213433 C9.85938806,6.21085075 8.19779104,4.29389552 6.0219403,3.88302985 L6.0219403,3.88298507 Z M6.0219403,11.3373134 C5.75258507,11.4177716 5.44826866,11.4667433 5.14392537,11.4667433 C4.83958657,11.4667433 4.54925373,11.4212687 4.26591045,11.3373134 C3.06953731,10.9612657 2.19676119,9.8418806 2.19676119,8.50732836 C2.19676119,7.18679104 3.07477612,6.06214925 4.26591045,5.68607463 C4.54751194,5.60561642 4.83958209,5.55664478 5.14392537,5.55664478 C5.44826418,5.55664478 5.75261194,5.6021194 6.0219403,5.68607463 C7.22704478,6.06212239 8.10331605,7.18150746 8.10331605,8.50732836 C8.10506418,9.83664179 7.22704478,10.9612836 6.0219403,11.3373134 Z" id="Fill-1"></path>
                    <path d="M15.6402985,16.9607463 L15.6402985,1.0741791 C15.6402985,0.594940299 15.241509,0.196164179 14.7622836,0.196164179 C14.2830582,0.196164179 13.8842687,0.594949254 13.8842687,1.0741791 L13.8842687,16.9607463 C11.7084179,17.3682806 10.0468209,19.2887463 10.0468209,21.5816418 C10.0468209,23.8746716 11.7084179,25.8038955 13.8842687,26.2168657 L13.8842687,28.9663881 C13.8842687,29.4456269 14.2830582,29.844403 14.7622836,29.844403 C15.241509,29.844403 15.6402985,29.4456179 15.6402985,28.9663881 L15.6402985,26.2168657 C17.8161493,25.8093313 19.4777463,23.8748507 19.4777463,21.5816418 C19.4777463,19.2886119 17.8161493,17.373403 15.6402985,16.9607463 Z M15.6402985,24.4168657 C15.3709433,24.4973239 15.0666269,24.5462955 14.7622836,24.5462955 C14.4579403,24.5462955 14.153597,24.5008209 13.8842687,24.4168657 C12.6791642,24.0408179 11.8028955,22.9214328 11.8028955,21.5868806 C11.8028955,20.2663433 12.6809104,19.1417015 13.8842687,18.7656269 C14.1536239,18.6851687 14.4579403,18.636197 14.7622836,18.636197 C15.0666269,18.636197 15.3709701,18.6816716 15.6402985,18.7656269 C16.845403,19.1416746 17.7216716,20.2610597 17.7216716,21.5868806 C17.7216716,22.916194 16.845403,24.0408358 15.6402985,24.4168657 Z" id="Fill-2"></path>
                    <path d="M25.2528358,8.99552239 L25.2528358,1.0741791 C25.2528358,0.594940299 24.8540463,0.196164179 24.3748209,0.196164179 C23.8815672,0.196164179 23.496806,0.594949254 23.496806,1.0741791 L23.496806,8.99552239 C21.3209552,9.40305672 19.6593582,11.3375373 19.6593582,13.6307463 C19.6593582,15.9239552 21.3209552,17.853 23.496806,18.2659701 L23.496806,28.9719403 C23.496806,29.4511791 23.881603,29.8499552 24.3748209,29.8499552 C24.8540597,29.8499552 25.2528358,29.4511701 25.2528358,28.9719403 L25.2528358,18.260597 C27.4286866,17.8530627 29.0763148,15.9185821 29.0763148,13.6253731 C29.0780642,11.3323433 27.4304328,9.40835821 25.2528358,8.99552239 Z M25.2528358,16.4467164 C24.9712343,16.5411672 24.6791642,16.584891 24.3748209,16.584891 C24.0704776,16.584891 23.7661343,16.5394164 23.496806,16.4467164 C22.2917015,16.0706687 21.4154328,14.9512836 21.4154328,13.6254627 C21.4154328,12.2909104 22.2934478,11.1680149 23.496806,10.7954776 C23.7661612,10.7150194 24.0704776,10.6660478 24.3748209,10.6660478 C24.6791642,10.6660478 24.9694925,10.7115224 25.2528358,10.7954776 C26.449209,11.1715254 27.3220085,12.2909104 27.3220085,13.6254627 C27.3272328,14.9512388 26.449209,16.0741791 25.2528358,16.4467164 Z" id="Fill-3"></path>
                </g>
            </g>
        </g>
    </g>
</svg>