<?xml version="1.0" encoding="UTF-8"?>
<svg width="84px" height="67px" viewBox="0 0 84 67" version="1.1" xmlns="http://www.w3.org/2000/svg" xmlns:xlink="http://www.w3.org/1999/xlink">
    <!-- Generator: Sketch 59 (86127) - https://sketch.com -->
    <title>Fill 1</title>
    <desc>Created with Sketch.</desc>
    <g id="Page-1" stroke="none" stroke-width="1" fill="none" fill-rule="evenodd">
        <g id="Final-Version-Copy-2" transform="translate(-798.000000, -3921.000000)" fill="#8D95A0" stroke="#8D95A0" stroke-width="0.5">
            <path d="M880.679175,3940.59806 C880.354351,3940.1433 879.829893,3939.87045 879.264846,3939.87045 L816.046191,3939.87382 L811.373481,3923.26318 C811.163697,3922.51873 810.483635,3922.00337 809.705356,3922.00337 L800.732398,3922 C799.774815,3922 799,3922.7714 799,3923.72471 C799,3924.67801 799.774841,3925.44941 800.732398,3925.44941 L808.396269,3925.44941 L819.312107,3964.26218 C815.305937,3964.32618 812.067826,3967.58361 812.067826,3971.58545 C812.067826,3975.62773 815.370209,3978.91544 819.430516,3978.91544 L821.650151,3978.91544 C821.365934,3979.58916 821.203521,3980.33022 821.203521,3981.10841 C821.203521,3984.21762 823.744602,3986.75078 826.867682,3986.75078 C829.990762,3986.75078 832.535221,3984.22098 832.535221,3981.10841 C832.535221,3980.33027 832.376196,3979.5892 832.088592,3978.91544 L850.434683,3978.91544 C850.076024,3979.65653 849.869626,3980.48182 849.869626,3981.35763 C849.869626,3984.46684 852.410707,3987 855.533787,3987 C858.656867,3987 861.197948,3984.4702 861.197948,3981.35763 C861.197948,3980.48182 860.99155,3979.65646 860.632892,3978.91544 L863.674722,3978.91544 C864.632305,3978.91544 865.40712,3978.14404 865.40712,3977.19074 C865.40712,3976.23743 864.632279,3975.46603 863.674722,3975.46603 L819.427554,3975.46603 C817.278948,3975.46603 815.529659,3973.72451 815.529659,3971.58545 C815.529659,3969.44638 817.278948,3967.70486 819.427554,3967.70486 L821.589673,3967.70486 L821.593051,3967.70486 L821.596438,3967.70486 L870.739362,3967.70486 C871.608939,3967.70486 872.319482,3967.0682 872.444734,3966.23955 L880.900307,3942.16784 C881.089788,3941.63898 881.005195,3941.05618 880.680371,3940.5981 L880.679175,3940.59806 Z M855.532557,3983.55098 C854.317887,3983.55098 853.333192,3982.56738 853.333192,3981.35801 C853.333192,3980.14874 854.321178,3979.16505 855.532557,3979.16505 C856.747228,3979.16505 857.731923,3980.14865 857.731923,3981.35801 C857.731923,3982.56729 856.747314,3983.55098 855.532557,3983.55098 Z M829.069317,3981.1088 C829.069317,3982.31807 828.081331,3983.30176 826.866573,3983.30176 C825.651816,3983.30176 824.667208,3982.31816 824.667208,3981.1088 C824.667208,3979.89952 825.655194,3978.91583 826.866573,3978.91583 C828.077866,3978.91583 829.069317,3979.89943 829.069317,3981.1088 Z M869.473161,3964.25584 L822.90458,3964.25584 L817.017113,3943.3205 L876.825535,3943.3205 L869.473161,3964.25584 Z" id="Fill-1"></path>
        </g>
    </g>
</svg>