<?xml version="1.0" encoding="UTF-8"?>
<svg width="65px" height="65px" viewBox="0 0 65 65" version="1.1" xmlns="http://www.w3.org/2000/svg" xmlns:xlink="http://www.w3.org/1999/xlink">
    <!-- Generator: Sketch 59 (86127) - https://sketch.com -->
    <title>Group 25</title>
    <desc>Created with Sketch.</desc>
    <g id="Page-1" stroke="none" stroke-width="1" fill="none" fill-rule="evenodd">
        <g id="Final-Version-Copy" transform="translate(-1142.000000, -3244.000000)">
            <g id="Group-25" transform="translate(1142.000000, 3244.000000)">
                <circle id="Oval-Copy-11" fill="#FCE4D7" opacity="0.600000024" cx="32.5" cy="32.5" r="32.5"></circle>
                <g id="Group-11" transform="translate(18.000000, 18.000000)" fill="#FF4800">
                    <path d="M30,30 L0,30 L0,0 L30,0 L30,30 Z M0.9092994,29.09298 L29.0928,29.09298 L29.0928,0.90948 L0.9092994,0.90948 L0.9092994,29.09298 Z" id="Fill-1" stroke="#FF4800" stroke-width="0.4"></path>
                    <polygon id="Fill-2" points="0 5.3907 30 5.3907 30 6.3282 0 6.3282"></polygon>
                    <path d="M23.1564,4.9065 C22.20015,4.9065 21.42789,4.1319 21.42789,3.17799 C21.42789,2.22525 22.20015,1.44948 23.1564,1.44948 C24.10914,1.44948 24.88491,2.22525 24.88491,3.17799 C24.88374,4.1319 24.10677,4.9065 23.1564,4.9065 Z M23.1564,2.38698 C22.72164,2.38698 22.36539,2.74089 22.36539,3.17799 C22.36539,3.61509 22.71813,3.969 23.1564,3.969 C23.59116,3.969 23.94741,3.61509 23.94741,3.17799 C23.94624,2.74089 23.59116,2.38698 23.1564,2.38698 Z" id="Fill-3"></path>
                    <path d="M26.979,4.9065 C26.02509,4.9065 25.25049,4.1319 25.25049,3.17799 C25.25049,2.22525 26.02509,1.44948 26.979,1.44948 C27.93291,1.44948 28.70985,2.22525 28.70985,3.17799 C28.70985,4.1319 27.93171,4.9065 26.979,4.9065 Z M26.979,2.38698 C26.54541,2.38698 26.18799,2.74089 26.18799,3.17799 C26.18799,3.61509 26.54073,3.969 26.979,3.969 C27.41727,3.969 27.77235,3.61509 27.77235,3.17799 C27.77235,2.74089 27.41493,2.38698 26.979,2.38698 Z" id="Fill-4"></path>
                    <path d="M19.329,4.9065 C18.37509,4.9065 17.60049,4.1319 17.60049,3.17799 C17.60049,2.22525 18.37509,1.44948 19.329,1.44948 C20.28525,1.44948 21.05751,2.22525 21.05751,3.17799 C21.056337,4.1319 20.28408,4.9065 19.329,4.9065 Z M19.329,2.38698 C18.89424,2.38698 18.53799,2.74089 18.53799,3.17799 C18.53799,3.61509 18.8919,3.969 19.329,3.969 C19.7661,3.969 20.12001,3.61509 20.12001,3.17799 C20.118837,2.74089 19.76493,2.38698 19.329,2.38698 Z" id="Fill-5"></path>
                    <path d="M18.369,14.6496 L11.6307,14.6496 L11.6307,7.9101 L18.369,7.9101 L18.369,14.6496 Z M12.5682,13.7121 L17.4315,13.7121 L17.4315,8.8476 L12.5682,8.8476 L12.5682,13.7121 Z" id="Fill-6" stroke="#FF4800" stroke-width="0.5"></path>
                    <path d="M26.2347,26.4843 L19.4964,26.4843 L19.4964,19.746 L26.2347,19.746 L26.2347,26.4843 Z M20.4339,25.5468 L25.2972,25.5468 L25.2972,20.6835 L20.4339,20.6835 L20.4339,25.5468 Z" id="Fill-7" stroke="#FF4800" stroke-width="0.5"></path>
                    <path d="M10.5036,26.4843 L3.7653,26.4843 L3.7653,19.746 L10.5036,19.746 L10.5036,26.4843 Z M4.7028,25.5468 L9.5661,25.5468 L9.5661,20.6835 L4.7028,20.6835 L4.7028,25.5468 Z" id="Fill-8" stroke="#FF4800" stroke-width="0.5"></path>
                    <polygon id="Fill-9" stroke="#FF4800" stroke-width="0.5" points="14.5314 13.7121 15.4689 13.7121 15.4689 23.5863 14.5314 23.5863"></polygon>
                    <polygon id="Fill-10" stroke="#FF4800" stroke-width="0.5" points="9.5661 22.6464 20.4351 22.6464 20.4351 23.5839 9.5661 23.5839"></polygon>
                </g>
            </g>
        </g>
    </g>
</svg>