<?xml version="1.0" encoding="UTF-8"?>
<svg width="80px" height="65px" viewBox="0 0 80 65" version="1.1" xmlns="http://www.w3.org/2000/svg" xmlns:xlink="http://www.w3.org/1999/xlink">
    <!-- Generator: Sketch 59 (86127) - https://sketch.com -->
    <title>Fill 1</title>
    <desc>Created with Sketch.</desc>
    <g id="Page-1" stroke="none" stroke-width="1" fill="none" fill-rule="evenodd">
        <g id="Final-Version-Copy-2" transform="translate(-516.000000, -3922.000000)" fill="#8D95A0">
            <path d="M596,3944.4993 C596.023657,3938.52442 593.670307,3932.78955 589.460896,3928.57425 C581.614186,3920.68535 568.239905,3921.01064 558.997352,3929.10154 C553.766212,3924.39354 548.865506,3922 544.383291,3922 L544.386691,3922 C538.443767,3921.97959 532.739558,3924.34559 528.536337,3928.56737 C524.333726,3932.79258 521.980411,3938.52404 521.997412,3944.49944 C521.994012,3946.62234 522.286895,3948.7349 522.869269,3950.77566 L517.743713,3950.77566 C516.779876,3950.77566 516,3951.55976 516,3952.52875 C516,3953.49775 516.779902,3954.28184 517.743713,3954.28184 L524.214544,3954.28184 L524.211143,3954.28184 C525.311165,3956.55884 526.785823,3958.6337 528.570427,3960.41765 L554.815056,3985.33078 C557.164971,3987.55641 560.832872,3987.55641 563.182874,3985.33078 L589.471096,3960.42817 C591.415773,3958.4662 592.982325,3956.15843 594.092634,3953.62469 C594.324217,3953.34735 594.463853,3953.00495 594.491099,3952.642 C595.488939,3950.04664 596,3947.28343 596,3944.4997 L596,3944.4993 Z M525.484818,3944.4993 C525.467899,3939.45575 527.456804,3934.61451 531.002122,3931.0461 C534.55084,3927.48172 539.369941,3925.48548 544.386866,3925.50592 C548.231928,3925.50592 552.870467,3928.01247 557.795149,3932.75466 C558.472878,3933.41549 559.552463,3933.41549 560.230245,3932.75466 C567.109717,3925.91692 579.298622,3923.33181 586.995372,3931.07003 C590.54409,3934.63441 592.529657,3939.47942 592.505981,3944.52673 C592.498959,3946.66331 592.141358,3948.78279 591.439749,3950.80296 L579.608654,3950.80296 L573.979075,3941.35294 C573.628293,3940.76744 572.967547,3940.43871 572.293253,3940.51406 C571.615524,3940.58939 571.04676,3941.05506 570.832196,3941.70222 L564.848382,3959.76077 L560.884137,3950.38964 C560.608273,3949.74593 559.974791,3949.32824 559.280095,3949.33165 L553.524446,3949.33165 C552.938663,3949.33165 552.390335,3949.62612 552.066789,3950.11918 L549.103872,3954.63198 L544.935351,3942.14123 C544.713977,3941.47354 544.111176,3941.00102 543.409601,3940.94965 C542.708027,3940.8983 542.047325,3941.27493 541.72718,3941.90491 L537.228225,3950.77641 L526.558443,3950.77641 C525.853469,3948.75966 525.492424,3946.63676 525.485623,3944.50018 L525.484818,3944.4993 Z M587.03975,3957.91129 L560.795121,3982.77972 C559.78708,3983.73498 558.21024,3983.73498 557.202112,3982.77972 L531.046412,3957.94898 L531.046412,3957.94556 C529.959992,3956.84646 529.009842,3955.61377 528.223079,3954.28187 L538.293895,3954.28187 C538.947788,3954.28187 539.547189,3953.91208 539.843446,3953.32662 L542.946035,3947.19081 L546.934082,3959.14774 C547.145237,3959.78118 547.696957,3960.23658 548.357649,3960.32564 C549.014951,3960.41124 549.668835,3960.11677 550.036671,3959.55866 L554.457246,3952.83391 L558.128547,3952.83391 L563.43798,3965.33518 C563.713844,3965.9789 564.343926,3966.39659 565.042022,3966.39659 L565.110131,3966.39659 C565.835542,3966.3692 566.465607,3965.89326 566.697172,3965.20501 L572.93984,3946.44872 L577.13225,3953.46107 L577.13225,3953.45765 C577.442169,3953.99522 578.007507,3954.32735 578.623909,3954.3342 L589.829011,3954.3342 C589.0457,3955.63876 588.109099,3956.83717 587.039767,3957.91225 L587.03975,3957.91129 Z" id="Fill-1"></path>
        </g>
    </g>
</svg>