<?xml version="1.0" encoding="UTF-8"?>
<svg width="67px" height="67px" viewBox="0 0 67 67" version="1.1" xmlns="http://www.w3.org/2000/svg" xmlns:xlink="http://www.w3.org/1999/xlink">
    <!-- Generator: Sketch 59 (86127) - https://sketch.com -->
    <title>Group 4</title>
    <desc>Created with Sketch.</desc>
    <g id="Page-1" stroke="none" stroke-width="1" fill="none" fill-rule="evenodd">
        <g id="Final-Version-Copy-2" transform="translate(-240.000000, -3921.000000)" fill="#8D95A0" stroke="#8D95A0" stroke-width="0.5">
            <g id="Group-4" transform="translate(241.000000, 3922.000000)">
                <path d="M11.4690426,35.8710106 C11.4555378,35.8575059 11.4447298,35.8466979 11.431225,35.8331931 L7.64960798,32.0515761 L7.64960798,18.9941824 C7.64960798,16.9089271 5.95331543,15.2125654 3.86799234,15.2125654 C1.78266787,15.2125654 0.0863753191,16.908858 0.0863753191,18.9941824 L0.0863753191,42.7641293 C0.0863753191,43.0072293 0.167410957,43.2395282 0.315970532,43.428609 L9.81011809,55.5621729 L9.81011809,63.8330799 C9.81011809,64.4300288 10.2936213,64.913532 10.8905702,64.913532 L20.6142936,64.913532 C21.2112426,64.913532 21.6947457,64.4300288 21.6947457,63.8330799 L21.6947457,46.5458431 C21.6947457,46.259525 21.5813,45.984008 21.3787144,45.7814016 L11.4690426,35.8710106 Z M19.5345745,62.7526596 L11.9710638,62.7526596 L11.9710638,55.1891489 C11.9710638,54.9460489 11.8900282,54.71375 11.7414686,54.5246691 L2.24732037,42.3911053 L2.24732037,18.9938713 C2.24732037,18.0997755 2.97393739,17.3731585 3.86803314,17.3731585 C4.76212888,17.3731585 5.48874521,18.0997755 5.48874521,18.9938713 L5.48874521,32.49935 C5.48874521,32.7856681 5.60219096,33.0611851 5.8047766,33.2637915 L7.37141489,34.8304298 C5.66156915,35.335542 4.40824537,36.9237755 4.40824537,38.7957064 C4.40824537,39.9004989 4.8377225,40.9404298 5.62104787,41.7210521 L12.2874202,48.3901213 L13.816234,46.8613074 L7.14716489,40.1922383 C6.77981117,39.8248846 6.56912128,39.3170894 6.56912128,38.7957755 C6.56912128,37.707233 7.45505745,36.8212277 8.54636596,36.8212277 C9.06227926,36.8212277 9.54577553,37.015709 9.91586064,37.3722617 L19.5345745,46.9936447 L19.5345745,62.7526596 Z" id="Fill-1"></path>
                <path d="M61.1318085,15.212766 C59.0465532,15.212766 57.3501915,16.9090585 57.3501915,18.994383 L57.3501915,32.0517766 L53.5685745,35.8333936 C53.5550697,35.8468984 53.5415649,35.8577064 53.5307569,35.8712112 L43.6230973,45.7816367 C43.417808,45.9842223 43.3043622,46.2597394 43.3043622,46.5460782 L43.3043622,63.8333102 C43.3043622,64.4302591 43.7878654,64.9137623 44.3848144,64.9137623 L54.1085378,64.9137623 C54.7054867,64.9137623 55.1889899,64.4302591 55.1889899,63.8333102 L55.1889899,55.562408 L64.6831388,43.4288441 C64.8316984,43.2397633 64.912734,43.0074644 64.912734,42.7643644 L64.912734,18.9944176 C64.912734,16.9091622 63.2164415,15.212766 61.131117,15.212766 L61.1318085,15.212766 Z M62.7525213,42.3917553 L53.2583723,54.5253191 C53.1098128,54.7144 53.0287771,54.9466989 53.0287771,55.1897989 L53.0287771,62.7533103 L45.4652665,62.7533103 L45.4652665,46.9949585 L55.0838835,37.3763415 C55.453941,37.017092 55.9401548,36.8226106 56.4533782,36.8226106 C57.5446176,36.8226106 58.4306229,37.7085468 58.4306229,38.7971585 C58.4306229,39.3157755 58.219933,39.8263021 57.8525793,40.1936213 L51.1862069,46.8626904 L52.7150207,48.3915043 L59.3813931,41.7224351 C60.1620154,40.9418128 60.5914995,39.9045787 60.5914995,38.7970894 C60.5914995,36.9252277 59.338175,35.3369457 57.6283293,34.8318128 L59.1949676,33.2651745 C59.3975532,33.0625888 59.5109989,32.7870718 59.5109989,32.500733 L59.5109989,18.9952543 C59.5109989,18.1011585 60.237616,17.3745415 61.1317117,17.3745415 C62.0258074,17.3745415 62.7525213,18.1011585 62.7525213,18.9952543 L62.7525213,42.3917553 Z" id="Fill-2"></path>
                <path d="M42.2237234,23.856383 C42.9503404,23.856383 43.6174894,23.6078755 44.15775,23.2000074 L48.814516,26.3090128 C48.7496888,26.5629207 48.7064707,26.8249261 48.7064707,27.0977255 C48.7064707,28.8858479 50.1597048,30.3390819 51.9478271,30.3390819 C53.7359495,30.3390819 55.1891835,28.8858479 55.1891835,27.0977255 C55.1891835,25.3096032 53.7359495,23.8563691 51.9478271,23.8563691 C51.2212101,23.8563691 50.5540612,24.1048766 50.0138005,24.5127447 L45.3570346,21.4037394 C45.4218617,21.1498314 45.4650798,20.8878261 45.4650798,20.6150266 C45.4650798,18.8269043 44.0118457,17.3736702 42.2237234,17.3736702 C40.4356011,17.3736702 38.982367,18.8269043 38.982367,20.6150266 C38.982367,20.8878399 39.0255851,21.1498521 39.0904122,21.4037394 L34.4336463,24.5127447 C34.1743378,24.3182633 33.8880197,24.167 33.5800718,24.0562511 L33.5800718,13.267634 C34.3093856,13.5350468 34.9441729,14.0428628 35.3331356,14.7586234 C35.7112973,15.4528096 36.8511622,15.4528096 37.2320346,14.7586234 C37.8019739,13.7052085 38.8878059,13.0514745 40.0628537,13.0514745 C41.2379016,13.0514745 42.3236782,13.7051463 42.8963697,14.7586234 C43.0854505,15.1043681 43.4501005,15.3204585 43.8444707,15.3204585 C44.2415378,15.3204585 44.6062154,15.1043681 44.7925718,14.7559197 C45.1788309,14.0455527 45.813625,13.505292 46.5753005,13.2378931 C47.088517,13.0569165 47.3883537,12.5220633 47.2721835,11.9899622 C45.7757314,5.09394628 39.5634601,0.0859728723 32.4998963,0.0859728723 C25.4363255,0.0859728723 19.223992,5.09387713 17.7248431,11.9899622 C17.6086936,12.522084 17.9085234,13.0569303 18.4217261,13.2378931 C19.1861676,13.5053059 19.8181888,14.0455527 20.2044548,14.7559197 C20.3935356,15.1043681 20.7581856,15.3204585 21.1525559,15.3204585 C21.5469191,15.3204585 21.9116037,15.1043681 22.1006569,14.7586234 C22.6759968,13.7052085 23.7618218,13.0514745 24.9368697,13.0514745 C26.1119176,13.0514745 27.1976941,13.7051463 27.7703856,14.7586234 C28.1485473,15.4528096 29.2884122,15.4528096 29.6692846,14.7586234 C30.0582473,14.0427936 30.6930346,13.535033 31.4223484,13.267634 L31.4223484,24.0562511 C31.1144213,24.167 30.8280963,24.3182633 30.5687739,24.5127447 L25.912008,21.4037394 C25.9741314,21.1498314 26.0173495,20.8878261 26.0173495,20.6150266 C26.0173495,18.8269043 24.5641154,17.3736702 22.7759931,17.3736702 C20.9878707,17.3736702 19.5346367,18.8269043 19.5346367,20.6150266 C19.5346367,20.8878399 19.5778548,21.1498521 19.6426819,21.4037394 L14.985916,24.5127447 C14.4456899,24.1048766 13.7785064,23.8563691 13.0518894,23.8563691 C11.263767,23.8563691 9.81053298,25.3096032 9.81053298,27.0977255 C9.81053298,28.8858479 11.263767,30.3390819 13.0518894,30.3390819 C14.8400117,30.3390819 16.2932457,28.8858479 16.2932457,27.0977255 C16.2932457,26.8249122 16.2500277,26.5629 16.1852005,26.3090128 L20.8419665,23.2000074 C21.3821926,23.6078755 22.0493761,23.856383 22.7759931,23.856383 C23.5026101,23.856383 24.169759,23.6078755 24.7100197,23.2000074 L29.3667856,26.3090128 C29.3019585,26.5629207 29.2587404,26.8249261 29.2587404,27.0977255 C29.2587404,28.8858479 30.7119745,30.3390819 32.5000968,30.3390819 C34.2882191,30.3390819 35.7414532,28.8858479 35.7414532,27.0977255 C35.7414532,26.8249122 35.6982351,26.5629 35.633408,26.3090128 L40.2901739,23.2000074 C40.8304,23.6078755 41.4975835,23.856383 42.2242005,23.856383 L42.2237234,23.856383 Z M51.9474468,26.0172872 C52.5416989,26.0172872 53.0278989,26.5007904 53.0278989,27.0977394 C53.0278989,27.6946883 52.5416989,28.1781915 51.9474468,28.1781915 C51.3531947,28.1781915 50.8669947,27.6946883 50.8669947,27.0977394 C50.8669947,26.5007904 51.3531947,26.0172872 51.9474468,26.0172872 Z M42.2237234,19.5345745 C42.8179755,19.5345745 43.3041755,20.0180777 43.3041755,20.6150266 C43.3041755,21.2119755 42.8179755,21.6954787 42.2237234,21.6954787 C41.6294713,21.6954787 41.1432713,21.2119755 41.1432713,20.6150266 C41.1432713,20.0180777 41.6294713,19.5345745 42.2237234,19.5345745 Z M28.7182447,12.4578723 C27.7215319,11.46925 26.370984,10.891234 24.9366277,10.891234 C23.5022713,10.891234 22.1490957,11.4692777 21.1550106,12.4578723 C20.8254745,12.131033 20.452734,11.8474186 20.0475213,11.6150851 C21.6304096,6.13987234 26.7355372,2.24747872 32.4998617,2.24747872 C38.2641862,2.24747872 43.369383,6.13980319 44.9521952,11.6150851 C44.5470239,11.847384 44.1769734,12.1309984 43.8447059,12.4578723 C42.8506899,11.46925 41.4974452,10.891234 40.0630888,10.891234 C38.6287324,10.891234 37.2782537,11.4692777 36.2814718,12.4578723 C35.284759,11.46925 33.9342112,10.891234 32.4998548,10.891234 C31.0654984,10.891234 29.7150197,11.4692777 28.7182378,12.4578723 L28.7182447,12.4578723 Z M13.0518617,28.1781915 C12.4576096,28.1781915 11.9714096,27.6946883 11.9714096,27.0977394 C11.9714096,26.5007904 12.4576096,26.0172872 13.0518617,26.0172872 C13.6461138,26.0172872 14.1323138,26.5007904 14.1323138,27.0977394 C14.1323138,27.6946883 13.6461138,28.1781915 13.0518617,28.1781915 Z M22.7755851,21.6954787 C22.181333,21.6954787 21.695133,21.2119755 21.695133,20.6150266 C21.695133,20.0180777 22.181333,19.5345745 22.7755851,19.5345745 C23.3698372,19.5345745 23.8560372,20.0180777 23.8560372,20.6150266 C23.8560372,21.2119755 23.3698372,21.6954787 22.7755851,21.6954787 Z M32.4993085,28.1781915 C31.9050564,28.1781915 31.4188564,27.6946883 31.4188564,27.0977394 C31.4188564,26.5007904 31.9050564,26.0172872 32.4993085,26.0172872 C33.0935606,26.0172872 33.5797606,26.5007904 33.5797606,27.0977394 C33.5797606,27.6946883 33.0935606,28.1781915 32.4993085,28.1781915 Z" id="Fill-3"></path>
            </g>
        </g>
    </g>
</svg>