<?xml version="1.0" encoding="UTF-8"?>
<svg width="86px" height="65px" viewBox="0 0 86 65" version="1.1" xmlns="http://www.w3.org/2000/svg" xmlns:xlink="http://www.w3.org/1999/xlink">
    <!-- Generator: Sketch 59 (86127) - https://sketch.com -->
    <title>Group 7</title>
    <desc>Created with Sketch.</desc>
    <g id="Page-1" stroke="none" stroke-width="1" fill="none" fill-rule="evenodd">
        <g id="Final-Version-Copy-2" transform="translate(-1081.000000, -3922.000000)" fill="#8D95A0" stroke="#8D95A0" stroke-width="0.6">
            <g id="Group-7" transform="translate(1082.000000, 3922.000000)">
                <path d="M11.6720879,47.3097857 C9.19466484,47.3097857 7.1768956,45.3038857 7.1768956,42.8410357 C7.1768956,40.3781857 9.19466484,38.3722857 11.6720879,38.3722857 C14.149511,38.3722857 16.1672802,40.3781857 16.1672802,42.8410357 C16.1672802,45.3075071 14.1532473,47.3097857 11.6720879,47.3097857 Z M11.6720879,40.52685 C10.3877473,40.52685 9.34420879,41.56425 9.34420879,42.8410357 C9.34420879,44.1178214 10.3877473,45.1552214 11.6720879,45.1552214 C12.9564286,45.1552214 13.999967,44.1178214 13.999967,42.8410357 C13.999967,41.56425 12.9564286,40.52685 11.6720879,40.52685 Z" id="Fill-1"></path>
                <path d="M82.9824176,43.0411429 L78.4361319,43.0411429 C78.1478885,43.0411429 77.8742352,43.1535836 77.6735511,43.3530871 L71.1934687,49.7950514 L71.1934687,41.3617657 C71.1934687,40.7705257 70.7118456,40.2844371 70.1097654,40.2844371 L64.4141115,40.2844371 L64.4141115,39.4719371 C68.5188643,38.45998 71.5765291,34.76018 71.5765291,30.3639514 C71.5765291,25.9677229 68.5226005,22.2752586 64.4141115,21.2632086 L64.4177544,1.57842286 C64.4177544,0.979930714 63.9361313,0.501094286 63.3340511,0.501094286 L14.1900401,0.501094286 C13.5953016,0.501094286 13.1063368,0.979893571 13.1063368,1.57842286 L13.1063368,32.2788514 L1.08397698,32.2788514 C0.489238516,32.2788514 0.000273681319,32.7649029 0.000273681319,33.35618 L0.000273681319,63.4223943 C0.000273681319,64.0136343 0.489201154,64.4997229 1.08397698,64.4997229 L70.1095879,64.4997229 C70.7116214,64.4997229 71.1932912,64.0136714 71.1932912,63.4223943 L71.1932912,54.9891086 L77.6733736,61.4310729 C77.8740484,61.6305671 78.1513538,61.7430171 78.4359544,61.7430171 L82.9822401,61.7430171 C83.5842736,61.7430171 84.0659434,61.2642179 84.0659434,60.6656886 L84.0659434,44.1185457 C84.0659434,43.5200536 83.5843203,43.0412171 82.9822401,43.0412171 L82.9824176,43.0411429 Z M63.254011,23.2217143 C63.254011,23.2217143 63.261306,23.2289664 63.2649582,23.2217143 C66.7422055,23.7585493 69.4129709,26.7582714 69.4129709,30.3637286 C69.4129709,33.9836714 66.7202456,36.9942857 63.2284269,37.5093643 C62.8745,37.5637786 62.5132874,37.5891657 62.1521027,37.5891657 C58.1421577,37.5891657 54.8839489,34.3464086 54.8839489,30.3637657 C54.8839489,26.3846514 58.145894,23.1419871 62.1521027,23.1419871 C62.4841352,23.1419871 62.8015681,23.1637529 63.1226907,23.207275 C63.1591846,23.2109057 63.2029643,23.2145271 63.254039,23.2217886 L63.254011,23.2217143 Z M54.3621703,37.2626429 L49.4108736,37.2626429 C51.2862912,35.5505429 52.4611593,33.0949357 52.4611593,30.3636357 C52.4611593,29.4531993 52.329811,28.5717714 52.0816951,27.7375429 L53.0887115,27.7375429 C52.8405956,28.5718086 52.7092473,29.4568857 52.7092473,30.3636357 C52.7092473,35.5396786 56.9416868,39.7440643 62.1451813,39.7440643 L62.2473495,39.7440643 L62.2473495,40.28089 L38.2932286,40.2845207 L38.2932286,39.4176157 L40.5481571,39.4176157 C41.3435703,39.6316236 42.1791297,39.747695 43.0292231,39.747695 C43.8830154,39.747695 44.7149319,39.6352543 45.4993604,39.4176157 L54.3620582,39.413985 C54.9567967,39.413985 55.4457615,38.935195 55.4457615,38.3366564 C55.4457615,37.7454164 54.9604863,37.2630421 54.3620582,37.2630421 L54.3621703,37.2626429 Z M15.2731456,2.65478571 L62.2540934,2.65478571 L62.2504412,20.9866429 L62.1482731,20.9866429 C58.7039049,20.9866429 55.6791192,22.8329214 54.0335753,25.5787071 L51.1401192,25.5787071 C49.4945753,22.8329214 46.4770753,20.9866429 43.0290643,20.9866429 C37.822394,20.9866429 33.5931302,25.1941857 33.5931302,30.3633571 C33.5931302,31.0162543 33.6588044,31.6546286 33.7938049,32.2821571 L15.2731456,32.2785357 L15.2731456,2.65478571 Z M36.1292033,62.3442857 L2.16749533,62.3442857 L2.16749533,60.2913071 L9.61087527,52.8917071 L13.4748258,56.7329286 C13.8980698,57.1536829 14.5840291,57.1536829 15.0072544,56.7329286 L26.8614852,44.9484286 L36.1292033,54.1616214 L36.1292033,62.3442857 Z M36.1292967,51.1178571 L27.6240659,42.6663714 C27.200822,42.2419864 26.5148626,42.2419864 26.0916374,42.6663714 L14.2374066,54.4443714 L10.3807418,50.6103929 C9.9574978,50.1896386 9.27153846,50.1896386 8.84831319,50.6103929 L2.16758967,57.2518143 L2.16758967,34.4331 L36.1292967,34.4331 L36.1292967,51.1178571 Z M37.2129066,32.2780714 L36.0198242,32.2780714 C35.848339,31.6578136 35.7607703,31.01215 35.7607703,30.3592714 C35.7607703,26.3801571 39.0227154,23.1374929 43.0289242,23.1374929 C47.0315835,23.1374929 50.2934352,26.38025 50.2934352,30.3592714 C50.2934352,33.6165143 48.1115505,36.3805 45.1269297,37.2800071 C45.0940879,37.2872593 45.0576033,37.2945114 45.0174665,37.3053943 C44.3898956,37.4867536 43.7185544,37.58469 43.0289335,37.58469 C42.3466264,37.58469 41.6752852,37.4867536 41.0367577,37.3053943 C41.0039159,37.2945114 40.9674313,37.2836379 40.9272945,37.2800071 C39.9640857,36.9934593 39.0700912,36.5037771 38.2929484,35.8399786 L38.2929484,33.3516857 C38.2929484,32.7640764 37.8076731,32.2780714 37.2129813,32.2780714 L37.2129066,32.2780714 Z M69.0262489,62.3442857 L38.2936115,62.3442857 L38.2936115,42.4347857 L69.0262489,42.4347857 L69.0262489,62.3442857 Z M81.8986115,59.5875429 L78.8847544,59.5875429 L71.6421005,52.3874929 L78.8847544,45.1946857 L81.8986115,45.1946857 L81.8986115,59.5875429 Z" id="Fill-2"></path>
                <path d="M62.1228571,54.7021429 L42.5952747,54.7021429 C41.9968934,54.7021429 41.5115714,54.2197221 41.5115714,53.6248143 L41.5115714,47.9736214 C41.5115714,47.37876 41.9968467,46.8962929 42.5952747,46.8962929 L62.1191209,46.8962929 C62.7175022,46.8962929 63.2028447,47.3787136 63.2028447,47.9736214 L63.2028447,53.6248143 C63.2064764,54.2196757 62.7212011,54.7021429 62.1228571,54.7021429 Z M43.6787912,52.5475786 L61.0393407,52.5475786 L61.0393407,49.05095 L43.6787912,49.05095 L43.6787912,52.5475786 Z" id="Fill-3"></path>
                <path d="M25.8726923,18.7487857 C25.5844489,18.7487857 25.3107956,18.636345 25.1064687,18.43322 L22.3955291,15.7382271 C21.9722852,15.3174729 21.9722852,14.6355486 22.3955291,14.2148129 C22.8187824,13.7940586 23.5047324,13.7940586 23.9279577,14.2148129 L25.872683,16.1480986 L30.5284412,11.5197271 C30.9516852,11.0989729 31.6376445,11.0989729 32.0608698,11.5197271 C32.4840951,11.9404814 32.4841137,12.6224057 32.0608698,13.0431414 L26.6388973,18.43322 C26.4382225,18.636345 26.160917,18.7487857 25.8726736,18.7487857 L25.8726923,18.7487857 Z" id="Fill-4"></path>
                <path d="M54.3617033,16.0540714 L38.0192857,16.0540714 C37.4209044,16.0540714 36.9355824,15.5716507 36.9355824,14.9767429 C36.9355824,14.381835 37.4208577,13.8994143 38.0192857,13.8994143 L54.357967,13.8994143 C54.9563577,13.8994143 55.4416908,14.381835 55.4416908,14.9767429 C55.4453225,15.5716043 54.9600473,16.0540714 54.3617033,16.0540714 Z" id="Fill-5"></path>
                <path d="M25.8726923,30.4292857 C25.5844489,30.4292857 25.3107956,30.316845 25.1064687,30.11372 L22.3955291,27.4187271 C21.9722852,26.9979729 21.9722852,26.3160486 22.3955291,25.8953129 C22.8187824,25.4745586 23.5047324,25.4745586 23.9279577,25.8953129 L25.872683,27.8285986 L30.5284412,23.2002271 C30.9516852,22.7794729 31.6376445,22.7794729 32.0608698,23.2002271 C32.4840951,23.6209814 32.4841137,24.3029057 32.0608698,24.7236414 L26.6388973,30.11372 C26.4382225,30.316845 26.160917,30.4292857 25.8726736,30.4292857 L25.8726923,30.4292857 Z" id="Fill-6"></path>
            </g>
        </g>
    </g>
</svg>