<?xml version="1.0" encoding="UTF-8"?>
<svg width="65px" height="65px" viewBox="0 0 65 65" version="1.1" xmlns="http://www.w3.org/2000/svg" xmlns:xlink="http://www.w3.org/1999/xlink">
    <!-- Generator: Sketch 59 (86127) - https://sketch.com -->
    <title>Group 29</title>
    <desc>Created with Sketch.</desc>
    <g id="Page-1" stroke="none" stroke-width="1" fill="none" fill-rule="evenodd">
        <g id="Final-Version-Copy" transform="translate(-1142.000000, -3363.000000)">
            <g id="Group-29" transform="translate(1142.000000, 3363.000000)">
                <circle id="Oval-Copy-16" fill="#E8F7F6" cx="32.5" cy="32.5" r="32.5"></circle>
                <path d="M49,28.6168887 C49.0037133,26.037631 47.9460082,23.5686829 46.0691946,21.7804864 C44.2393287,20.0561104 41.8277632,19.0671311 39.3019168,19.0034125 C36.7776148,18.9383653 34.3178316,19.8052124 32.4007966,21.4339936 C30.4824575,19.8237672 28.0292978,18.9768377 25.5158062,19.0564943 C23.0035843,19.1361442 20.609281,20.1370584 18.7996631,21.8654105 C16.9831828,23.6322655 15.9723981,26.0562199 16.0005737,28.5770943 C16.0019141,31.2479707 17.0663367,33.8098289 18.9645638,35.7067717 C18.6012685,36.7435314 18.8854698,37.8944408 19.689818,38.6484263 C20.2568636,39.1886913 21.0143087,39.4887291 21.8025375,39.4847191 C21.9164854,39.4900272 22.0304333,39.4900272 22.1457231,39.4847191 C22.0022818,40.3648162 22.3240184,41.2568755 22.9969951,41.8502563 C23.5640408,42.3905214 24.3214858,42.6905591 25.1083762,42.6865491 C25.2223241,42.693186 25.3376139,42.693186 25.4515618,42.6865491 C25.3094624,43.5666463 25.6298571,44.4587055 26.3028338,45.0520863 C26.8698795,45.5937107 27.6273245,45.8937145 28.4155533,45.8883791 C28.5308431,45.8605027 28.6461329,45.8259894 28.7587389,45.7848357 C28.7533784,45.8817422 28.7533784,45.9799741 28.7587389,46.0782059 C28.7868939,47.2516801 29.5041038,48.3004016 30.5939928,48.7596847 C31.6852202,49.2203271 32.9453636,49.0079219 33.8207272,48.2154096 L35.8007368,46.2547487 C36.0299745,46.0277511 36.2190115,45.7649147 36.3610904,45.4768391 C37.3826167,45.7436616 38.471133,45.4635652 39.2325933,44.7387577 C39.9001923,44.1480276 40.2205905,43.2625951 40.0838653,42.386474 L40.3412545,42.386474 C41.1335329,42.3878027 41.8962973,42.082484 42.4660541,41.5368937 C43.141718,40.9315848 43.4607434,40.0275635 43.3105997,39.1381549 C44.2288959,39.2841774 45.1619147,38.9788586 45.8121142,38.3204509 C46.7062844,37.4761721 46.9489167,36.156672 46.4126891,35.053543 C48.0669469,33.3092529 48.9919351,31.0088614 49,28.6167833 L49,28.6168887 Z M20.619954,37.7073972 C20.314306,37.414027 20.1427201,37.0104696 20.1427201,36.5896555 C20.1427201,36.167516 20.3143129,35.7652908 20.619954,35.4719137 L22.5999636,33.5112525 C23.2662243,32.8793687 24.3172303,32.8793687 24.9834909,33.5112525 C25.2891389,33.8046227 25.4607249,34.2081801 25.4607249,34.6289942 C25.4607249,35.0498083 25.289132,35.4533589 24.9834909,35.7467359 L23.0034813,37.7073972 C22.3372207,38.3379557 21.2862147,38.3379557 20.619954,37.7073972 Z M23.9204391,40.8840457 L23.9204391,40.8827169 C23.614791,40.590672 23.4418667,40.1871146 23.4418667,39.7649752 C23.4418667,39.3441611 23.6148013,38.9406105 23.9204391,38.6485588 L25.9004486,36.6878975 C26.5653708,36.0520377 27.6177153,36.0520377 28.2826375,36.6878975 C28.5882855,36.9799424 28.7612099,37.3834998 28.7612099,37.8043139 C28.7612099,38.2264534 28.5882752,38.630004 28.2826375,38.9220557 L26.3026279,40.8827169 C25.6363673,41.5146007 24.5866997,41.5146007 23.9204391,40.8827169 L23.9204391,40.8840457 Z M29.6032502,44.0606942 L29.6032502,44.0593654 C28.9369896,44.6912492 27.8859835,44.6912492 27.2210613,44.0593654 C26.9154099,43.7659952 26.7424889,43.3624378 26.7424889,42.9416237 C26.7424889,42.5208096 26.9154236,42.117259 27.2210613,41.8238819 L29.2010709,39.8632207 L29.1997325,39.8632207 C29.8659931,39.2313369 30.9169992,39.2313369 31.5832598,39.8632207 C31.8889078,40.1565909 32.0604937,40.5601483 32.0604937,40.9809624 C32.0604937,41.4017765 31.8889009,41.8053271 31.5832598,42.0987041 L29.6032502,44.0606942 Z M34.9493962,45.3682661 L32.9693866,47.3289274 L32.9693866,47.3262733 C32.303126,47.9581564 31.2521199,47.9581564 30.5858593,47.3262733 C30.2668031,47.0169717 30.0858378,46.5935273 30.0844994,46.1501484 C30.0590282,45.7240329 30.2172162,45.3058695 30.5201736,45.0005644 L32.5001832,43.0399031 C33.1919082,42.4199814 34.2509791,42.4372449 34.9225934,43.0783993 C35.2403078,43.3704442 35.4212765,43.7806283 35.4239834,44.2093945 C35.426637,44.639486 35.2496802,45.0510226 34.9359776,45.3470504 L34.9493962,45.3682661 Z M44.8681478,37.4260502 C44.2072408,38.0512733 43.1656381,38.0512733 42.5047312,37.4260502 C42.439042,37.3649858 42.359948,37.3185239 42.2741516,37.2893222 L37.8261224,33.0081174 C37.5606889,32.7890855 37.1705692,32.8089962 36.9306138,33.0545793 C36.6893131,33.2988336 36.679927,33.6864631 36.9091647,33.9426625 L41.5287867,38.4002401 L41.5287867,38.3989113 C41.8371184,38.6909563 42.0127471,39.0945137 42.0127471,39.5166531 C42.0127471,39.9401179 41.8371321,40.3436685 41.5287867,40.6343948 C40.9402919,41.190598 40.0367185,41.2582926 39.3704578,40.797674 C39.3248793,40.7459039 39.2846614,40.6861683 39.2323805,40.6343948 L34.6127585,36.1768172 L34.6114201,36.178146 C34.4907698,36.0414179 34.3164932,35.9617681 34.1328477,35.9564599 C33.9491885,35.9524771 33.7722282,36.0241613 33.6435336,36.1542524 C33.5161809,36.2856723 33.4491498,36.4622252 33.458536,36.6440864 C33.4679187,36.8259509 33.5537151,36.9958806 33.6944761,37.1126809 L38.1222573,41.3738355 L38.1222573,41.3725067 C38.1571113,41.446845 38.2040316,41.5132176 38.2616765,41.5689739 C38.3273657,41.6340211 38.3997538,41.6804796 38.4734872,41.732253 L38.4721454,41.732253 C38.6893167,42.0017297 38.8086286,42.3362366 38.8086286,42.6800787 C38.8072902,43.1154716 38.6209507,43.5309843 38.2938501,43.8243613 C37.8796251,44.2132992 37.2937728,44.3712871 36.7374346,44.2425247 C36.7401149,43.4659404 36.4224005,42.7225577 35.8593598,42.183618 C35.1904223,41.5583949 34.2774799,41.2570318 33.3645717,41.3605786 C33.5173957,40.4645434 33.1902986,39.5538953 32.4999155,38.9552131 C31.8470734,38.3366167 30.948888,38.0392636 30.0520409,38.1441358 C30.1941404,37.2640387 29.8724038,36.3719794 29.1994305,35.7785986 C28.5479269,35.1600022 27.648403,34.8626492 26.7515559,34.9688467 C26.8936554,34.0873902 26.5732607,33.1953309 25.9002839,32.6033095 C24.7205833,31.4855677 22.8625418,31.4855677 21.6828755,32.6033095 L19.7028659,34.5639707 C18.1773034,32.9351555 17.3260314,30.7979515 17.3206777,28.5771487 C17.2938664,26.4080684 18.161208,24.3214314 19.7229766,22.8000031 C21.2780194,21.3172137 23.3277986,20.4490447 25.4847204,20.361436 C27.6430493,20.2738238 29.7584113,20.9720803 31.4300686,22.3234226 L27.4045009,26.2447451 C26.7945571,26.7518426 26.4312607,27.4938999 26.4098116,28.2824123 C26.3870241,29.0722501 26.7060769,29.8328963 27.286548,30.3744867 C28.460895,31.4909031 30.3162252,31.4909031 31.4905722,30.3744867 L35.8006407,26.224797 L40.4202627,30.7992768 L44.8885399,35.1905871 C45.1941879,35.4852861 45.3657738,35.8901655 45.3618275,36.3123049 C45.3590783,36.7344443 45.1794412,37.1379949 44.8684292,37.4260366 L44.8681478,37.4260502 Z M45.593402,34.0209326 L41.3437341,29.8647861 L36.2614979,24.8723128 C36.2306661,24.8470905 36.1971506,24.825851 36.1622966,24.8059402 C36.1261008,24.776735 36.0858829,24.7501874 36.0443266,24.7276191 C36.0067889,24.724965 35.9692547,24.724965 35.9317205,24.7276191 C35.8512846,24.6970886 35.7614695,24.6970886 35.6810337,24.7276191 C35.6394773,24.7236363 35.5965791,24.7236363 35.5550193,24.7276191 C35.5188235,24.7462045 35.4826278,24.7687694 35.4504541,24.7939917 C35.4129165,24.8139025 35.3767241,24.8377995 35.3445504,24.8656759 L30.5735836,29.4401557 L30.5722452,29.4401557 C29.9099998,30.0746902 28.8589938,30.0746902 28.1967484,29.4401557 C27.8924388,29.1547511 27.7248682,28.7565155 27.7355755,28.3423281 C27.7543409,27.9069353 27.9607911,27.4993746 28.3026212,27.2245864 L32.8765995,22.8135658 C34.5147619,21.2338903 36.7065513,20.3431564 38.9935405,20.3245676 C41.2805639,20.3059822 43.4872133,21.1621857 45.1520069,22.7153543 C46.6815853,24.1808802 47.5811092,26.1748451 47.6642288,28.2801049 C47.7460031,30.386792 47.0046603,32.443048 45.5930348,34.0215681 L45.593402,34.0209326 Z" id="Fill-1" fill="#009F94"></path>
            </g>
        </g>
    </g>
</svg>