<?xml version="1.0" encoding="UTF-8"?>
<svg width="63px" height="75px" viewBox="0 0 63 75" version="1.1" xmlns="http://www.w3.org/2000/svg" xmlns:xlink="http://www.w3.org/1999/xlink">
    <!-- Generator: Sketch 59 (86127) - https://sketch.com -->
    <title>Group 4</title>
    <desc>Created with Sketch.</desc>
    <g id="Page-1" stroke="none" stroke-width="1" fill="none" fill-rule="evenodd">
        <g id="Final-Version-Copy" transform="translate(-987.000000, -2397.000000)">
            <g id="Group-4" transform="translate(987.000000, 2397.000000)">
                <g id="Group-3" transform="translate(19.894737, 18.956044)">
                    <path d="M19.8914964,12.8477535 L19.8914964,8.53279725 C19.8914964,5.57883572 18.3056021,2.847641 15.7323779,1.37019998 C13.1591537,-0.10586026 9.98745787,-0.10586026 7.41404848,1.37019998 C4.84082425,2.84805524 3.25493005,5.57906585 3.25493005,8.53279725 C3.25493005,9.12791602 3.7413734,9.61155933 4.33993759,9.61155933 C4.93850178,9.61155933 5.42494513,9.12791602 5.42494513,8.53279725 C5.42494513,5.15636123 8.1771831,2.4200576 11.5730743,2.4200576 C14.9689655,2.4200576 17.7212035,5.15645328 17.7212035,8.53279725 L17.7212035,10.9419927 C14.5801534,8.83666222 10.5763932,8.46987943 7.10259141,9.971116 C3.62883592,11.4741476 1.16787142,14.6349509 0.57439942,18.3547884 C-0.0187022377,22.0728308 1.33929317,25.8358869 4.17652447,28.3332686 C7.01195037,30.8287631 10.9343281,31.7114996 14.5761723,30.6741151 C18.2163036,29.6367305 21.0733482,26.8230108 22.1491898,23.2128078 C23.2269294,19.6026047 22.3752276,15.6939677 19.8906168,12.8513896 L19.8914964,12.8477535 Z M11.5731669,28.8524441 C9.22057354,28.8524441 6.96380599,27.922945 5.30004752,26.2688554 C3.63823333,24.6129708 2.70330662,22.3691935 2.70510942,20.030004 C2.70691745,17.6908144 3.64179787,15.4489702 5.30726917,13.7966757 C6.97274048,12.1425861 9.22950802,11.216677 11.5822403,11.2184694 C13.9349725,11.2202671 16.1916012,12.1533562 17.8516562,13.8092408 C19.5134704,15.4651254 20.4447863,17.7106977 20.441186,20.0499333 C20.4339446,22.3853948 19.4972217,24.6219919 17.8354075,26.2726756 C16.1735933,27.9213341 13.922242,28.8490842 11.5733984,28.8526742 L11.5731669,28.8524441 Z" id="Fill-1" stroke="#F17B3D" fill="#F17B3D"></path>
                    <path d="M14.6798678,17.6805045 L10.4122394,21.9271579 L8.46651228,19.9926307 C8.03975406,19.5970907 7.37247766,19.6078793 6.96019516,20.0195974 C6.54609336,20.429516 6.53524236,21.0929284 6.93306766,21.5172486 L9.64554023,24.2141031 C10.068683,24.6348102 10.7558236,24.6348102 11.1789848,24.2141031 L16.2170159,19.2050718 C16.6148458,18.78077 16.6039948,18.1173346 16.189893,17.7074253 C15.7776012,17.2957071 15.110348,17.2849185 14.6835759,17.6804585 L14.6798678,17.6805045 Z" id="Fill-2" stroke="#FFB843" fill="#FFB843"></path>
                </g>
                <path d="M0.398003943,16.0876648 C0.647334732,12.1277473 6.37222763,18.3154945 12.3464513,12.1277473 C18.5700224,5.94 12.3464513,2.27373675e-13 16.5786421,2.27373675e-13 L46.4497605,2.27373675e-13 C50.4326039,2.27373675e-13 44.2090329,5.93983516 50.4326039,12.1277473 C56.656175,18.0675824 62.1315382,12.3756429 62.3810513,16.0876648 C64.1231671,42.8189835 61.1376303,65.0939835 32.0109066,74.2497527 L31.0136,74.2497527 C1.64067894,65.0939835 -1.34767632,42.8181593 0.393942101,16.0876648 L0.398003943,16.0876648 Z M59.1463329,18.3154945 C50.4324382,19.3070604 43.2147934,11.8798352 44.2087013,3.21989011 L18.5693592,3.21989011 C19.8127803,11.8836264 12.3457882,19.3078022 3.63172763,18.3154945 C2.13895921,42.570989 5.12449605,62.6182418 31.5117145,70.785825 C57.6492539,62.6180769 60.6384382,42.570989 59.1421882,18.3154945 L59.1463329,18.3154945 Z" id="Fill-1" fill="#8D95A0"></path>
            </g>
        </g>
    </g>
</svg>