<?xml version="1.0" encoding="UTF-8"?>
<svg width="66px" height="65px" viewBox="0 0 66 65" version="1.1" xmlns="http://www.w3.org/2000/svg" xmlns:xlink="http://www.w3.org/1999/xlink">
    <!-- Generator: Sketch 59 (86127) - https://sketch.com -->
    <title>Group 15</title>
    <desc>Created with Sketch.</desc>
    <g id="Page-1" stroke="none" stroke-width="1" fill="none" fill-rule="evenodd">
        <g id="Final-Version-Copy-2" transform="translate(-1376.000000, -3922.000000)" fill="#F17B3D" stroke="#F17B3D" stroke-width="0.5">
            <g id="Group-15" transform="translate(1376.000000, 3922.000000)">
                <path d="M59.0442757,16.2811735 C58.7104711,16.2811735 58.3818468,16.1205372 58.1825882,15.8199985 C52.6166618,7.44627398 43.2858869,2.44591684 33.222267,2.44591684 C23.9018923,2.44591684 15.2770679,6.66129949 9.56096889,14.0119372 C9.20905353,14.4653388 8.55957511,14.5456602 8.10932218,14.1933005 C7.65907588,13.8409408 7.57627226,13.1906423 7.92818762,12.7398209 C14.0375707,4.88145357 23.2574549,0.373239286 33.222373,0.373239286 C43.9815433,0.373239286 53.9570602,5.71822908 59.9056717,14.669923 C60.2213588,15.1466449 60.0919799,15.7891832 59.6184492,16.1078821 C59.4424948,16.2244709 59.2406594,16.2814719 59.0439975,16.2814719 L59.0442757,16.2811735 Z" id="Fill-1"></path>
                <path d="M60.2445969,17.0246939 L55.3281158,17.0246939 C54.7562541,17.0246939 54.2930706,16.5609255 54.2930706,15.9883418 C54.2930706,15.4157582 54.7562541,14.9519898 55.3281158,14.9519898 L59.2018013,14.9519898 L59.1733367,11.4128724 C59.1681631,10.8402888 59.6287566,10.3713469 60.2006314,10.3687602 L60.2083951,10.3687602 C60.7776733,10.3687602 61.2382733,10.8273485 61.2434403,11.397352 L61.2797135,15.980648 C61.282252,16.257873 61.1735739,16.5221444 60.9795087,16.7190612 C60.7854369,16.9133781 60.5214988,17.0247867 60.2446101,17.0247867 L60.2445969,17.0246939 Z" id="Fill-2"></path>
                <path d="M42.4345333,62.7641313 C41.9946407,62.7641313 41.5831797,62.4791329 41.4460569,62.0334783 C41.2752761,61.4868017 41.5806094,60.9064579 42.1291536,60.7380548 C54.6974172,56.836199 63.140736,45.3947398 63.140736,32.2640765 C63.140736,28.5746633 62.4731402,24.9787704 61.1586163,21.5715765 C60.9516072,21.0378536 61.2181289,20.4367959 61.7511788,20.2321122 C62.2842287,20.0274286 62.8845284,20.2917 63.088954,20.825423 C64.4966154,24.4733821 65.21078,28.3209842 65.21078,32.2667495 C65.21078,46.3094026 56.1798867,58.5486372 42.7425164,62.7199121 C42.6390118,62.7484119 42.5355073,62.7641313 42.4345929,62.7641313 L42.4345333,62.7641313 Z" id="Fill-3"></path>
                <path d="M45.3916159,64.7147959 C45.2518832,64.7147959 45.1069768,64.6862967 44.9724243,64.6241143 L40.775341,62.7535071 C40.4984656,62.6291449 40.2888664,62.3907806 40.2034794,62.100602 C40.1180923,61.8104235 40.1620776,61.4969245 40.3276848,61.243 L42.8195436,57.3929439 C43.1300571,56.9110418 43.7692017,56.7763128 44.2505225,57.0872184 C44.7318169,57.398124 44.866376,58.0406622 44.5558625,58.5200041 L42.7238491,61.354402 L45.8160672,62.7327337 C46.3387634,62.9659112 46.5716337,63.5773357 46.3413535,64.1007184 C46.1653991,64.4867587 45.7876027,64.7147959 45.3916954,64.7147959 L45.3916159,64.7147959 Z" id="Fill-4"></path>
                <path d="M33.2221345,64.1530102 C15.5823152,64.1530102 1.231456,49.8490306 1.231456,32.2645408 C1.231456,28.3471633 3.08937035,23.5412755 4.44787955,20.0306122 L4.63418768,19.5512969 C4.84119671,19.017574 5.44155603,18.7559092 5.97196286,18.9579862 C6.50501277,19.1652566 6.76893041,19.7637209 6.56452539,20.2974505 L6.37821726,20.7793526 C5.07926041,24.1371332 3.30156687,28.7358832 3.30156687,32.2644546 C3.30156687,48.7061383 16.7237,62.0802199 33.2221544,62.0802199 C33.6361724,62.0802199 34.0501905,62.0724478 34.4616251,62.0543114 C35.0490141,62.0465386 35.5147546,62.4766257 35.5380721,63.0466227 C35.5613631,63.6192063 35.1162903,64.1010818 34.5470122,64.1244288 C34.1045295,64.1451558 33.6646569,64.1530102 33.2221544,64.1530102 L33.2221345,64.1530102 Z" id="Fill-5"></path>
                <path d="M7.54572767,25.3155102 C7.14982041,25.3155102 6.77201071,25.0875128 6.60123653,24.7014724 L5.09527066,21.3385184 L1.96681766,22.9241204 C1.45446865,23.1832051 0.83346805,22.9759347 0.574656877,22.4681255 C0.315892274,21.957723 0.522903957,21.3333449 1.03007695,21.0742071 L5.1288558,19.0015031 C5.38244021,18.8745474 5.67484296,18.8538204 5.9413911,18.9496821 C6.21050284,19.0429571 6.42786564,19.2424541 6.5417173,19.5015388 L8.49018568,23.8542173 C8.72306919,24.3775735 8.49018568,24.988998 7.96748953,25.222202 C7.83034687,25.2869765 7.68802402,25.3155102 7.5457078,25.3155102 L7.54572767,25.3155102 Z" id="Fill-6"></path>
                <path d="M36.9482971,31.7670918 C36.7464616,31.7670918 36.5420427,31.7075041 36.3686718,31.5909153 L33.1212466,29.3912622 L29.8738213,31.5883286 C29.5555441,31.8033724 29.1466731,31.8240995 28.8077083,31.6453296 C28.4687301,31.4639663 28.2591376,31.1142 28.2591376,30.7307531 L28.2591376,16.9759571 C28.2591376,16.4033735 28.7223212,15.9396051 29.2941828,15.9396051 L36.9485488,15.9396051 C37.5204104,15.9396051 37.983594,16.4033735 37.983594,16.9759571 L37.983594,30.7281 C37.983594,31.1115469 37.7714114,31.4639265 37.4350234,31.6426765 C37.2823534,31.7255847 37.114156,31.7670918 36.9485488,31.7670918 L36.9482971,31.7670918 Z M33.1212466,27.1035408 C33.323082,27.1035408 33.5249175,27.1631286 33.7008719,27.2797173 L35.9132519,28.7772378 L35.9132519,18.0124418 L30.329175,18.0124418 L30.329175,28.7798908 L32.541555,27.2823704 C32.7175094,27.1631883 32.9193449,27.1036005 33.1211803,27.1036005 L33.1212466,27.1035408 Z" id="Fill-7"></path>
                <path d="M49.1800468,49.0610714 L17.0628438,49.0610714 C16.4909821,49.0610714 16.0277986,48.5973031 16.0277986,48.0247194 L16.0277986,23.8520153 C16.0277986,23.2794316 16.4909821,22.8156633 17.0628438,22.8156633 C17.6347054,22.8156633 18.0978889,23.2794316 18.0978889,23.8520153 L18.0978889,46.988699 L48.1450017,46.988699 L48.1450017,23.8520153 C48.1450017,23.2794316 48.6081852,22.8156633 49.1800468,22.8156633 C49.7519085,22.8156633 50.215092,23.2794316 50.215092,23.8520153 L50.215092,48.0247194 C50.215092,48.5973031 49.7519085,49.0610714 49.1800468,49.0610714 Z" id="Fill-8"></path>
                <path d="M49.1800468,24.8877041 L36.9482971,24.8877041 C36.3764355,24.8877041 35.9132519,24.4239357 35.9132519,23.851352 L35.9132519,16.9752806 C35.9132519,16.4026969 36.3764355,15.9389286 36.9482971,15.9389286 L49.1800468,15.9389286 C49.7519085,15.9389286 50.215092,16.4026969 50.215092,16.9752806 L50.215092,23.851352 C50.215092,24.4239357 49.7519085,24.8877041 49.1800468,24.8877041 Z M37.9836735,22.815 L48.1453329,22.815 L48.1453329,18.0115 L37.9836735,18.0115 L37.9836735,22.815 Z" id="Fill-9"></path>
                <path d="M29.2945935,24.8877041 L17.0628438,24.8877041 C16.4909821,24.8877041 16.0277986,24.4239357 16.0277986,23.851352 L16.0277986,16.9752806 C16.0277986,16.4026969 16.4909821,15.9389286 17.0628438,15.9389286 L29.2945935,15.9389286 C29.8664551,15.9389286 30.3296387,16.4026969 30.3296387,16.9752806 L30.3296387,23.851352 C30.3296387,24.4239357 29.8664551,24.8877041 29.2945935,24.8877041 Z M18.0982201,22.815 L28.2598796,22.815 L28.2598796,18.0115 L18.0982201,18.0115 L18.0982201,22.815 Z" id="Fill-10"></path>
                <path d="M29.3800468,44.1847449 C28.8081852,44.1847449 28.3450017,43.7209765 28.3450017,43.1483929 L28.3450017,36.2981888 C28.3450017,35.7256051 28.8081852,35.2618367 29.3800468,35.2618367 C29.9519085,35.2618367 30.415092,35.7256051 30.415092,36.2981888 L30.415092,43.1483929 C30.415092,43.7209765 29.9519085,44.1847449 29.3800468,44.1847449 Z" id="Fill-11"></path>
                <path d="M31.8661425,39.3449378 C31.5763299,39.3449378 31.2891073,39.2257158 31.0846751,38.9899449 L29.4079351,37.0597102 L27.6535584,38.956251 C27.2654148,39.3759719 26.6107628,39.4018857 26.1889943,39.013252 C25.7698027,38.6246184 25.7439216,37.9691398 26.1320652,37.5468388 L28.6679093,34.8031092 C28.8671546,34.5880653 29.1906054,34.4637031 29.4442097,34.4714765 C29.7391959,34.4766566 30.0160713,34.606199 30.21011,34.8264296 L32.6450662,37.6272 C33.0202725,38.0598745 32.9762806,38.7127663 32.5441518,39.0884398 C32.35008,39.2620296 32.1068427,39.3449378 31.866222,39.3449378 L31.8661425,39.3449378 Z" id="Fill-12"></path>
                <path d="M37.1788223,43.3947959 C36.6069607,43.3947959 36.1437772,42.9310276 36.1437772,42.3584439 L36.1437772,35.5082398 C36.1437772,34.9356561 36.6069607,34.4718878 37.1788223,34.4718878 C37.750684,34.4718878 38.2138675,34.9356561 38.2138675,35.5082398 L38.2138675,42.3584439 C38.2138675,42.9310276 37.750684,43.3947959 37.1788223,43.3947959 Z" id="Fill-13"></path>
                <path d="M37.1271529,44.1847449 C36.8269931,44.1847449 36.542354,44.0552026 36.3456855,43.8272051 L33.9107293,41.0264347 C33.535523,40.5937602 33.5795149,39.9408684 34.0116438,39.5651949 C34.4411892,39.1895148 35.0958412,39.2335622 35.4710409,39.6662367 L37.0960452,41.5368439 L38.5399415,39.7517316 C38.8996205,39.3060969 39.5516692,39.2387357 39.9967552,39.5988689 C40.4418412,39.959002 40.5091042,40.611874 40.1494252,41.0575219 L37.9292284,43.8012515 C37.7377467,44.0396158 37.4479341,44.1795184 37.1425941,44.1847449 L37.1270668,44.1847449 L37.1271529,44.1847449 Z" id="Fill-14"></path>
            </g>
        </g>
    </g>
</svg>