<?xml version="1.0" encoding="UTF-8"?>
<svg width="80px" height="80px" viewBox="0 0 80 80" version="1.1" xmlns="http://www.w3.org/2000/svg" xmlns:xlink="http://www.w3.org/1999/xlink">
    <!-- Generator: Sketch 59 (86127) - https://sketch.com -->
    <title>Group 14</title>
    <desc>Created with Sketch.</desc>
    <g id="Page-1" stroke="none" stroke-width="1" fill="none" fill-rule="evenodd">
        <g id="Final-Version-Copy-2" transform="translate(-265.000000, -2108.000000)">
            <g id="Group-14" transform="translate(265.000000, 2108.000000)">
                <path d="M61.2765957,61.2765957 L58.6170213,61.2765957 L58.6170213,66.5957447 L34.6808511,66.5957447 L34.6808511,69.2553191 L58.6170213,69.2553191 L58.6170213,73.2446809 C58.6170213,75.448766 56.8317447,77.2340426 54.6276596,77.2340426 L25.3723404,77.2340426 C23.9461277,77.2307183 22.629617,76.4727404 21.9148936,75.2393191 L19.6110638,76.5691064 C20.8045106,78.6236596 22.9987234,79.8902128 25.3723404,79.8935319 L54.6276596,79.8935319 C58.2978723,79.8902077 61.2732766,76.9148085 61.2765957,73.2445957 L61.2765957,61.2765957 Z" id="Fill-1" fill="#8D95A0"></path>
                <polygon id="Fill-2" fill="#003E7C" points="38.6706383 71.9148936 41.3302128 71.9148936 41.3302128 74.5744681 38.6706383 74.5744681"></polygon>
                <path d="M46.6485106,36.0102128 L46.6485106,33.3506383 L42.5926809,33.3506383 C42.2702043,29.241617 40.4949787,25.3851915 37.5794043,22.4731915 C34.6671489,19.557617 30.8108085,17.782383 26.7019574,17.4599149 L26.7019574,13.4040851 L24.042383,13.4040851 L24.042383,17.4599149 C23.144766,17.5297277 22.2571064,17.6693532 21.3828085,17.8754723 L21.3828085,10.7444936 L42.6594043,10.7444936 L42.6594043,8.08491915 L21.3828085,8.08491915 L21.3828085,6.75513191 C21.3828085,4.55104681 23.1680851,2.76577021 25.3721702,2.76577021 L54.6274894,2.76577021 C55.5982128,2.76577021 56.5357447,3.12148936 57.2671489,3.76313191 L59.0257872,1.76840851 C57.8123404,0.697940426 56.2465532,0.106195745 54.6274894,0.106195745 L25.3721702,0.106195745 C21.7019574,0.109523404 18.7265532,3.08491915 18.723234,6.75513191 L18.723234,18.7227915 C15.7877447,19.952834 13.2445106,21.9707915 11.3794894,24.5506213 C9.51446809,27.1304511 8.39744681,30.1756426 8.15140426,33.3506213 L4.09557447,33.3506213 L4.09557447,36.0101957 L8.1547234,36.0101957 C8.46057872,40.1225362 10.2291915,43.9922383 13.144766,46.9114723 C16.0603404,49.8270468 19.9300426,51.6022809 24.0426383,51.9081532 L24.0426383,55.9573447 L26.7022128,55.9573447 L26.7022128,51.9081532 C30.8145532,51.6022979 34.6842553,49.8270468 37.6000851,46.9114723 C40.5156596,43.9925787 42.2842553,40.1228766 42.5901277,36.0101957 L46.6485106,36.0102128 Z M24.0425532,46.6485106 L24.0425532,49.2482553 C22.1874894,49.0787064 20.3822979,48.5600936 18.7234043,47.7123404 L18.7234043,45.3187234 C18.7234043,41.6451915 21.6988085,38.6697872 25.3723404,38.6697872 C29.0458723,38.6697872 32.0212766,41.6451915 32.0212766,45.3187234 L32.0212766,47.7123404 C30.362383,48.5600766 28.5571915,49.0820426 26.7021277,49.2515745 L26.7021277,46.6485106 L24.0425532,46.6485106 Z M21.3829787,32.0204255 C21.3829787,30.4080851 22.3537021,28.9519149 23.846383,28.333617 C25.3357447,27.7185872 27.0511489,28.0576851 28.1948085,29.1979574 C29.3350638,30.341617 29.6742128,32.0570213 29.0591489,33.546383 C28.4408,35.0390638 26.9846809,36.0097872 25.3723404,36.0097872 C23.1682553,36.0097872 21.3829787,34.2245106 21.3829787,32.0204255 Z M35.1234043,45.5846809 C34.9804511,45.7176596 34.8275234,45.8240426 34.6812511,45.9470468 L34.6812511,45.3187234 C34.6779234,41.8446809 32.7398043,38.6631489 29.6546979,37.0640851 C31.7923149,35.2655319 32.5769106,32.3234043 31.6194638,29.6971064 C30.662017,27.0741277 28.1653362,25.328766 25.3728255,25.328766 C22.5803149,25.328766 20.083634,27.0741277 19.1261872,29.6971064 C18.1687404,32.3234043 18.9533191,35.265617 21.0909532,37.0640851 C18.0058468,38.6631489 16.0677191,41.8446809 16.0644,45.3187234 L16.0644,45.9536936 C15.9181191,45.834017 15.7652,45.7209787 15.6222468,45.5913277 C12.8662468,43.1212851 11.1475234,39.6970298 10.8150979,36.0100511 L13.4048851,36.0100511 L13.4048851,33.3504766 L10.8117787,33.3504766 C11.1276,29.9495404 12.6236085,26.7613702 15.0405447,24.3479234 C17.4540766,21.9310723 20.6422468,20.4349872 24.0430979,20.1191574 L24.0430979,22.7122638 L26.7026723,22.7122638 L26.7026723,20.1191574 C30.1036085,20.4349787 33.2917787,21.9309872 35.7052255,24.3479234 C38.1220766,26.7614553 39.6181617,29.9496255 39.9339915,33.3504766 L37.3408851,33.3504766 L37.3408851,36.0100511 L39.9306723,36.0100511 C39.5982298,39.6968596 37.8794383,43.1211149 35.1235234,45.5913277 L35.1234043,45.5846809 Z" id="Fill-3" fill="#FFB843"></path>
                <path d="M75.9046809,24.0425532 C76.2570723,24.0425532 76.5961702,23.9029277 76.8455319,23.6535915 C77.0948936,23.4042553 77.2344936,23.0651574 77.2344936,22.7127404 L77.2344936,6.75529362 C77.2344936,6.40290213 77.0948681,6.06380426 76.8455319,5.81444255 C76.5961957,5.56508085 76.2570979,5.42548085 75.9046809,5.42548085 L46.6493617,5.42548085 C45.9146553,5.42548085 45.3195745,6.0205617 45.3195745,6.75526809 L45.3195745,22.7127149 C45.3195745,23.0651064 45.4592,23.4042043 45.7085362,23.653566 C45.9578723,23.9029277 46.2969702,24.0425532 46.6493872,24.0425532 L75.9046809,24.0425532 Z M47.9795745,8.08510638 L74.5753191,8.08510638 L74.5753191,21.3829787 L47.9795745,21.3829787 L47.9795745,8.08510638 Z" id="Fill-4" fill="#8D95A0"></path>
                <polygon id="Fill-5" fill="#8D95A0" points="50.6382979 10.7446809 55.9574468 10.7446809 55.9574468 13.4042553 50.6382979 13.4042553"></polygon>
                <polygon id="Fill-6" fill="#8D95A0" points="58.6170213 10.7446809 71.9148936 10.7446809 71.9148936 13.4042553 58.6170213 13.4042553"></polygon>
                <polygon id="Fill-7" fill="#003E7C" points="50.6382979 16.0638298 71.9148936 16.0638298 71.9148936 18.7234043 50.6382979 18.7234043"></polygon>
                <path d="M75.6680851,26.7021277 C74.6408511,26.7054553 73.6468085,27.0811149 72.8755745,27.7659574 L61.2764255,37.9923404 L61.2764255,26.7021277 L58.6168511,26.7021277 L58.6168511,40 L59.0024851,40 L51.436017,46.6755745 C46.5158468,46.9581532 42.6658043,51.0273191 42.6598468,55.9572766 L42.6598468,58.3043404 C42.6665021,59.6241702 41.9184936,60.8309787 40.7349957,61.416 C40.1831319,61.6919319 39.8939064,62.3102979 40.0335319,62.912 C40.1764851,63.5137277 40.7117277,63.9359149 41.3300426,63.9359149 L50.6389787,63.9359149 C55.5691915,63.9292681 59.6381277,60.0795745 59.9206809,55.1597447 L78.8372766,33.7205957 C79.9377021,32.4772766 80.2036596,30.7019574 79.5187915,29.1893617 C78.8372766,27.676766 77.3313021,26.7026383 75.6690894,26.7026383 L75.6680851,26.7021277 Z M50.6382979,61.2765957 L44.5578723,61.2765957 C45.0598638,60.3657021 45.3225021,59.3417872 45.3191745,58.3045106 L45.3191745,55.9574468 C45.3225021,52.4933617 47.9820681,49.6110638 51.4361957,49.3284255 L57.2673447,55.1595745 C56.984766,58.6137021 54.1024085,61.2732766 50.6383234,61.2765957 L50.6382979,61.2765957 Z M76.8417021,31.9617021 L58.5574468,52.6868085 L53.9098723,48.039234 L74.6349787,29.7549787 C75.2533277,29.2097617 76.1908085,29.2396851 76.7725957,29.8247915 C77.3577021,30.4065702 77.3876255,31.3441106 76.8424085,31.9624085 L76.8417021,31.9617021 Z" id="Fill-8" fill="#F17B3D"></path>
                <path d="M1.43617021,73.2442553 L30.6914894,73.2442553 C31.0438809,73.2442553 31.3829787,73.1046298 31.6323404,72.8552936 C31.8817021,72.6059574 32.0213021,72.2668596 32.0213021,71.9144426 L32.0213021,61.2761447 C32.0213021,60.9237532 31.8816766,60.5846553 31.6323404,60.3352936 C31.3830043,60.0859319 31.0439064,59.9463319 30.6914894,59.9463319 L21.3825532,59.9463319 L21.3825532,53.2973957 L18.7229787,53.2973957 L18.7229787,59.9463319 L1.43617021,59.9463319 C0.70146383,59.9463319 0.106382979,60.5414128 0.106382979,61.2761191 L0.106382979,71.914417 C0.106382979,72.2668085 0.246008511,72.6059064 0.495344681,72.8552681 C0.744680851,73.1046298 1.08377872,73.2442553 1.43619574,73.2442553 L1.43617021,73.2442553 Z M2.76595745,62.6059574 L29.3617021,62.6059574 L29.3617021,70.5846809 L2.76595745,70.5846809 L2.76595745,62.6059574 Z" id="Fill-9" fill="#8D95A0"></path>
                <polygon id="Fill-10" fill="#8D95A0" points="5.42553191 65.266383 12.0744681 65.266383 12.0744681 67.9259574 5.42553191 67.9259574"></polygon>
                <polygon id="Fill-11" fill="#003E7C" points="14.733617 65.266383 26.7012766 65.266383 26.7012766 67.9259574 14.733617 67.9259574"></polygon>
                <path d="M1.43617021,18.7234043 L14.7340426,18.7234043 C15.086434,18.7234043 15.4255319,18.5837787 15.6748936,18.3344426 C15.9242553,18.0851064 16.0638553,17.7460085 16.0638553,17.3935915 L16.0638553,6.75529362 C16.0638553,6.40290213 15.9242298,6.06380426 15.6748936,5.81444255 C15.4255574,5.56508085 15.0864596,5.42548085 14.7340426,5.42548085 L1.43617021,5.42548085 C0.70146383,5.42548085 0.106382979,6.0205617 0.106382979,6.75526809 L0.106382979,17.393566 C0.106382979,17.7459574 0.246008511,18.0850553 0.495344681,18.334417 C0.744680851,18.5837787 1.08377872,18.7234043 1.43619574,18.7234043 L1.43617021,18.7234043 Z M2.76595745,8.08510638 L13.4042553,8.08510638 L13.4042553,16.0638298 L2.76595745,16.0638298 L2.76595745,8.08510638 Z" id="Fill-12" fill="#8D95A0"></path>
                <polygon id="Fill-13" fill="#8D95A0" points="5.42553191 10.7446809 10.7446809 10.7446809 10.7446809 13.4042553 5.42553191 13.4042553"></polygon>
            </g>
        </g>
    </g>
</svg>