<?xml version="1.0" encoding="UTF-8"?>
<svg width="618px" height="562px" viewBox="0 0 618 562" version="1.1" xmlns="http://www.w3.org/2000/svg" xmlns:xlink="http://www.w3.org/1999/xlink">
    <!-- Generator: Sketch 59 (86127) - https://sketch.com -->
    <title>Group 5</title>
    <desc>Created with Sketch.</desc>
    <g id="Page-1" stroke="none" stroke-width="1" fill="none" fill-rule="evenodd">
        <g id="Final-Version-Copy" transform="translate(-120.000000, -2935.000000)">
            <g id="Group-5" transform="translate(120.000000, 2935.000000)">
                <path d="M589.308642,432.012266 C530.690657,558.312841 322.391767,596.787612 160.528935,528.810984 C152.809694,525.548106 145.33168,521.877368 137.974278,517.662817 C-7.60577966,434.323471 -63.4496627,173.021313 97.4482638,42.7780932 C266.427271,-94.1268357 318.049694,134.818448 427.566423,209.456785 C471.469606,239.366502 556.381255,235.96767 596.304204,274.306488 C623.200934,300.27356 629.59343,345.138135 589.308642,432.012266 Z" id="Path" fill="#ECFAF9" fill-rule="nonzero" opacity="0.800000012"></path>
                <g id="Group-7" transform="translate(21.000000, 35.000000)">
                    <circle id="Oval" fill="#F7A54D" opacity="0.300000012" cx="290" cy="102" r="14"></circle>
                    <circle id="Oval-Copy-5" fill="#FF9698" cx="499" cy="206" r="10"></circle>
                    <circle id="Oval-Copy-6" fill="#FFDA36" cx="488.5" cy="398.5" r="6.5"></circle>
                    <polygon id="Triangle" stroke="#A98DCC" stroke-width="3" transform="translate(452.000000, 131.000000) rotate(90.000000) translate(-452.000000, -131.000000) " points="452 124 459 138 445 138"></polygon>
                    <polygon id="Triangle-Copy" stroke="#89CD80" stroke-width="3" transform="translate(49.000000, 412.000000) rotate(90.000000) translate(-49.000000, -412.000000) " points="49 405 56 419 42 419"></polygon>
                    <circle id="Oval-Copy-7" fill="#B98CCD" cx="56" cy="5" r="5"></circle>
                    <circle id="Oval-Copy" fill="#8096F1" opacity="0.5" cx="87.5" cy="289.5" r="7.5"></circle>
                    <circle id="Oval-Copy-4" fill="#20B48F" cx="5" cy="162" r="5"></circle>
                </g>
                <g id="Group-158" transform="translate(136.000000, 66.000000)">
                    <path d="M72.6721291,393.983458 C72.6721291,393.983458 -12.3456444,394.272511 2.72287102,409.320487 C17.7932703,424.366548 33.5927,425.813727 60.1994899,425.090137 C86.8081635,424.366548 117.5725,414.238213 170.787963,413.514624 C224.003427,412.791035 276.388134,442.450536 317.132843,412.791035 C357.873783,383.131534 262.253984,381.684356 219.84588,386.74948 C177.439661,391.812691 72.6721291,393.983458 72.6721291,393.983458" id="Fill-55" fill="#D6EEE9"></path>
                    <path d="M107.652174,207.311092 C107.652174,207.311092 109.899731,219.6103 112.556112,222.435567 C112.556112,222.435567 112.249979,223.983888 113.271068,224.803587 L113.885271,230.087953 C113.885271,230.087953 111.738466,232.455973 111.637714,233.457828 C111.535023,234.459683 112.455359,235.463396 112.455359,235.463396 L114.088714,235.190163 C114.088714,235.190163 112.862245,237.28495 112.862245,237.922494 C112.862245,238.560038 113.373758,239.106504 115.212493,239.017285 C115.212493,239.017285 115.00905,239.65297 116.950475,240.199436 C118.891899,240.745903 127.680625,233.639983 128.192138,230.359327 C128.701713,227.082389 128.192138,219.337066 127.680625,218.153056 C127.169111,216.967187 116.132829,203.667984 116.132829,203.667984 L107.652174,207.311092 Z" id="Fill-56" fill="#F0AF85"></path>
                    <path d="M111.604743,210.611026 C111.604743,210.611026 111.691184,214.728695 114.902646,216.496904 C117.001654,217.653764 118.801877,221.107415 118.801877,221.107415 C118.801877,221.107415 117.45077,229.359684 120.22627,229.359684 C123.00177,229.359684 124.450593,219.916696 124.450593,218.62816 C124.450593,217.337744 122.569567,211.685119 121.814149,209.6197 C121.056853,207.55052 115.767054,203.667984 115.767054,203.667984 L111.604743,206.045661 L111.604743,210.611026 Z" id="Fill-57" fill="#FFBC90"></path>
                    <path d="M118.341192,204.656126 C118.341192,204.656126 119.744783,206.548496 119.475576,207.224343 C119.042988,208.316807 116.363912,210.75726 113.198407,212.608894 C110.034759,214.458676 106.761571,214.677169 106.176741,214.477193 C105.591912,214.275364 104.687747,212.320039 104.687747,212.320039 L118.341192,204.656126 Z" id="Fill-58" fill="#BCC7D4"></path>
                    <path d="M70.8228222,74.3665719 C70.8228222,74.3665719 90.1173918,71.6826196 94.2350896,89.3910547 C97.4034138,103.017999 100.120458,147.705335 100.120458,147.705335 L120.384999,203.569213 C121.974779,206.592191 106.294196,214.935987 104.706289,211.911126 C104.706289,211.911126 78.9196505,160.641043 76.5583877,153.755058 C74.1989974,146.869072 53.9644167,83.5503977 70.8228222,74.3665719" id="Fill-59" fill="#212543"></path>
                    <path d="M258.681939,86.0015533 C256.694677,100.474649 227.754464,140.039094 219.589656,147.646989 C215.302848,151.641322 186.235829,166.983407 171.3219,171.00036 C167.160006,172.12194 159.180676,156.885416 163.013252,154.921237 C163.013252,154.921237 205.090214,130.127719 207.932945,127.582958 C210.775676,125.036311 225.439777,83.5943973 232.152937,77.7018605 C243.217255,67.9940663 260.669201,71.5284574 258.681939,86.0015533" id="Fill-60" fill="#4A72CA"></path>
                    <path d="M171.040037,161.425689 C173.024969,165.460751 173.462518,169.284408 172.018419,169.966417 C170.570563,170.648425 167.791283,167.927745 165.80635,163.894522 C163.81954,159.857622 163.383869,156.033964 164.827968,155.353794 C166.273945,154.671786 169.055104,157.390627 171.040037,161.425689" id="Fill-61" fill="#4780DE"></path>
                    <path d="M211.548018,126.161092 C213.444199,127.349064 215.293537,128.487696 216.961127,129.899599 C218.692423,131.231798 220.198875,132.80311 221.769032,134.408581 C221.883328,134.526239 222.070698,134.528137 222.18874,134.412376 C222.282425,134.319388 222.299289,134.180854 222.248699,134.066991 C221.246271,131.968113 219.648008,130.218416 217.882986,128.728706 C216.054258,127.318701 214.011929,126.134524 211.769114,125.612651 C211.60985,125.574696 211.450586,125.677173 211.414985,125.838479 C211.385006,125.965627 211.443091,126.094672 211.548018,126.161092" id="Fill-62" fill="#3E63B3"></path>
                    <path d="M210.437306,126.991766 C211.195907,129.069048 212.242129,130.973533 213.263183,132.891024 C214.372322,134.75649 215.458092,136.636821 216.83328,138.344354 C216.93215,138.468842 217.111913,138.487422 217.232355,138.381514 C217.329427,138.299761 217.359986,138.165983 217.316843,138.052642 C216.56004,135.973502 215.512021,134.070876 214.490966,132.153385 C213.381827,130.286061 212.29426,128.407588 210.922667,126.700055 C210.821999,126.573709 210.642236,126.556987 210.521795,126.661036 C210.424723,126.74279 210.395961,126.876568 210.437306,126.991766" id="Fill-63" fill="#3E63B3"></path>
                    <path d="M258.261628,368.750976 C258.124403,368.37277 244.383135,369.814796 244.383135,369.814796 C244.383135,369.814796 238.666693,375.802748 232.527297,379.86986 C225.666062,384.412058 217.090459,384.807032 215.744529,389.999446 C214.398599,395.189998 217.015267,395.04654 217.015267,395.04654 C217.015267,395.04654 226.840931,396.190474 232.478423,394.159713 C238.115914,392.128951 246.095624,389.526223 246.095624,389.526223 L246.841901,391.696716 C251.757553,392.510883 256.567937,391.514134 261.29373,389.116345 C261.29373,389.116345 263.637828,383.486105 258.261628,368.750976" id="Fill-64" fill="#141033"></path>
                    <path d="M247.968379,369.675889 C245.701435,369.89927 243.934082,370.088576 243.934082,370.088576 C243.934082,370.088576 238.222583,376.17287 232.086619,380.303526 C225.285784,384.886623 216.800236,385.322027 215.359684,390.4844 C231.62459,394.736212 244.585805,383.834082 247.968379,369.675889" id="Fill-65" fill="#262051"></path>
                    <path d="M267.731225,207.150103 C267.731225,207.150103 258.512229,265.275334 257.35962,277.975992 C256.20701,290.67665 260.192177,309.453747 260.855116,319.801386 C262.301529,342.48073 259.077234,367.895224 259.077234,367.895224 C260.331545,373.687417 237.266164,378.86406 236.011853,373.071867 C236.011853,373.071867 237.20213,367.13661 234.301771,333.311483 C232.851592,316.42245 228.508588,296.058477 224.645838,273.475136 C220.781205,250.891795 222.807689,192.768447 222.807689,192.768447 C222.807689,192.768447 232.868542,177.112396 249.040865,180.408506 C265.21507,183.704615 267.731225,207.150103 267.731225,207.150103" id="Fill-66" fill="#012238"></path>
                    <path d="M289.819861,385.486166 C289.819861,385.486166 285.893124,390.602598 273.497949,388.408508 C273.497949,388.408508 269.571212,399.617975 264.049709,402.420809 C258.528205,405.223642 243.802941,410.584692 243.067618,415.458373 C242.330414,420.332055 251.902776,421.672784 262.945784,420.819423 C273.990672,419.967929 282.088627,411.925421 282.088627,411.925421 L283.194432,413.26615 C283.194432,413.26615 290.557064,411.436186 293.622477,408.269226 C296.68977,405.102267 289.819861,385.486166 289.819861,385.486166" id="Fill-68" fill="#141033"></path>
                    <path d="M252.574088,414.076152 C270.190631,415.125411 284.759625,403.563244 285.517787,388.450593 C283.001138,389.113769 279.443181,389.414876 274.5142,388.544805 C274.5142,388.544805 270.624664,399.634066 265.15547,402.406843 C261.52859,404.24674 253.902268,407.200552 248.956522,410.388968 C248.991915,410.551529 249.027308,410.714091 249.058976,410.880346 C249.405458,412.603865 250.802561,413.970857 252.574088,414.076152" id="Fill-69" fill="#262051"></path>
                    <path d="M285.062779,216.563907 C285.034336,217.991991 280.29,279.303652 283.667163,298.696621 C287.042429,318.091471 295.192371,324.274191 294.35045,377.788776 L293.533181,389.382787 C294.657637,394.978469 272.534472,399.354917 271.410016,393.759235 C271.410016,393.759235 273.511024,372.710516 267.418479,347.876152 C261.325933,323.043668 239.426522,255.310333 237.168127,215.130178 C234.970412,175.990512 285.770068,181.21365 285.062779,216.563907" id="Fill-70" fill="#02385A"></path>
                    <path d="M260.879715,63.3517787 C260.879715,63.3517787 286.186188,70.3558978 290.999099,76.5052131 C295.810122,82.6545285 299.182935,98.244342 296.325387,112.644208 C293.469726,127.044075 284.604534,161.89145 284.604534,161.89145 C284.604534,161.89145 292.452409,195.991343 291.297311,202.438145 C289.496716,212.505625 219.584941,221.132742 220.305934,207.470944 C221.026926,193.811029 227.07232,159.430595 227.07232,159.430595 C227.07232,159.430595 223.480567,122.080941 223.861825,113.726834 C224.241196,105.372728 228.974835,86.1452911 233.544269,80.45162 C238.111816,74.7560662 260.879715,63.3517787 260.879715,63.3517787" id="Fill-72" fill="#FFFFFF"></path>
                    <path d="M244.70613,82.9493663 C240.542933,79.6291545 241.319154,75.753339 246.582315,68.9960471 C251.845475,62.2406711 259.488417,59.4549885 263.649721,62.7771161 C267.811026,66.0973279 269.838668,68.5132465 264.575507,75.2705384 C259.31424,82.0259144 248.867435,86.269578 244.70613,82.9493663" id="Fill-73" fill="#4780DE"></path>
                    <path d="M264.826857,58.4110672 C264.826857,58.4110672 270.194243,52.2767707 275.147886,41.7123561 C280.101528,31.1479415 278.12308,15.9800077 264.292751,9.04582879 C250.460541,2.11164985 237.124823,7.88982154 233.073895,19.0546141 C229.024847,30.2194066 238.189274,45.4824313 264.826857,58.4110672" id="Fill-74" fill="#141033"></path>
                    <path d="M263.308074,48.5296443 C263.308074,48.9858862 266.575205,62.2875325 266.737132,66.3975275 C267.150525,76.990357 245.890362,86.4263555 244.87498,77.7157625 C244.56446,75.0489427 244.01581,62.0107331 244.01581,62.0107331 L263.308074,48.5296443 Z" id="Fill-75" fill="#FFBC90"></path>
                    <path d="M262.790514,51.6198018 C262.790514,51.6198018 260.805348,69.5514752 249.207191,71.2189496 C242.795955,72.139271 243.029618,56.022946 243.029618,56.022946 C243.029618,56.022946 242.419392,45.0355154 262.790514,51.6198018" id="Fill-76" fill="#F0AB7E"></path>
                    <path d="M255.391529,13.2950072 C255.391529,13.2950072 242.201785,10.6680022 235.379438,20.0509667 C228.558994,29.4339311 231.387679,35.6404884 231.199227,38.3781239 C231.008872,41.1176345 226.866732,62.4543156 236.791877,64.0537698 C247.817277,65.8294827 258.046991,59.0416467 261.128849,51.9669215 C261.128849,51.9669215 268.920107,52.9438449 271.166304,47.0485531 C273.414404,41.1551363 267.863633,35.5842356 263.628219,41.552656 C263.628219,41.552656 273.098414,18.5265162 255.391529,13.2950072" id="Fill-77" fill="#FFBC90"></path>
                    <path d="M263.778656,47.0093447 C263.778656,47.0093447 264.442599,40.589568 267.356751,41.753814 C270.269268,42.9162352 268.197309,49.6170368 264.122075,49.5166707 L265.052576,47.3469395 L263.778656,47.0093447 Z" id="Fill-78" fill="#F0AB7E"></path>
                    <path d="M262.733776,41.6207325 C262.733776,41.6207325 261.911438,44.3808143 261.813809,45.2588486 C261.718058,46.1387916 259.50826,45.3581046 260.661035,39.7921306 C261.813809,34.2242479 255.99549,31.9108184 255.708235,28.7842528 C255.419103,25.6595959 260.661035,21.5309259 259.797393,20.2615937 C259.797393,20.2615937 261.066571,16.7666354 251.62471,17.4576103 C242.180972,18.1485851 236.989732,18.8414687 235.204246,16.1596465 C233.41876,13.4778244 231.631397,4.39780441 249.75286,5.08877923 C267.872446,5.78166282 272.481666,26.3448444 262.733776,41.6207325" id="Fill-79" fill="#141033"></path>
                    <path d="M234.639359,22.6753143 C234.426673,21.6640075 238.31635,20.0383045 240.282265,19.3496009 C235.800514,19.7283879 227.009461,21.3758394 226.837012,20.4823371 C226.664563,19.5888348 228.479107,19.3423514 229.862529,18.8058876 C228.057566,18.3582303 227.934936,17.9268843 226.957726,17.1983084 C225.706515,16.2613091 224.014601,12.9863423 224.280938,12.6510524 C224.54536,12.3157625 226.540017,13.867158 228.243427,14.1372023 C226.978803,12.3338863 226.622409,10.1572205 226.60708,8.00049089 C226.566842,3.28830849 230.253413,-0.093588569 231.090747,0.120272017 C231.550611,0.332320224 231.456722,3.11250784 231.640667,4.60953194 C232.09095,3.08532217 233.681311,0.685733904 234.367273,0.948528692 C235.055152,1.21132348 236.063019,3.33543031 237.831577,4.42285702 C239.659534,5.54834366 238.906508,2.91314628 239.567561,2.22263032 C240.230531,1.53392674 251.069892,4.21443357 255.436677,6.19717493 C258.213102,7.45677753 262.769581,9.32715147 263.829183,12.3157625 C264.794896,15.0397664 265.534509,21.1166693 263.306088,21.796311 C262.330795,22.0953534 254.298516,19.3822237 251.799925,19.9404361 C244.949878,21.470083 234.796479,23.4165768 234.639359,22.6753143" id="Fill-80" fill="#141033"></path>
                    <path d="M137.725271,179.918477 C136.960388,181.139901 135.771493,181.139901 134.653267,180.579461 C133.537119,180.019021 132.91773,179.108539 133.682613,177.887115 C134.447497,176.663829 136.307743,175.591359 137.42389,176.153661 C138.544195,176.712239 138.490154,178.695191 137.725271,179.918477" id="Fill-88" fill="#F9C06F"></path>
                    <path d="M140.691497,182.882871 C139.924584,184.104335 138.735765,184.104335 137.61761,183.543876 C136.501534,182.983418 135.882184,182.072906 136.647018,180.851443 C137.411853,179.629979 139.27198,178.555612 140.388057,179.117932 C141.50829,179.676528 141.454253,181.661407 140.691497,182.882871" id="Fill-89" fill="#F9C06F"></path>
                    <path d="M143.654767,184.859189 C142.889772,186.080613 141.700703,186.080613 140.582313,185.520173 C139.466001,184.959733 138.846521,184.04925 139.611517,182.827826 C140.376512,181.60454 142.237031,180.53207 143.353342,181.094372 C144.471732,181.65295 144.419763,183.635902 143.654767,184.859189" id="Fill-90" fill="#F9C06F"></path>
                    <path d="M147.60596,186.83544 C146.843283,188.056904 145.652509,188.056904 144.53447,187.496446 C143.41851,186.935987 142.799224,186.025475 143.563979,184.804012 C144.328735,183.582548 146.188669,182.508181 147.30463,183.070501 C148.424747,183.629098 148.372794,185.613976 147.60596,186.83544" id="Fill-91" fill="#F9C06F"></path>
                    <path d="M80.0275307,381.180869 C80.128153,380.786085 97.8661645,380.545455 97.8661645,380.545455 C97.8661645,380.545455 100.759532,385.927674 107.170884,389.777757 C116.071216,395.124258 127.185239,397.214733 128.793298,399.547717 C130.006462,401.307325 128.99834,403.832062 128.99834,403.832062 C128.99834,403.832062 118.837381,406.240243 108.665031,404.777663 C100.700677,403.63091 94.4696856,400.901262 94.4696856,400.901262 L93.9437914,403.168449 C89.0626582,404.490035 84.1017866,403.974936 79.0782632,402.036735 C79.0782632,402.036735 76.1260415,396.594358 80.0275307,381.180869" id="Fill-92" fill="#141033"></path>
                    <path d="M128.403162,399.918978 C126.809884,397.542094 115.801294,395.408649 106.982008,389.959066 C100.630391,386.033374 97.7639824,380.545455 97.7639824,380.545455 C97.7639824,380.545455 94.5420935,380.589542 90.8537549,380.671966 C90.9835333,387.225649 95.9169918,392.276528 99.3890331,395.815019 C109.538077,402.021754 128.474432,400.026321 128.403162,399.918978" id="Fill-93" fill="#262051"></path>
                    <path d="M55.2806324,221.488537 C55.2806324,221.488537 67.694862,286.200083 70.2166205,298.760884 C72.7383789,311.321685 69.6933792,325.430717 70.0541701,335.837539 C70.414961,346.244361 76.1781708,380.461586 76.1781708,380.461586 C75.5472589,386.379855 99.221565,389.081264 99.8543658,383.161114 C99.8543658,383.161114 99.2404546,385.358361 98.5207617,351.267177 C97.8010688,317.175993 101.127523,308.334333 102.566909,285.368591 C104.008184,262.400968 94.1969377,203.903039 94.1969377,203.903039 C94.1969377,203.903039 86.9905643,187.754782 71.1365428,192.779478 C55.2806324,197.802294 55.2806324,221.488537 55.2806324,221.488537" id="Fill-94" fill="#10122D"></path>
                    <path d="M29.2899001,385.486166 C29.2899001,385.486166 33.4183452,390.510695 45.5921559,387.69552 C45.5921559,387.69552 50.2958001,398.340933 55.6024757,401.512028 C73.1404818,411.994627 76.4283941,410.909828 76.9924603,413.793158 C77.6270348,417.04566 67.0971803,420.392822 56.1182994,420.046368 C45.1394185,419.698021 38.1757984,412.034384 38.1757984,412.034384 L37.144151,413.450491 C37.144151,413.450491 29.7667587,411.937831 26.5808979,408.857609 C23.3950371,405.777387 29.2899001,385.486166 29.2899001,385.486166" id="Fill-97" fill="#141033"></path>
                    <path d="M52.084578,409.614018 C60.2810954,411.971654 67.8042871,412.959364 75.0434783,411.439956 C72.5965602,410.128686 67.1873853,408.312209 55.2424377,401.271465 C49.8633557,398.10209 45.0936522,387.462451 45.0936522,387.462451 C41.6010104,388.259052 38.7816943,388.414209 36.5059289,388.247699 C38.7534824,397.354685 42.9683505,405.947003 52.084578,409.614018" id="Fill-98" fill="#262051"></path>
                    <path d="M32.4115126,214.688882 C32.4639344,216.123609 38.1910248,277.700146 35.1655335,297.259131 C32.1381699,316.816234 24.1531943,323.16895 25.8774997,376.96934 L26.8828765,388.614732 C25.8606498,394.259499 47.8834559,398.294434 48.9056825,392.649667 C48.9056825,392.649667 46.4699373,371.516624 52.101545,346.44467 C57.7312804,321.368951 82.4013914,251.897649 75.9535002,213.007502 C69.5037368,174.117355 31.1253043,179.152081 32.4115126,214.688882" id="Fill-99" fill="#14173F"></path>
                    <path d="M30.5770751,222.991796 C31.1276456,222.991796 64.8619137,238.292111 69.2721536,236.052853 C73.6842856,233.813595 75.381405,219.477351 75.381405,219.477351 L90.2146446,218.97035 C90.2146446,218.97035 91.4879571,228.972112 92.9580371,229.346602 C94.4281171,229.719171 98.7588933,228.21545 98.7588933,224.29963 C98.7588933,220.381889 97.8393838,209.373805 97.8393838,209.373805 L40.3151726,205.644269 L30.5770751,222.991796 Z" id="Fill-101" fill="#0F0F12"></path>
                    <path d="M57.0451639,68.2924901 C57.0451639,68.2924901 36.9814465,75.9262047 32.1887084,82.0624862 C27.3997293,88.2006465 25.0014807,101.970643 27.8470515,116.339988 C30.6926223,130.709333 36.5078112,166.8187 36.5078112,166.8187 C36.5078112,166.8187 29.8111344,182.604688 28.8732613,197.828904 C28.0688331,210.886821 96.2290871,222.332696 98.4638187,210.712089 C100.444817,200.408547 91.8442016,164.646765 90.71086,164.167661 C90.71086,164.167661 95.2592624,127.034328 94.8814819,118.699807 C94.5018218,110.363407 88.8144393,91.0376903 84.2660368,85.3560874 C79.7176344,79.6707267 57.0451639,68.2924901 57.0451639,68.2924901" id="Fill-102" fill="#FFFFFF"></path>
                    <path d="M75.0940983,88.1977717 C72.4400223,91.614773 64.9552669,90.1192433 58.3788284,84.8546003 C51.80239,79.5937434 48.6223481,72.5552887 51.2764241,69.1382874 C53.9305001,65.7212861 61.4152555,67.2168157 67.991694,72.4795657 C74.5699976,77.7442087 77.7500394,84.7807704 75.0940983,88.1977717" id="Fill-103" fill="#BCC7D4"></path>
                    <path d="M50.6902865,70.2687747 C50.6902865,70.2687747 65.7596306,80.6349365 72.1573138,101.830711 C80.2991341,128.809214 79.045241,152.314675 78.7492091,164.860001 C78.3852973,180.240888 72.2006816,228.725394 67.8356251,232.009273 C64.7923416,234.300043 23.8230338,223.487455 23.6608762,219.057245 C23.5515141,216.142235 34.7328467,162.359259 33.5883157,159.29481 C32.4418992,156.23036 23.1894878,102.275245 25.3899288,89.5048147 C27.0096193,80.0958204 37.240633,73.1856764 50.6902865,70.2687747" id="Fill-104" fill="#303767"></path>
                    <path d="M26.6245059,101.889328 C26.6245059,101.889328 44.2629591,159.862939 53.7610204,168.028263 C63.2572066,176.193587 78.9960474,169.390091 78.9960474,169.390091 L26.6245059,101.889328 Z" id="Fill-106" fill="#212543"></path>
                    <polygon id="Fill-107" fill="#212543" points="44.5733452 184.893281 69.1146245 182.775316 68.9057149 180.940711 44.4110672 183.01731"></polygon>
                    <path d="M66.1501976,74.2213439 C66.1501976,74.2213439 78.9557803,87.5361461 83.7651423,105.399074 C88.5726285,123.260118 86.3442658,148.567659 86.8244517,159.187485 C87.3046376,169.807311 92.0145861,225.876376 93.4570195,226.358496 C94.899453,226.8425 103.173281,222.429971 102.69122,220.015603 C102.212909,217.601236 93.0743714,162.083972 93.0743714,156.773118 C93.0743714,151.464146 96.4094125,122.056701 95.961114,113.325807 C95.1789362,98.1258396 90.6809447,88.7489796 85.8640799,81.9465658 C81.7206007,76.0970925 66.1501976,74.2213439 66.1501976,74.2213439" id="Fill-108" fill="#303767"></path>
                    <path d="M53.5877168,52.4822134 C53.5877168,52.8989263 50.8015459,68.3765597 50.3399209,71.0068207 C53.0494585,73.2662455 53.7975463,74.044237 57.1402216,77.4371972 C61.9498789,81.4322885 68.2940285,85.5019293 72.5380584,83.636279 L73.0671937,61.7703227 L53.5877168,52.4822134 Z" id="Fill-109" fill="#FFBC90"></path>
                    <path d="M54.232104,61.3754941 C54.232104,61.3754941 48.8646636,55.2411976 43.9109713,44.676783 C38.957279,34.1123684 40.9376275,18.9444346 54.7680957,12.0102557 C68.6004446,5.07607673 81.9344152,10.8542484 85.9853846,22.019041 C90.0344733,33.1838335 80.8699544,48.4468582 54.232104,61.3754941" id="Fill-110" fill="#141033"></path>
                    <path d="M55.2806324,52.5962219 C55.2806324,52.5962219 57.39577,69.5127077 68.6240206,72.0860723 C77.2420206,74.0615649 74.6905766,56.9748113 74.6905766,56.9748113 C74.6905766,56.9748113 75.2919207,46.0486537 55.2806324,52.5962219" id="Fill-111" fill="#F0AB7E"></path>
                    <path d="M62.6811306,16.2594341 C62.6811306,16.2594341 75.871079,13.6324291 82.6916281,23.0153935 C89.5121773,32.398358 86.6834483,38.6030401 86.8719033,41.3425507 C87.0622619,44.0820614 91.2044653,65.4187425 81.2791672,67.0181967 C70.2554998,68.7939096 60.0237243,62.0060736 56.9418183,54.9313484 C56.9418183,54.9313484 49.1504402,55.9082718 46.9042086,50.0129799 C44.6579769,44.1195632 50.2069305,38.5486624 54.4424097,44.5170829 C54.4424097,44.5170829 44.9739722,21.4909431 62.6811306,16.2594341" id="Fill-112" fill="#FFBC90"></path>
                    <path d="M53.2319989,49.9933857 C53.2319989,49.9933857 53.9981591,43.2026899 50.5440078,43.6062314 C47.0898564,44.0097729 47.7935479,51.4723943 52.2729207,52.4822134 L51.76031,49.9933857 L53.2319989,49.9933857 Z" id="Fill-113" fill="#F0AB7E"></path>
                    <path d="M83.9378186,51.1069165 C83.9378186,51.1069165 83.8447323,53.7579906 85.4034706,53.4446111 C86.9585584,53.1312315 88.3895313,51.829052 88.9370974,52.366274 C89.4846636,52.9054426 89.9062895,52.5472945 89.8624842,51.739515 C89.8223293,50.9317354 90.2202274,47.5663117 83.9378186,51.1069165" id="Fill-114" fill="#141033"></path>
                    <path d="M82.8847244,51.7998724 C82.8847244,51.7998724 76.8779489,50.7915915 73.4243379,50.5372339 C70.445646,50.3176446 67.9532711,51.1411045 66.5285141,56.6308367 C65.1037571,62.1205689 68.1622354,57.7507421 68.1622354,57.7507421 C68.1622354,57.7507421 69.6629795,54.1604572 71.541759,53.446792 C73.4243379,52.7331268 79.6362784,55.4779929 81.5169577,54.6545331 C83.3976369,53.8310733 82.8847244,51.7998724 82.8847244,51.7998724" id="Fill-115" fill="#141033"></path>
                    <path d="M54.3483231,44.5851594 C54.3483231,44.5851594 55.1725388,47.3452411 55.2682905,48.2232754 C55.3640422,49.1032185 57.5738415,48.3225315 56.421066,42.7565575 C55.2682905,37.1886748 58.9199979,32.7946857 59.207253,29.6700289 C59.4945081,26.545372 57.1138578,24.7835771 56.8829272,23.2546522 C56.8829272,23.2546522 56.0155294,19.7291536 65.4592764,20.4220371 C74.901146,21.113012 80.0923906,21.8058956 81.8778784,19.1240734 C83.6652436,16.4422512 85.4507314,7.36223128 67.3311284,8.05320611 C49.2096481,8.7460897 44.6023011,29.3092713 54.3483231,44.5851594" id="Fill-116" fill="#141033"></path>
                    <path d="M56.3010339,47.3588495 C56.3010339,47.3588495 54.3295088,71.7794935 81.2117228,70.1948617 C86.7413812,69.8673962 91.6232529,66.3951329 91.8297936,59.3997928 C92.0776425,51.062597 88.4368928,50.6052745 88.4368928,50.6052745 L88.3110907,55.3629339 C88.3110907,55.3629339 88.919447,57.6589562 83.4555061,58.72416 C77.9915651,59.7874818 62.5103991,57.5065154 57.6529368,46.5533597 L56.3010339,47.3588495 Z" id="Fill-124" fill="#141033"></path>
                    <path d="M50.3399209,16.9090909 C50.3399209,20.7290885 47.2433322,23.826087 43.42384,23.826087 C39.6043478,23.826087 36.5059289,20.7290885 36.5059289,16.9090909 C36.5059289,13.0890934 39.6043478,9.99209486 43.42384,9.99209486 C47.2433322,9.99209486 50.3399209,13.0890934 50.3399209,16.9090909" id="Fill-125" fill="#141033"></path>
                    <path d="M135.692193,162.822124 C135.692193,162.822124 130.159404,168.992776 131.61004,176.553945 C131.61004,176.553945 144.852515,186.059576 146.589882,186.948903 C148.327249,187.840115 149.56095,188.007806 150.326825,187.744022 C151.094587,187.480239 151.203998,186.530618 152.139648,186.076533 C153.077185,185.622448 154.32975,186.683235 155.122035,186.214077 C155.916206,185.746804 155.735112,184.420349 156.508533,184.019021 C157.281954,183.619577 159.37019,184.341214 160.324705,183.853214 C161.277333,183.365214 161.130194,180.721726 161.528223,180.152707 C161.924366,179.585572 163.0147,180.736799 164.810546,178.846978 C166.604505,176.957157 152.120784,163.464625 152.120784,163.464625 L154.699483,160.237045 C154.699483,160.237045 160.313387,162.17397 161.43579,161.132025 C162.56008,160.090079 162.320508,157.523842 162.320508,157.523842 C162.320508,157.523842 152.226422,152.694718 149.323264,154.786145 C146.040942,157.148892 143.46413,157.91198 135.692193,162.822124" id="Fill-126" fill="#FFBC90"></path>
                    <path d="M155.232589,154.26203 C153.189628,154.399275 148.584436,155.891806 147.682349,156.385504 C146.348171,157.117474 140.912908,162.99801 141.265404,163.623234 C141.616005,164.246552 144.670971,165.628526 148.175086,163.459304 C151.682991,161.288175 150.375344,161.707533 150.375344,161.707533 L164.513092,176 C166.673552,174.675211 168.40192,172.178128 169.912347,168.811831 C173.26485,167.201116 167.217457,155.255145 163.868744,156.867766 C163.868744,156.867766 156.219957,154.197221 155.232589,154.26203" id="Fill-127" fill="#EEAD83"></path>
                    <path d="M133.899478,160.189723 C133.899478,160.189723 136.470709,160.411532 136.83522,161.143502 C137.423083,162.330179 137.505277,166.433644 136.75124,170.507535 C135.995416,174.583274 133.815498,177.531484 133.229421,177.878984 C132.643345,178.226485 130.379447,177.531484 130.379447,177.531484 L133.899478,160.189723 Z" id="Fill-128" fill="#BCC7D4"></path>
                    <path d="M41.3439741,79.2364998 C39.9025375,79.0133808 24.0806072,78.2896503 24.6639562,94.8435796 C25.2454234,111.399384 56.6785257,162.709252 62.7923996,165.321057 C80.7633124,172.993351 128.882078,178.925691 128.882078,178.925691 C133.658013,179.960663 138.031248,159.921202 133.255314,158.88623 C133.255314,158.88623 81.9375375,147.104048 79.0226743,143.909134 C76.1096928,140.71422 58.2498045,92.8861323 54.753474,88.8212418 C54.753474,88.8212418 47.2339172,80.1439754 41.3439741,79.2364998" id="Fill-129" fill="#303767"></path>
                    <path d="M76.9047174,143.930426 C75.1574693,145.303219 73.4490901,146.621024 71.9461605,148.194806 C70.3765987,149.692743 69.0458027,151.406838 67.6594798,153.160751 C67.5576804,153.289687 67.3744414,153.310545 67.2467294,153.206258 C67.1486318,153.124725 67.1153157,152.986308 67.1541845,152.868748 C67.9352637,150.680623 69.3363938,148.780708 70.9281664,147.121601 C72.5884223,145.536442 74.4781896,144.152273 76.6344862,143.407097 C76.7881108,143.354005 76.9528408,143.439331 77.0046659,143.594813 C77.0453857,143.719957 77.0009641,143.854581 76.9047174,143.930426" id="Fill-130" fill="#212543"></path>
                    <path d="M77.9980551,144.761272 C77.4283826,146.972934 76.5536598,149.037024 75.7028264,151.116446 C74.7582727,153.147955 73.8412838,155.194796 72.6100562,157.092149 C72.5218489,157.230138 72.3399212,157.266552 72.2076102,157.174559 C72.1010263,157.099815 72.0587603,156.965659 72.0881628,156.844918 C72.6541599,154.63134 73.5307204,152.565333 74.3833915,150.487828 C75.3279452,148.456319 76.2467717,146.411394 77.4761616,144.512125 C77.5662066,144.374135 77.744459,144.337721 77.8804453,144.431631 C77.9851915,144.504459 78.0292952,144.640531 77.9980551,144.761272" id="Fill-131" fill="#212543"></path>
                    <path d="M221.288538,212.972779 C221.288538,212.972779 226.346302,222.736906 231.625685,223.625588 C236.905067,224.512375 237.346424,218.075592 237.346424,218.075592 C237.346424,218.075592 239.325958,225.177465 241.523353,225.401056 C243.724504,225.622753 282.556418,219.697578 287.007552,217.888002 C291.456807,216.080322 284.419509,196.328475 284.419509,196.328475 L236.685328,194.774704 L221.288538,212.972779 Z" id="Fill-132" fill="#012B46"></path>
                    <path d="M286.522359,154.449767 C287.634931,149.685994 304.643023,100.862954 302.047021,88.0387108 C299.451019,75.2125896 269.15292,66.3162055 269.15292,66.3162055 C269.15292,66.3162055 246.484974,114.447972 239.096353,131.786153 C237.641451,121.090205 244.720073,74.1005416 244.720073,74.1005416 L244.168541,69.7443941 C244.168541,69.7443941 235.096798,74.9740252 232.086197,77.6771284 C228.267317,81.1071954 222.097771,104.589817 222.097771,110.760557 C222.097771,116.931296 222.367831,141.105191 222.367831,148.990964 C222.367831,156.876736 214.035901,207.617684 214.382035,209.330839 C214.73007,211.045872 230.378351,222.215192 233.153125,219.812643 C234.022263,219.065016 235.247043,211.404658 236.435689,200.930368 C237.80691,212.732729 239.982607,219.615404 241.142725,220.924691 C243.738727,223.856966 291.345407,213.812843 292.828837,210.514268 C294.314168,207.215693 285.409787,159.21354 286.522359,154.449767" id="Fill-133" fill="#4780DE"></path>
                    <polygon id="Fill-134" fill="#456CC0" points="239.87264 73.2332016 232.054018 88.6947748 238.249978 88.5490519 231.16996 92.9263436 238.000629 143.391304 241.051383 87.0899547"></polygon>
                    <path d="M239.075099,144.379447 C240.016319,144.106469 269.304782,95.4993068 269.304782,95.4993068 L266.494245,90.4131941 L271.672833,91.0122294 L277.612648,68.2924901 L270.784111,68.4289792 L260.430684,87.2720503 L239.075099,144.379447 Z" id="Fill-135" fill="#456CC0"></path>
                    <polygon id="Fill-136" fill="#456CC0" points="246.173039 182.916996 270.695652 180.683862 270.469938 178.964427 245.992095 181.160729"></polygon>
                    <polygon id="Fill-137" fill="#456CC0" points="218.324111 178.650037 229.834654 181.928854 230.181818 180.140222 219.137893 176.988142"></polygon>
                    <path d="M268.014592,68.3077528 C274.151343,70.9972607 280.227857,73.8674493 285.858233,77.5845789 C287.26818,78.5086855 288.591534,79.5777131 289.80759,80.7916617 L290.643393,81.7966983 C290.882463,82.1712344 291.070707,82.598469 291.277775,83.0012364 C291.526257,83.9422819 291.437782,84.7835765 291.400134,85.6361637 C291.125298,89.0145169 290.496563,92.3062938 289.882888,95.601835 C287.298299,108.753886 284.124506,121.761016 281.101309,134.79826 L278.816028,144.566312 L277.754332,149.459748 C277.458789,151.123516 277.022063,152.681888 277.185835,154.319307 C277.560441,160.968734 278.157174,167.652039 278.703081,174.31464 L282.123473,214.318482 C282.134768,214.431408 282.051941,214.527394 281.938994,214.537549 C281.831695,214.546215 281.733808,214.465285 281.722514,214.358006 C280.36151,201.040331 279.066392,187.718892 277.893633,174.384278 C277.311959,167.712266 276.683224,161.06472 276.27097,154.353184 C276.208849,153.534475 276.223909,152.597194 276.382034,151.767191 C276.513805,150.927779 276.668165,150.099659 276.830054,149.277185 L277.871043,144.355518 L280.111146,134.564881 C283.198346,121.540812 286.439906,108.55062 289.086616,95.4475035 C289.713468,92.1726654 290.357262,88.8771242 290.641511,85.5853472 C290.692337,84.7760482 290.746927,83.9140505 290.568096,83.2327336 C290.383616,82.8977214 290.240551,82.5476525 290.033483,82.2201687 L289.271095,81.2922979 C288.126572,80.1385762 286.837101,79.0902516 285.459156,78.1623808 C279.964316,74.4151378 273.925451,71.4451984 267.854584,68.6785247 C267.75105,68.6352366 267.703989,68.5166649 267.747285,68.415032 C267.790581,68.311517 267.91294,68.2663468 268.014592,68.3077528" id="Fill-138" fill="#456CC0"></path>
                    <path d="M276.162706,91.0197628 C276.162706,91.0197628 268.579179,149.162524 279.814245,150.275457 C291.05122,151.388391 296.387352,123.846586 296.387352,123.846586 L276.162706,91.0197628 Z" id="Fill-139" fill="#456CC0"></path>
                    <path d="M276.624506,68.1196097 L265.448195,60.3873518 L266.31561,64.2572306 L239.396083,130.174542 L242.585873,87.5833753 L244.982385,72.7300903 L244.287341,66.9065227 L239.440566,71.3651331 L233.146245,86.5221585 L238.988324,86.9777693 L233.296375,90.1595447 L238.187633,143.263507 C238.187633,143.263507 238.489745,143.398503 238.532375,143.391304 L265.79479,91.7026213 L261.274222,87.6546231 L268.578674,88.5358455 C270.528505,78.6305306 274.187217,71.0707673 276.624506,68.1196097" id="Fill-140" fill="#6997FD"></path>
                    <path d="M239.07496,144.551183 L237.953493,159.416419 L237.464703,173.453723 C237.028812,182.806919 236.971681,192.167625 236.863766,201.532085 C236.863766,201.620323 236.762199,201.693542 236.637357,201.6917 C236.51463,201.689787 236.415179,201.616568 236.408831,201.532085 C236.186654,196.844223 236.078739,192.15636 236.118943,187.472253 C236.137987,182.786268 236.193002,178.10216 236.319961,173.41993 C236.766431,164.059224 237.655141,153.863076 238.622141,144.526776 C238.630605,144.436661 238.740636,144.370952 238.863363,144.380339 C238.986089,144.387849 239.079192,144.464822 239.07496,144.551183" id="Fill-141" fill="#456CC0"></path>
                    <path d="M243.027668,147.837945 C243.027668,149.202504 242.143209,150.3083 241.052529,150.3083 C239.959558,150.3083 239.075099,149.202504 239.075099,147.837945 C239.075099,146.473385 239.959558,145.367589 241.052529,145.367589 C242.143209,145.367589 243.027668,146.473385 243.027668,147.837945" id="Fill-142" fill="#456CC0"></path>
                    <path d="M242.039526,147.837945 C242.039526,149.200643 241.153289,150.3083 240.065531,150.3083 C238.973193,150.3083 238.086957,149.200643 238.086957,147.837945 C238.086957,146.473385 238.973193,145.367589 240.065531,145.367589 C241.153289,145.367589 242.039526,146.473385 242.039526,147.837945" id="Fill-143" fill="#6997FD"></path>
                    <path d="M242.039526,171.552429 C242.039526,172.917503 241.155067,174.023715 240.064387,174.023715 C238.971415,174.023715 238.086957,172.917503 238.086957,171.552429 C238.086957,170.189217 238.971415,169.083004 240.064387,169.083004 C241.155067,169.083004 242.039526,170.189217 242.039526,171.552429" id="Fill-144" fill="#456CC0"></path>
                    <path d="M241.051383,170.565217 C241.051383,171.929777 240.165147,173.035573 239.075099,173.035573 C237.985051,173.035573 237.098814,171.929777 237.098814,170.565217 C237.098814,169.202519 237.985051,168.094862 239.075099,168.094862 C240.165147,168.094862 241.051383,169.202519 241.051383,170.565217" id="Fill-145" fill="#6997FD"></path>
                    <path d="M241.051383,194.280632 C241.051383,195.643331 240.166924,196.750988 239.076244,196.750988 C237.983273,196.750988 237.098814,195.643331 237.098814,194.280632 C237.098814,192.917934 237.983273,191.810277 239.076244,191.810277 C240.166924,191.810277 241.051383,192.917934 241.051383,194.280632" id="Fill-146" fill="#74286D"></path>
                    <path d="M241.051383,194.281564 C241.051383,195.644775 240.165147,196.750988 239.075099,196.750988 C237.982761,196.750988 237.098814,195.644775 237.098814,194.281564 C237.098814,192.916489 237.982761,191.810277 239.075099,191.810277 C240.165147,191.810277 241.051383,192.916489 241.051383,194.281564" id="Fill-147" fill="#6997FD"></path>
                    <path d="M275.636364,235.084965 C275.636364,235.084965 276.861786,239.828753 278.164891,240.190932 C279.469937,240.556844 280.751678,238.251224 280.557475,235.447143 C280.392402,233.098585 275.636364,235.084965 275.636364,235.084965" id="Fill-148" fill="#FFBC90"></path>
                    <path d="M333.426319,308.833938 L243.565941,320.268775 C241.405022,320.351128 238.398527,310.712027 238.315849,308.547609 L236.113591,250.754446 C236.030913,248.588144 237.71455,246.764684 239.877347,246.681799 L330.92717,243.194995 C333.086209,243.11211 338.794792,246.954941 338.87747,249.121243 L337.190075,304.76129 C337.272754,306.927592 335.587237,308.751053 333.426319,308.833938" id="Fill-149" fill="#004B48"></path>
                    <path d="M339.355708,316.703056 L246.2258,320.266028 C244.232642,320.343198 242.555082,318.78475 242.47994,316.787754 L240.065982,253.478647 C239.988961,251.483533 241.544414,249.800862 243.537572,249.723692 L336.665602,246.16072 C338.660639,246.085432 340.33632,247.64388 340.413341,249.640876 L342.827298,312.948101 C342.904319,314.945097 341.348867,316.625886 339.355708,316.703056" id="Fill-150" fill="#006466"></path>
                    <path d="M243.149348,317.304348 C242.602484,304.309089 242.119514,291.310065 241.717352,278.311041 L241.151695,258.812506 L241.084041,256.374953 L241.051383,255.147707 C241.033301,254.428676 241.388482,253.711528 241.971052,253.291779 C242.260458,253.080964 242.604363,252.939793 242.957664,252.883325 C243.357946,252.841914 243.419962,252.85509 243.664266,252.836268 L244.882026,252.776035 L247.313789,252.653686 L257.038961,252.169941 L295.956561,250.479653 C308.929094,249.952615 321.907266,249.504632 334.887316,249.12253 L334.924901,249.928145 C321.965523,250.76576 309.004265,251.541259 296.039248,252.233938 L257.132924,254.206567 L247.405873,254.635727 L244.97411,254.743017 L243.756349,254.797603 L243.248949,254.822073 C243.201968,254.829602 243.160624,254.84466 243.11928,254.871012 C243.040351,254.929363 242.995249,255.01783 242.995249,255.115708 L243.021559,256.326014 L243.074178,258.763566 L243.466943,278.269631 C243.70373,291.272419 243.859709,304.27709 243.953672,317.283643 L243.149348,317.304348 Z" id="Fill-151" fill="#FFFFFF"></path>
                    <path d="M271.765198,247.213247 L271.683794,238.001118 C271.655735,235.026002 274.033705,232.56154 277.06656,232.419075 L300.110218,231.34041 C302.254165,231.238649 304.06029,232.898275 304.098035,235.003799 L304.29249,246.055024 C304.311298,247.124438 300.221567,247.194745 300.202695,246.125331 L300.040389,236.920603 C300.027178,236.065812 299.293027,235.39049 298.421105,235.433045 L278.604691,236.361844 C277.015604,236.435851 275.771888,237.727289 275.785099,239.287005 L275.854928,247.176243 C275.868139,248.428826 271.778408,248.46583 271.765198,247.213247" id="Fill-152" fill="#006466"></path>
                    <path d="M286.918927,216.513834 C286.918927,216.513834 281.584737,221.844931 279.965697,222.996723 C278.348536,224.144694 277.039406,227.172207 276.637463,228.492088 C276.455275,229.08995 275.636364,231.617016 275.636364,231.617016 C275.636364,231.617016 281.520877,231.233086 282.208311,231.141401 C283.470486,230.971402 282.324762,236.376992 282.078713,237.374066 C281.832664,238.37114 279.392835,239.360573 280.348858,243.239992 C280.679427,244.578974 282.384865,245.698294 284.114721,244.565603 C285.239784,245.99245 286.513228,246.426043 288.028964,245.236049 C289.636734,246.399301 291.298973,246.517728 293.030707,245.270431 C293.030707,245.270431 296.802204,246.170089 298.415609,240.79315 C300.006475,235.490705 299.088017,219.006518 299.088017,219.006518 L286.918927,216.513834 Z" id="Fill-153" fill="#FFBC90"></path>
                    <path d="M301.328063,221.043681 C301.328063,221.043681 300.98093,223.735274 300.227261,224.081121 C299.009511,224.643123 294.888466,224.530347 290.837961,223.543555 C286.785599,222.556762 283.936138,220.124554 283.61685,219.491127 C283.295705,218.857701 284.105063,216.513834 284.105063,216.513834 L301.328063,221.043681 Z" id="Fill-154" fill="#4780DE"></path>
                    <path d="M301.986775,85.0109061 C311.918068,98.3078241 320.867639,149.651893 318.820046,155.983041 C316.772453,162.31419 302.734754,220.511039 302.734754,220.511039 C301.573517,225.262225 281.7128,220.33214 282.875908,215.58472 C282.875908,215.58472 293.080213,159.37836 293.014765,155.041467 C292.949317,150.706457 278.176729,104.230329 276.918254,99.0027063 C274.382604,88.4834336 288.728845,67.2565734 301.986775,85.0109061" id="Fill-155" fill="#6997FD"></path>
                    <path d="M294.88025,153.229122 C296.826243,152.098021 298.702804,150.986638 300.751014,150.142346 C302.751008,149.213804 304.870578,148.575655 307.048006,147.89807 C307.208083,147.849671 307.294872,147.688341 307.24087,147.539559 C307.200369,147.421251 307.078865,147.345964 306.953503,147.344171 C304.583211,147.328038 302.261135,147.969772 300.101064,148.862463 C297.983423,149.844782 295.975715,151.101362 294.481023,152.809664 C294.373019,152.931558 294.392306,153.110813 294.523453,153.209404 C294.627599,153.288276 294.772247,153.291861 294.88025,153.229122" id="Fill-156" fill="#4780DE"></path>
                    <path d="M294.681831,155.056046 C296.92966,155.283318 299.154803,155.144979 301.379945,155.040235 C303.599417,154.822844 305.820779,154.637073 308.017564,154.083714 C308.178258,154.042212 308.274675,153.872251 308.236864,153.704267 C308.206616,153.571856 308.098856,153.478971 307.974082,153.467113 C305.726253,153.237864 303.503,153.376204 301.275967,153.482923 C299.056496,153.700315 296.838915,153.888062 294.64213,154.439445 C294.481435,154.480947 294.381238,154.648931 294.419048,154.816915 C294.451187,154.951303 294.558947,155.044188 294.681831,155.056046" id="Fill-157" fill="#4780DE"></path>
                </g>
                <g id="Group-2" transform="translate(285.910299, 81.923588) scale(-1, 1) translate(-285.910299, -81.923588) translate(259.000000, 59.000000)">
                    <path d="M5.53156146,2.84217094e-14 L47.4219269,2.84217094e-14 C50.4647841,2.84217094e-14 52.954485,2.48870432 52.954485,5.53255814 L52.954485,28.3465116 L52.954485,30.033887 L52.954485,44.5564784 C52.954485,44.8116279 52.8089701,45.0299003 52.5727575,45.1275748 C52.3365449,45.2242525 52.0803987,45.1734219 51.9,44.9930233 L42.4724252,35.5664452 L5.53156146,35.5664452 C2.48870432,35.5664452 5.96855898e-13,33.0777409 5.96855898e-13,30.033887 L5.96855898e-13,5.53255814 C5.96855898e-13,2.48870432 2.48870432,2.84217094e-14 5.53156146,2.84217094e-14" id="Fill-43" fill="#FF4100"></path>
                    <path d="M14.134186,20.8289701 C15.8125914,20.8289701 17.1810299,19.4605316 17.1810299,17.7831229 C17.1810299,16.1047176 15.8125914,14.7362791 14.134186,14.7362791 C12.4557807,14.7362791 11.0873422,16.1047176 11.0873422,17.7831229 C11.0873422,19.4605316 12.4557807,20.8289701 14.134186,20.8289701" id="Fill-44" fill="#FFFFFF"></path>
                    <path d="M26.4768439,20.8289701 C28.1552492,20.8289701 29.5236877,19.4605316 29.5236877,17.7831229 C29.5236877,16.1047176 28.1552492,14.7362791 26.4768439,14.7362791 C24.7984385,14.7362791 23.43,16.1047176 23.43,17.7831229 C23.43,19.4605316 24.7984385,20.8289701 26.4768439,20.8289701" id="Fill-45" fill="#FFFFFF"></path>
                    <path d="M38.82,20.8289701 C40.4984053,20.8289701 41.8668439,19.4605316 41.8668439,17.7831229 C41.8668439,16.1047176 40.4984053,14.7362791 38.82,14.7362791 C37.1415947,14.7362791 35.7731561,16.1047176 35.7731561,17.7831229 C35.7731561,19.4605316 37.1415947,20.8289701 38.82,20.8289701" id="Fill-46" fill="#FFFFFF"></path>
                </g>
            </g>
        </g>
    </g>
</svg>